Roboto-Italic.ufo
<glyph name="quotedbl" format="2">
  <advance width="636"/>
  <unicode hex="0022"/>
  <outline>
    <contour>
      <point x="416" y="1536" type="line"/>
      <point x="279" y="1536" type="line"/>
      <point x="256" y="1391" type="line"/>
      <point x="201" y="1043" type="line"/>
      <point x="311" y="1043" type="line"/>
      <point x="393" y="1390" type="line"/>
    </contour>
    <contour>
      <point x="679" y="1536" type="line"/>
      <point x="541" y="1536" type="line"/>
      <point x="519" y="1399" type="line"/>
      <point x="463" y="1043" type="line"/>
      <point x="574" y="1043" type="line"/>
      <point x="656" y="1391" type="line"/>
    </contour>
  </outline>
</glyph>
<glyph name="numbersign" format="2">
  <advance width="1224"/>
  <unicode hex="0023"/>
  <outline>
    <contour>
      <point x="163" y="0" type="line"/>
      <point x="308" y="0" type="line"/>
      <point x="836" y="1456" type="line"/>
      <point x="691" y="1456" type="line"/>
    </contour>
    <contour>
      <point x="558" y="0" type="line"/>
      <point x="703" y="0" type="line"/>
      <point x="1232" y="1456" type="line"/>
      <point x="1087" y="1456" type="line"/>
    </contour>
    <contour>
      <point x="1252" y="901" type="line"/>
      <point x="1276" y="1040" type="line"/>
      <point x="266" y="1040" type="line"/>
      <point x="241" y="901" type="line"/>
    </contour>
    <contour>
      <point x="1093" y="410" type="line"/>
      <point x="1117" y="547" type="line"/>
      <point x="106" y="547" type="line"/>
      <point x="82" y="410" type="line"/>
    </contour>
  </outline>
</glyph>
<glyph name="dollar" format="2">
  <advance width="1116"/>
  <unicode hex="0024"/>
  <outline>
    <contour>
      <point x="825" y="1692" type="line"/>
      <point x="679" y="1692" type="line"/>
      <point x="631" y="1387" type="line"/>
      <point x="777" y="1387" type="line"/>
    </contour>
    <contour>
      <point x="553" y="58" type="line"/>
      <point x="407" y="58" type="line"/>
      <point x="365" y="-208" type="line"/>
      <point x="511" y="-208" type="line"/>
    </contour>
    <contour>
      <point x="795" y="382" type="curve" smooth="yes"/>
      <point x="775" y="222"/>
      <point x="637" y="138"/>
      <point x="484" y="141" type="curve" smooth="yes"/>
      <point x="311" y="144"/>
      <point x="248" y="273"/>
      <point x="260" y="429" type="curve"/>
      <point x="79" y="430" type="line"/>
      <point x="63" y="167"/>
      <point x="206" y="-17"/>
      <point x="475" y="-21" type="curve" smooth="yes"/>
      <point x="730" y="-26"/>
      <point x="955" y="114"/>
      <point x="975" y="384" type="curve" smooth="yes"/>
      <point x="994" y="617"/>
      <point x="841" y="731"/>
      <point x="643" y="809" type="curve" smooth="yes"/>
      <point x="515" y="859"/>
      <point x="399" y="924"/>
      <point x="417" y="1076" type="curve" smooth="yes"/>
      <point x="435" y="1222"/>
      <point x="542" y="1319"/>
      <point x="692" y="1315" type="curve" smooth="yes"/>
      <point x="860" y="1311"/>
      <point x="895" y="1146"/>
      <point x="884" y="1008" type="curve"/>
      <point x="1064" y="1008" type="line"/>
      <point x="1082" y="1260"/>
      <point x="977" y="1472"/>
      <point x="701" y="1477" type="curve" smooth="yes"/>
      <point x="454" y="1482"/>
      <point x="256" y="1324"/>
      <point x="236" y="1072" type="curve" smooth="yes"/>
      <point x="218" y="839"/>
      <point x="375" y="721"/>
      <point x="574" y="645" type="curve" smooth="yes"/>
      <point x="696" y="599"/>
      <point x="814" y="527"/>
    </contour>
  </outline>
</glyph>
<glyph name="percent" format="2">
  <advance width="1455"/>
  <unicode hex="0025"/>
  <outline>
    <contour>
      <point x="191" y="1099" type="line" smooth="yes"/>
      <point x="179" y="937"/>
      <point x="280" y="803"/>
      <point x="449" y="800" type="curve" smooth="yes"/>
      <point x="625" y="796"/>
      <point x="752" y="929"/>
      <point x="771" y="1099" type="curve" smooth="yes"/>
      <point x="779" y="1176" type="line" smooth="yes"/>
      <point x="791" y="1339"/>
      <point x="692" y="1474"/>
      <point x="523" y="1477" type="curve" smooth="yes"/>
      <point x="345" y="1481"/>
      <point x="217" y="1346"/>
      <point x="198" y="1176" type="curve" smooth="yes"/>
    </contour>
    <contour>
      <point x="336" y="1176" type="line" smooth="yes"/>
      <point x="350" y="1270"/>
      <point x="415" y="1360"/>
      <point x="519" y="1358" type="curve" smooth="yes"/>
      <point x="621" y="1355"/>
      <point x="652" y="1263"/>
      <point x="643" y="1177" type="curve" smooth="yes"/>
      <point x="634" y="1099" type="line" smooth="yes"/>
      <point x="620" y="1005"/>
      <point x="556" y="917"/>
      <point x="452" y="919" type="curve" smooth="yes"/>
      <point x="351" y="921"/>
      <point x="319" y="1011"/>
      <point x="327" y="1097" type="curve" smooth="yes"/>
    </contour>
    <contour>
      <point x="737" y="279" type="line" smooth="yes"/>
      <point x="725" y="117"/>
      <point x="825" y="-19"/>
      <point x="995" y="-22" type="curve" smooth="yes"/>
      <point x="1171" y="-26"/>
      <point x="1298" y="109"/>
      <point x="1317" y="279" type="curve" smooth="yes"/>
      <point x="1325" y="357" type="line" smooth="yes"/>
      <point x="1337" y="519"/>
      <point x="1237" y="655"/>
      <point x="1068" y="658" type="curve" smooth="yes"/>
      <point x="891" y="662"/>
      <point x="763" y="527"/>
      <point x="744" y="357" type="curve" smooth="yes"/>
    </contour>
    <contour>
      <point x="882" y="357" type="line" smooth="yes"/>
      <point x="896" y="451"/>
      <point x="961" y="540"/>
      <point x="1065" y="538" type="curve" smooth="yes"/>
      <point x="1167" y="536"/>
      <point x="1198" y="445"/>
      <point x="1190" y="358" type="curve" smooth="yes"/>
      <point x="1180" y="279" type="line" smooth="yes"/>
      <point x="1166" y="185"/>
      <point x="1103" y="96"/>
      <point x="998" y="98" type="curve" smooth="yes"/>
      <point x="897" y="100"/>
      <point x="865" y="190"/>
      <point x="873" y="277" type="curve" smooth="yes"/>
    </contour>
    <contour>
      <point x="1238" y="1241" type="line"/>
      <point x="1139" y="1313" type="line"/>
      <point x="258" y="184" type="line"/>
      <point x="357" y="112" type="line"/>
    </contour>
  </outline>
</glyph>
<glyph name="parenright" format="2">
  <advance width="692"/>
  <unicode hex="0029"/>
  <outline>
    <contour>
      <point x="549" y="597" type="line" smooth="yes"/>
      <point x="596" y="944"/>
      <point x="544" y="1425"/>
      <point x="228" y="1643" type="curve"/>
      <point x="183" y="1532" type="line"/>
      <point x="417" y="1315"/>
      <point x="409" y="879"/>
      <point x="367" y="595" type="curve" smooth="yes"/>
      <point x="365" y="581" type="line" smooth="yes"/>
      <point x="311" y="230"/>
      <point x="178" y="-134"/>
      <point x="-113" y="-357" type="curve"/>
      <point x="-85" y="-471" type="line"/>
      <point x="293" y="-283"/>
      <point x="491" y="192"/>
      <point x="548" y="586" type="curve" smooth="yes"/>
    </contour>
  </outline>
</glyph>
<glyph name="comma" format="2">
  <advance width="391"/>
  <unicode hex="002C"/>
  <anchor x="232" y="224" name="_bottom"/>
  <anchor x="32" y="68" name="_right"/>
  <outline>
    <contour>
      <point x="234" y="220" type="line"/>
      <point x="58" y="220" type="line"/>
      <point x="31" y="68" type="line" smooth="yes"/>
      <point x="11" y="-40"/>
      <point x="-44" y="-131"/>
      <point x="-113" y="-216" type="curve"/>
      <point x="-13" y="-291" type="line"/>
      <point x="103" y="-202"/>
      <point x="187" y="-74"/>
      <point x="210" y="72" type="curve" smooth="yes"/>
    </contour>
  </outline>
</glyph>
<glyph name="slash" format="2">
  <advance width="820"/>
  <unicode hex="002F"/>
  <outline>
    <contour>
      <point x="915" y="1456" type="line"/>
      <point x="752" y="1456" type="line"/>
      <point x="-112" y="-125" type="line"/>
      <point x="51" y="-125" type="line"/>
    </contour>
  </outline>
</glyph>
<glyph name="one" format="2">
  <advance width="1116"/>
  <unicode hex="0031"/>
  <outline>
    <contour>
      <point x="852" y="1464" type="line"/>
      <point x="820" y="1463" type="line"/>
      <point x="281" y="1268" type="line"/>
      <point x="251" y="1093" type="line"/>
      <point x="637" y="1229" type="line"/>
      <point x="423" y="0" type="line"/>
      <point x="604" y="0" type="line"/>
    </contour>
  </outline>
</glyph>
<glyph name="two" format="2">
  <advance width="1116"/>
  <unicode hex="0032"/>
  <outline>
    <contour>
      <point x="974" y="151" type="line"/>
      <point x="272" y="152" type="line"/>
      <point x="718" y="575" type="line" smooth="yes"/>
      <point x="860" y="711"/>
      <point x="1034" y="886"/>
      <point x="1053" y="1093" type="curve" smooth="yes"/>
      <point x="1075" y="1331"/>
      <point x="901" y="1473"/>
      <point x="674" y="1476" type="curve" smooth="yes"/>
      <point x="402" y="1481"/>
      <point x="188" y="1301"/>
      <point x="162" y="1027" type="curve"/>
      <point x="342" y="1028" type="line"/>
      <point x="366" y="1202"/>
      <point x="482" y="1331"/>
      <point x="668" y="1326" type="curve" smooth="yes"/>
      <point x="813" y="1322"/>
      <point x="886" y="1207"/>
      <point x="868" y="1072" type="curve" smooth="yes"/>
      <point x="846" y="907"/>
      <point x="694" y="774"/>
      <point x="583" y="665" type="curve" smooth="yes"/>
      <point x="45" y="141" type="line"/>
      <point x="24" y="0" type="line"/>
      <point x="950" y="0" type="line"/>
    </contour>
  </outline>
</glyph>
<glyph name="five" format="2">
  <advance width="1116"/>
  <unicode hex="0035"/>
  <outline>
    <contour>
      <point x="369" y="694" type="line"/>
      <point x="443" y="752"/>
      <point x="513" y="787"/>
      <point x="610" y="785" type="curve" smooth="yes"/>
      <point x="787" y="781"/>
      <point x="852" y="626"/>
      <point x="835" y="469" type="curve" smooth="yes"/>
      <point x="816" y="295"/>
      <point x="710" y="128"/>
      <point x="516" y="131" type="curve" smooth="yes"/>
      <point x="361" y="134"/>
      <point x="291" y="241"/>
      <point x="284" y="384" type="curve"/>
      <point x="114" y="384" type="line"/>
      <point x="123" y="149"/>
      <point x="266" y="-17"/>
      <point x="508" y="-21" type="curve" smooth="yes"/>
      <point x="802" y="-27"/>
      <point x="992" y="188"/>
      <point x="1018" y="471" type="curve" smooth="yes"/>
      <point x="1040" y="713"/>
      <point x="930" y="949"/>
      <point x="659" y="951" type="curve" smooth="yes"/>
      <point x="575" y="952"/>
      <point x="493" y="930"/>
      <point x="421" y="888" type="curve"/>
      <point x="533" y="1285" type="line"/>
      <point x="1104" y="1285" type="line"/>
      <point x="1131" y="1456" type="line"/>
      <point x="404" y="1456" type="line"/>
      <point x="220" y="734" type="line"/>
    </contour>
  </outline>
</glyph>
<glyph name="six" format="2">
  <advance width="1116"/>
  <unicode hex="0036"/>
  <outline>
    <contour>
      <point x="931" y="1459" type="line" smooth="yes"/>
      <point x="430" y="1457"/>
      <point x="198" y="1080"/>
      <point x="132" y="626" type="curve" smooth="yes"/>
      <point x="120" y="539" type="line" smooth="yes"/>
      <point x="88" y="279"/>
      <point x="204" y="-14"/>
      <point x="502" y="-20" type="curve" smooth="yes"/>
      <point x="792" y="-27"/>
      <point x="975" y="210"/>
      <point x="1001" y="481" type="curve" smooth="yes"/>
      <point x="1024" y="717"/>
      <point x="918" y="948"/>
      <point x="656" y="955" type="curve" smooth="yes"/>
      <point x="399" y="962"/>
      <point x="245" y="771"/>
      <point x="191" y="537" type="curve"/>
      <point x="288" y="536" type="line"/>
      <point x="327" y="681"/>
      <point x="462" y="807"/>
      <point x="620" y="803" type="curve" smooth="yes"/>
      <point x="795" y="798"/>
      <point x="838" y="616"/>
      <point x="822" y="473" type="curve" smooth="yes"/>
      <point x="803" y="306"/>
      <point x="700" y="127"/>
      <point x="509" y="133" type="curve" smooth="yes"/>
      <point x="312" y="139"/>
      <point x="285" y="386"/>
      <point x="302" y="533" type="curve" smooth="yes"/>
      <point x="333" y="747" type="line" smooth="yes"/>
      <point x="382" y="1063"/>
      <point x="585" y="1303"/>
      <point x="924" y="1302" type="curve" smooth="yes"/>
      <point x="937" y="1301" type="line"/>
      <point x="952" y="1458" type="line"/>
    </contour>
  </outline>
</glyph>
<glyph name="question" format="2">
  <advance width="939"/>
  <unicode hex="003F"/>
  <outline>
    <contour>
      <point x="499" y="410" type="line"/>
      <point x="515" y="512"/>
      <point x="554" y="596"/>
      <point x="635" y="663" type="curve" smooth="yes"/>
      <point x="775" y="779"/>
      <point x="927" y="909"/>
      <point x="946" y="1104" type="curve" smooth="yes"/>
      <point x="966" y="1327"/>
      <point x="829" y="1472"/>
      <point x="608" y="1476" type="curve" smooth="yes"/>
      <point x="383" y="1481"/>
      <point x="192" y="1345"/>
      <point x="166" y="1115" type="curve"/>
      <point x="346" y="1116" type="line"/>
      <point x="372" y="1240"/>
      <point x="467" y="1320"/>
      <point x="597" y="1316" type="curve" smooth="yes"/>
      <point x="726" y="1313"/>
      <point x="776" y="1218"/>
      <point x="760" y="1100" type="curve" smooth="yes"/>
      <point x="742" y="963"/>
      <point x="635" y="881"/>
      <point x="539" y="796" type="curve" smooth="yes"/>
      <point x="411" y="682"/>
      <point x="339" y="582"/>
      <point x="321" y="409" type="curve"/>
    </contour>
    <contour>
      <point x="251" y="91" type="curve" smooth="yes"/>
      <point x="250" y="28"/>
      <point x="295" y="-14"/>
      <point x="356" y="-13" type="curve" smooth="yes"/>
      <point x="417" y="-11"/>
      <point x="463" y="33"/>
      <point x="464" y="95" type="curve" smooth="yes"/>
      <point x="465" y="158"/>
      <point x="419" y="202"/>
      <point x="357" y="201" type="curve" smooth="yes"/>
      <point x="296" y="199"/>
      <point x="252" y="153"/>
    </contour>
  </outline>
</glyph>
<glyph name="at" format="2">
  <advance width="1784"/>
  <unicode hex="0040"/>
  <outline>
    <contour>
      <point x="1672" y="508" type="curve" smooth="yes"/>
      <point x="1751" y="964"/>
      <point x="1599" y="1425"/>
      <point x="1071" y="1431" type="curve" smooth="yes"/>
      <point x="538" y="1438"/>
      <point x="177" y="958"/>
      <point x="89" y="473" type="curve" smooth="yes"/>
      <point x="6" y="15"/>
      <point x="168" y="-448"/>
      <point x="696" y="-453" type="curve" smooth="yes"/>
      <point x="821" y="-454"/>
      <point x="958" y="-432"/>
      <point x="1065" y="-366" type="curve"/>
      <point x="1036" y="-250" type="line"/>
      <point x="931" y="-301"/>
      <point x="815" y="-329"/>
      <point x="698" y="-327" type="curve" smooth="yes"/>
      <point x="243" y="-323"/>
      <point x="161" y="101"/>
      <point x="233" y="473" type="curve" smooth="yes"/>
      <point x="312" y="886"/>
      <point x="604" y="1307"/>
      <point x="1067" y="1300" type="curve" smooth="yes"/>
      <point x="1537" y="1293"/>
      <point x="1616" y="900"/>
      <point x="1545" y="508" type="curve" smooth="yes"/>
      <point x="1516" y="350"/>
      <point x="1428" y="89"/>
      <point x="1225" y="97" type="curve" smooth="yes"/>
      <point x="1107" y="101"/>
      <point x="1128" y="250"/>
      <point x="1143" y="328" type="curve" smooth="yes"/>
      <point x="1284" y="883" type="line"/>
      <point x="1138" y="883" type="line"/>
      <point x="996" y="328" type="line" smooth="yes"/>
      <point x="965" y="164"/>
      <point x="1004" y="-17"/>
      <point x="1201" y="-22" type="curve" smooth="yes"/>
      <point x="1486" y="-29"/>
      <point x="1630" y="264"/>
    </contour>
    <contour>
      <point x="663" y="410" type="curve" smooth="yes"/>
      <point x="698" y="585"/>
      <point x="795" y="869"/>
      <point x="1020" y="863" type="curve" smooth="yes"/>
      <point x="1089" y="861"/>
      <point x="1145" y="833"/>
      <point x="1192" y="785" type="curve"/>
      <point x="1282" y="880" type="line"/>
      <point x="1199" y="948"/>
      <point x="1116" y="989"/>
      <point x="1005" y="991" type="curve" smooth="yes"/>
      <point x="715" y="996"/>
      <point x="548" y="652"/>
      <point x="503" y="411" type="curve" smooth="yes"/>
      <point x="471" y="240"/>
      <point x="480" y="-16"/>
      <point x="708" y="-22" type="curve" smooth="yes"/>
      <point x="896" y="-27"/>
      <point x="1014" y="157"/>
      <point x="1076" y="310" type="curve"/>
      <point x="1018" y="382" type="line"/>
      <point x="975" y="282"/>
      <point x="895" y="116"/>
      <point x="760" y="121" type="curve" smooth="yes"/>
      <point x="616" y="126"/>
      <point x="644" y="316"/>
    </contour>
  </outline>
</glyph>
<glyph name="B" format="2">
  <advance width="1237"/>
  <unicode hex="0042"/>
  <anchor x="763" y="1612" name="top"/>
  <anchor x="493" y="10" name="bottom"/>
  <anchor x="1410" y="1600" name="top_dd"/>
  <anchor x="1063" y="-407" name="bottom_dd"/>
  <anchor x="1412" y="1612" name="top0315"/>
  <outline>
    <contour>
      <point x="692" y="681" type="line"/>
      <point x="767" y="727" type="line"/>
      <point x="959" y="754"/>
      <point x="1153" y="861"/>
      <point x="1171" y="1075" type="curve" smooth="yes"/>
      <point x="1193" y="1340"/>
      <point x="1005" y="1450"/>
      <point x="763" y="1455" type="curve" smooth="yes"/>
      <point x="312" y="1456" type="line"/>
      <point x="60" y="0" type="line"/>
      <point x="248" y="0" type="line"/>
      <point x="474" y="1298" type="line"/>
      <point x="760" y="1297" type="line" smooth="yes"/>
      <point x="905" y="1294"/>
      <point x="1002" y="1234"/>
      <point x="981" y="1078" type="curve" smooth="yes"/>
      <point x="958" y="916"/>
      <point x="817" y="835"/>
      <point x="662" y="834" type="curve" smooth="yes"/>
      <point x="348" y="836" type="line"/>
      <point x="324" y="681" type="line"/>
    </contour>
    <contour>
      <point x="566" y="0" type="line" smooth="yes"/>
      <point x="835" y="-2"/>
      <point x="1070" y="142"/>
      <point x="1093" y="428" type="curve" smooth="yes"/>
      <point x="1108" y="608"/>
      <point x="1009" y="752"/>
      <point x="828" y="779" type="curve"/>
      <point x="797" y="835" type="line"/>
      <point x="443" y="836" type="line"/>
      <point x="414" y="682" type="line"/>
      <point x="693" y="680" type="line" smooth="yes"/>
      <point x="851" y="675"/>
      <point x="928" y="581"/>
      <point x="907" y="426" type="curve" smooth="yes"/>
      <point x="883" y="251"/>
      <point x="741" y="157"/>
      <point x="571" y="156" type="curve" smooth="yes"/>
      <point x="258" y="157" type="line"/>
      <point x="124" y="0" type="line"/>
    </contour>
  </outline>
</glyph>
<glyph name="E" format="2">
  <advance width="1129"/>
  <unicode hex="0045"/>
  <anchor x="1304" y="1612" name="top0315"/>
  <anchor x="107" y="1455" name="tonos"/>
  <anchor x="775" y="1612" name="top"/>
  <anchor x="498" y="10" name="bottom"/>
  <anchor x="1302" y="1600" name="top_dd"/>
  <anchor x="887" y="0" name="ogonek"/>
  <anchor x="955" y="-407" name="bottom_dd"/>
  <outline>
    <contour>
      <point x="985" y="157" type="line"/>
      <point x="236" y="157" type="line"/>
      <point x="209" y="0" type="line"/>
      <point x="958" y="0" type="line"/>
    </contour>
    <contour>
      <point x="501" y="1456" type="line"/>
      <point x="312" y="1456" type="line"/>
      <point x="60" y="0" type="line"/>
      <point x="248" y="0" type="line"/>
    </contour>
    <contour>
      <point x="1003" y="830" type="line"/>
      <point x="353" y="830" type="line"/>
      <point x="326" y="673" type="line"/>
      <point x="976" y="673" type="line"/>
    </contour>
    <contour>
      <point x="1201" y="1456" type="line"/>
      <point x="462" y="1456" type="line"/>
      <point x="434" y="1298" type="line"/>
      <point x="1174" y="1298" type="line"/>
    </contour>
  </outline>
</glyph>
<glyph name="I" format="2">
  <advance width="541"/>
  <unicode hex="0049"/>
  <anchor x="257" y="0" name="right"/>
  <anchor x="716" y="1612" name="top0315"/>
  <anchor x="127" y="1457" name="tonos"/>
  <anchor x="445" y="1612" name="top"/>
  <anchor x="168" y="9" name="bottom"/>
  <anchor x="713" y="1600" name="top_dd"/>
  <anchor x="227" y="0" name="ogonek"/>
  <anchor x="367" y="-407" name="bottom_dd"/>
  <outline>
    <contour>
      <point x="514" y="1456" type="line"/>
      <point x="326" y="1456" type="line"/>
      <point x="73" y="0" type="line"/>
      <point x="262" y="0" type="line"/>
    </contour>
  </outline>
</glyph>
<glyph name="J" format="2">
  <advance width="1096"/>
  <unicode hex="004A"/>
  <anchor x="999" y="1599" name="top"/>
  <anchor x="391" y="-10" name="bottom"/>
  <anchor x="1269" y="1600" name="top_dd"/>
  <anchor x="922" y="-407" name="bottom_dd"/>
  <anchor x="1269" y="1599" name="top0315"/>
  <outline>
    <contour>
      <point x="728" y="425" type="line" smooth="yes"/>
      <point x="702" y="264"/>
      <point x="590" y="132"/>
      <point x="416" y="137" type="curve" smooth="yes"/>
      <point x="253" y="141"/>
      <point x="191" y="253"/>
      <point x="203" y="403" type="curve"/>
      <point x="15" y="403" type="line"/>
      <point x="-2" y="145"/>
      <point x="147" y="-17"/>
      <point x="407" y="-22" type="curve" smooth="yes"/>
      <point x="684" y="-27"/>
      <point x="879" y="155"/>
      <point x="917" y="425" type="curve" smooth="yes"/>
      <point x="1093" y="1456" type="line"/>
      <point x="904" y="1456" type="line"/>
    </contour>
  </outline>
</glyph>
<glyph name="K" format="2">
  <advance width="1246"/>
  <unicode hex="004B"/>
  <anchor x="1082" y="-2" name="right"/>
  <anchor x="1418" y="1595" name="top0315"/>
  <anchor x="758" y="1595" name="top"/>
  <anchor x="552" y="90" name="bottom"/>
  <anchor x="376" y="1229" name="cross"/>
  <anchor x="1419" y="1600" name="top_dd"/>
  <anchor x="1072" y="-407" name="bottom_dd"/>
  <outline>
    <contour>
      <point x="501" y="1456" type="line"/>
      <point x="312" y="1456" type="line"/>
      <point x="60" y="0" type="line"/>
      <point x="248" y="0" type="line"/>
    </contour>
    <contour>
      <point x="1361" y="1456" type="line"/>
      <point x="1119" y="1456" type="line"/>
      <point x="556" y="918" type="line"/>
      <point x="263" y="639" type="line"/>
      <point x="258" y="418" type="line"/>
      <point x="652" y="773" type="line"/>
    </contour>
    <contour>
      <point x="926" y="0" type="line"/>
      <point x="1137" y="0" type="line"/>
      <point x="651" y="864" type="line"/>
      <point x="521" y="719" type="line"/>
    </contour>
  </outline>
</glyph>
<glyph name="Q" format="2">
  <advance width="1367"/>
  <unicode hex="0051"/>
  <anchor x="852" y="1600" name="top"/>
  <anchor x="572" y="-10" name="bottom"/>
  <anchor x="1540" y="1600" name="top_dd"/>
  <anchor x="1193" y="-407" name="bottom_dd"/>
  <anchor x="1540" y="1600" name="top0315"/>
  <outline>
    <contour>
      <point x="804" y="166" type="line"/>
      <point x="672" y="51" type="line"/>
      <point x="983" y="-246" type="line"/>
      <point x="1122" y="-134" type="line"/>
    </contour>
    <contour>
      <point x="1272" y="774" type="line" smooth="yes"/>
      <point x="1316" y="1108"/>
      <point x="1200" y="1469"/>
      <point x="811" y="1476" type="curve" smooth="yes"/>
      <point x="415" y="1484"/>
      <point x="188" y="1128"/>
      <point x="135" y="773" type="curve" smooth="yes"/>
      <point x="122" y="681" type="line" smooth="yes"/>
      <point x="78" y="350"/>
      <point x="198" y="-13"/>
      <point x="583" y="-20" type="curve" smooth="yes"/>
      <point x="984" y="-28"/>
      <point x="1205" y="324"/>
      <point x="1259" y="682" type="curve" smooth="yes"/>
    </contour>
    <contour>
      <point x="1071" y="681" type="line" smooth="yes"/>
      <point x="1032" y="424"/>
      <point x="894" y="134"/>
      <point x="591" y="143" type="curve" smooth="yes"/>
      <point x="306" y="152"/>
      <point x="279" y="461"/>
      <point x="309" y="681" type="curve" smooth="yes"/>
      <point x="323" y="776" type="line" smooth="yes"/>
      <point x="362" y="1028"/>
      <point x="507" y="1321"/>
      <point x="804" y="1312" type="curve" smooth="yes"/>
      <point x="1092" y="1304"/>
      <point x="1116" y="1002"/>
      <point x="1086" y="777" type="curve" smooth="yes"/>
    </contour>
  </outline>
</glyph>
<glyph name="R" format="2">
  <advance width="1224"/>
  <unicode hex="0052"/>
  <anchor x="764" y="1601" name="top"/>
  <anchor x="490" y="10" name="bottom"/>
  <anchor x="1397" y="1600" name="top_dd"/>
  <anchor x="1050" y="-407" name="bottom_dd"/>
  <anchor x="1397" y="1601" name="top0315"/>
  <outline>
    <contour>
      <point x="312" y="1456" type="line"/>
      <point x="59" y="0" type="line"/>
      <point x="248" y="0" type="line"/>
      <point x="473" y="1298" type="line"/>
      <point x="764" y="1297" type="line" smooth="yes"/>
      <point x="935" y="1292"/>
      <point x="1036" y="1200"/>
      <point x="1011" y="1026" type="curve" smooth="yes"/>
      <point x="986" y="843"/>
      <point x="827" y="747"/>
      <point x="652" y="746" type="curve" smooth="yes"/>
      <point x="330" y="747" type="line"/>
      <point x="305" y="590" type="line"/>
      <point x="757" y="590" type="line"/>
      <point x="813" y="610" type="line"/>
      <point x="1016" y="673"/>
      <point x="1179" y="800"/>
      <point x="1200" y="1026" type="curve" smooth="yes"/>
      <point x="1227" y="1311"/>
      <point x="1035" y="1449"/>
      <point x="767" y="1455" type="curve" smooth="yes"/>
    </contour>
    <contour>
      <point x="889" y="0" type="line"/>
      <point x="1090" y="0" type="line"/>
      <point x="1091" y="13" type="line"/>
      <point x="846" y="661" type="line"/>
      <point x="661" y="661" type="line"/>
    </contour>
  </outline>
</glyph>
<glyph name="T" format="2">
  <advance width="1186"/>
  <unicode hex="0054"/>
  <anchor x="578" y="0" name="right"/>
  <anchor x="1358" y="1600" name="top0315"/>
  <anchor x="766" y="1600" name="top"/>
  <anchor x="492" y="0" name="bottom"/>
  <anchor x="649" y="895" name="cross"/>
  <anchor x="1358" y="1600" name="top_dd"/>
  <anchor x="1012" y="-407" name="bottom_dd"/>
  <outline>
    <contour>
      <point x="836" y="1456" type="line"/>
      <point x="649" y="1456" type="line"/>
      <point x="397" y="0" type="line"/>
      <point x="583" y="0" type="line"/>
    </contour>
    <contour>
      <point x="1290" y="1456" type="line"/>
      <point x="196" y="1456" type="line"/>
      <point x="169" y="1298" type="line"/>
      <point x="1262" y="1298" type="line"/>
    </contour>
  </outline>
</glyph>
<glyph name="X" format="2">
  <advance width="1246"/>
  <unicode hex="0058"/>
  <anchor x="983" y="0" name="right"/>
  <anchor x="1403" y="1612" name="top0315"/>
  <anchor x="791" y="1612" name="top"/>
  <anchor x="534" y="10" name="bottom"/>
  <anchor x="646" y="742" name="cross"/>
  <anchor x="1401" y="1600" name="top_dd"/>
  <anchor x="1089" y="-407" name="bottom_dd"/>
  <outline>
    <contour>
      <point x="414" y="1456" type="line"/>
      <point x="205" y="1456" type="line"/>
      <point x="536" y="744" type="line"/>
      <point x="-44" y="0" type="line"/>
      <point x="189" y="0" type="line"/>
      <point x="626" y="567" type="line"/>
      <point x="885" y="0" type="line"/>
      <point x="1095" y="0" type="line"/>
      <point x="757" y="726" type="line"/>
      <point x="1323" y="1456" type="line"/>
      <point x="1092" y="1456" type="line"/>
      <point x="666" y="899" type="line"/>
    </contour>
  </outline>
</glyph>
<glyph name="bracketleft" format="2">
  <advance width="527"/>
  <unicode hex="005B"/>
  <outline>
    <contour>
      <point x="675" y="1664" type="line"/>
      <point x="308" y="1664" type="line"/>
      <point x="-1" y="-312" type="line"/>
      <point x="366" y="-312" type="line"/>
      <point x="390" y="-161" type="line"/>
      <point x="204" y="-160" type="line"/>
      <point x="466" y="1512" type="line"/>
      <point x="651" y="1513" type="line"/>
    </contour>
  </outline>
</glyph>
<glyph name="bracketright" format="2">
  <advance width="527"/>
  <unicode hex="005D"/>
  <outline>
    <contour>
      <point x="152" y="1513" type="line"/>
      <point x="338" y="1512" type="line"/>
      <point x="76" y="-160" type="line"/>
      <point x="-110" y="-161" type="line"/>
      <point x="-133" y="-312" type="line"/>
      <point x="234" y="-312" type="line"/>
      <point x="543" y="1664" type="line"/>
      <point x="175" y="1664" type="line"/>
    </contour>
  </outline>
</glyph>
<glyph name="c" format="2">
  <advance width="1040"/>
  <unicode hex="0063"/>
  <anchor x="624" y="1290" name="marktop"/>
  <anchor x="1148" y="1290" name="top0315"/>
  <anchor x="624" y="1290" name="top"/>
  <anchor x="422" y="-10" name="bottom"/>
  <anchor x="1196" y="1600" name="top_dd"/>
  <anchor x="883" y="-407" name="bottom_dd"/>
  <outline>
    <contour>
      <point x="482" y="131" type="curve" smooth="yes"/>
      <point x="267" y="135"/>
      <point x="239" y="349"/>
      <point x="258" y="519" type="curve" smooth="yes"/>
      <point x="263" y="560" type="line" smooth="yes"/>
      <point x="288" y="750"/>
      <point x="392" y="957"/>
      <point x="613" y="951" type="curve" smooth="yes"/>
      <point x="753" y="947"/>
      <point x="823" y="839"/>
      <point x="824" y="710" type="curve"/>
      <point x="994" y="709" type="line"/>
      <point x="995" y="934"/>
      <point x="849" y="1097"/>
      <point x="620" y="1102" type="curve" smooth="yes"/>
      <point x="308" y="1109"/>
      <point x="116" y="849"/>
      <point x="83" y="561" type="curve" smooth="yes"/>
      <point x="79" y="518" type="line" smooth="yes"/>
      <point x="52" y="245"/>
      <point x="170" y="-16"/>
      <point x="475" y="-21" type="curve" smooth="yes"/>
      <point x="687" y="-24"/>
      <point x="900" y="125"/>
      <point x="932" y="342" type="curve"/>
      <point x="760" y="341" type="line"/>
      <point x="726" y="216"/>
      <point x="614" y="128"/>
    </contour>
  </outline>
</glyph>
<glyph name="e" format="2">
  <advance width="1053"/>
  <unicode hex="0065"/>
  <anchor x="1161" y="1290" name="top0315"/>
  <anchor x="893" y="654" name="rhotichook"/>
  <anchor x="656" y="1290" name="top"/>
  <anchor x="457" y="0" name="bottom"/>
  <anchor x="1209" y="1600" name="top_dd"/>
  <anchor x="698" y="26" name="ogonek"/>
  <anchor x="897" y="-407" name="bottom_dd"/>
  <outline>
    <contour>
      <point x="489" y="-20" type="curve" smooth="yes"/>
      <point x="656" y="-22"/>
      <point x="809" y="50"/>
      <point x="905" y="187" type="curve"/>
      <point x="800" y="276" type="line"/>
      <point x="720" y="189"/>
      <point x="625" y="129"/>
      <point x="504" y="132" type="curve" smooth="yes"/>
      <point x="301" y="137"/>
      <point x="239" y="330"/>
      <point x="257" y="502" type="curve" smooth="yes"/>
      <point x="261" y="543" type="line" smooth="yes"/>
      <point x="285" y="726"/>
      <point x="385" y="958"/>
      <point x="606" y="951" type="curve" smooth="yes"/>
      <point x="767" y="946"/>
      <point x="827" y="799"/>
      <point x="806" y="656" type="curve" smooth="yes"/>
      <point x="802" y="639" type="line"/>
      <point x="203" y="640" type="line"/>
      <point x="179" y="489" type="line"/>
      <point x="965" y="489" type="line"/>
      <point x="976" y="572" type="line" smooth="yes"/>
      <point x="1007" y="835"/>
      <point x="912" y="1096"/>
      <point x="613" y="1102" type="curve" smooth="yes"/>
      <point x="307" y="1108"/>
      <point x="112" y="820"/>
      <point x="82" y="544" type="curve" smooth="yes"/>
      <point x="78" y="501" type="line" smooth="yes"/>
      <point x="54" y="228"/>
      <point x="194" y="-16"/>
    </contour>
  </outline>
</glyph>
<glyph name="f" format="2">
  <advance width="690"/>
  <unicode hex="0066"/>
  <anchor x="686" y="1754" name="top"/>
  <anchor x="218" y="10" name="bottom"/>
  <anchor x="863" y="1600" name="top_dd"/>
  <anchor x="516" y="-407" name="bottom_dd"/>
  <anchor x="889" y="1754" name="top0315"/>
  <outline>
    <contour>
      <point x="301" y="0" type="line"/>
      <point x="506" y="1197" type="line" smooth="yes"/>
      <point x="527" y="1316"/>
      <point x="603" y="1403"/>
      <point x="731" y="1402" type="curve" smooth="yes"/>
      <point x="763" y="1402"/>
      <point x="795" y="1397"/>
      <point x="827" y="1391" type="curve"/>
      <point x="849" y="1544" type="line"/>
      <point x="807" y="1553"/>
      <point x="764" y="1560"/>
      <point x="720" y="1560" type="curve" smooth="yes"/>
      <point x="493" y="1562"/>
      <point x="352" y="1414"/>
      <point x="323" y="1195" type="curve" smooth="yes"/>
      <point x="120" y="0" type="line"/>
    </contour>
    <contour>
      <point x="712" y="1082" type="line"/>
      <point x="142" y="1082" type="line"/>
      <point x="117" y="940" type="line"/>
      <point x="688" y="940" type="line"/>
    </contour>
  </outline>
</glyph>
<glyph name="g" format="2">
  <advance width="1116"/>
  <unicode hex="0067"/>
  <anchor x="659" y="1290" name="top"/>
  <anchor x="356" y="-447" name="bottom"/>
  <anchor x="1288" y="1600" name="top_dd"/>
  <anchor x="942" y="-407" name="bottom_dd"/>
  <anchor x="1235" y="1290" name="top0315"/>
  <outline>
    <contour>
      <point x="899" y="1082" type="line"/>
      <point x="843" y="854" type="line"/>
      <point x="701" y="14" type="line" smooth="yes"/>
      <point x="672" y="-161"/>
      <point x="548" y="-281"/>
      <point x="365" y="-276" type="curve" smooth="yes"/>
      <point x="254" y="-273"/>
      <point x="168" y="-216"/>
      <point x="106" y="-127" type="curve"/>
      <point x="2" y="-235" type="line"/>
      <point x="84" y="-357"/>
      <point x="227" y="-424"/>
      <point x="373" y="-427" type="curve" smooth="yes"/>
      <point x="652" y="-434"/>
      <point x="846" y="-246"/>
      <point x="884" y="24" type="curve" smooth="yes"/>
      <point x="1065" y="1082" type="line"/>
    </contour>
    <contour>
      <point x="82" y="522" type="line" smooth="yes"/>
      <point x="56" y="286"/>
      <point x="130" y="-13"/>
      <point x="416" y="-21" type="curve" smooth="yes"/>
      <point x="705" y="-29"/>
      <point x="871" y="236"/>
      <point x="914" y="495" type="curve"/>
      <point x="928" y="590" type="line"/>
      <point x="942" y="831"/>
      <point x="855" y="1096"/>
      <point x="578" y="1103" type="curve" smooth="yes"/>
      <point x="270" y="1110"/>
      <point x="119" y="810"/>
      <point x="85" y="543" type="curve" smooth="yes"/>
    </contour>
    <contour>
      <point x="267" y="544" type="line" smooth="yes"/>
      <point x="293" y="731"/>
      <point x="393" y="953"/>
      <point x="615" y="946" type="curve" smooth="yes"/>
      <point x="767" y="942"/>
      <point x="860" y="806"/>
      <point x="853" y="660" type="curve"/>
      <point x="813" y="418" type="line"/>
      <point x="768" y="267"/>
      <point x="632" y="131"/>
      <point x="468" y="136" type="curve" smooth="yes"/>
      <point x="262" y="142"/>
      <point x="245" y="364"/>
      <point x="264" y="523" type="curve" smooth="yes"/>
    </contour>
  </outline>
</glyph>
<glyph name="l" format="2">
  <advance width="483"/>
  <unicode hex="006C"/>
  <anchor x="140" y="10" name="bottom"/>
  <anchor x="431" y="1697" name="top"/>
  <anchor x="708" y="1540" name="marktop"/>
  <anchor x="309" y="-407" name="bottom_dd"/>
  <anchor x="624" y="1536" name="caron"/>
  <anchor x="655" y="1600" name="top_dd"/>
  <anchor x="672" y="1697" name="top0315"/>
  <anchor x="485" y="776" name="dot"/>
  <outline>
    <contour>
      <point x="495" y="1536" type="line"/>
      <point x="313" y="1536" type="line"/>
      <point x="47" y="0" type="line"/>
      <point x="228" y="0" type="line"/>
    </contour>
  </outline>
</glyph>
<glyph name="q" format="2">
  <advance width="1129"/>
  <unicode hex="0071"/>
  <anchor x="640" y="1290" name="marktop"/>
  <anchor x="1248" y="1290" name="top0315"/>
  <anchor x="640" y="1290" name="top"/>
  <anchor x="715" y="-407" name="bottom"/>
  <anchor x="1302" y="1600" name="top_dd"/>
  <anchor x="955" y="-407" name="bottom_dd"/>
  <outline>
    <contour>
      <point x="621" y="-416" type="line"/>
      <point x="802" y="-416" type="line"/>
      <point x="1062" y="1082" type="line"/>
      <point x="895" y="1082" type="line"/>
      <point x="846" y="885" type="line"/>
    </contour>
    <contour>
      <point x="80" y="522" type="line" smooth="yes"/>
      <point x="53" y="282"/>
      <point x="129" y="-13"/>
      <point x="419" y="-21" type="curve" smooth="yes"/>
      <point x="708" y="-29"/>
      <point x="879" y="234"/>
      <point x="922" y="495" type="curve"/>
      <point x="936" y="590" type="line"/>
      <point x="950" y="833"/>
      <point x="858" y="1096"/>
      <point x="581" y="1102" type="curve" smooth="yes"/>
      <point x="270" y="1110"/>
      <point x="118" y="814"/>
      <point x="83" y="544" type="curve" smooth="yes"/>
    </contour>
    <contour>
      <point x="265" y="544" type="line" smooth="yes"/>
      <point x="292" y="732"/>
      <point x="395" y="958"/>
      <point x="618" y="951" type="curve" smooth="yes"/>
      <point x="770" y="946"/>
      <point x="868" y="806"/>
      <point x="862" y="660" type="curve"/>
      <point x="821" y="418" type="line"/>
      <point x="776" y="266"/>
      <point x="635" y="125"/>
      <point x="470" y="130" type="curve" smooth="yes"/>
      <point x="262" y="136"/>
      <point x="243" y="364"/>
      <point x="263" y="523" type="curve" smooth="yes"/>
    </contour>
  </outline>
</glyph>
<glyph name="r" format="2">
  <advance width="673"/>
  <unicode hex="0072"/>
  <anchor x="515" y="1290" name="top"/>
  <anchor x="137" y="11" name="bottom"/>
  <anchor x="846" y="1600" name="top_dd"/>
  <anchor x="499" y="-407" name="bottom_dd"/>
  <anchor x="792" y="1290" name="top0315"/>
  <outline>
    <contour>
      <point x="369" y="902" type="line"/>
      <point x="395" y="1082" type="line"/>
      <point x="220" y="1082" type="line"/>
      <point x="32" y="0" type="line"/>
      <point x="213" y="0" type="line"/>
    </contour>
    <contour>
      <point x="725" y="1089" type="line"/>
      <point x="696" y="1097"/>
      <point x="668" y="1104"/>
      <point x="638" y="1104" type="curve" smooth="yes"/>
      <point x="376" y="1111"/>
      <point x="273" y="841"/>
      <point x="244" y="625" type="curve"/>
      <point x="299" y="654" type="line"/>
      <point x="346" y="807"/>
      <point x="445" y="928"/>
      <point x="619" y="926" type="curve" smooth="yes"/>
      <point x="648" y="926"/>
      <point x="677" y="922"/>
      <point x="705" y="917" type="curve"/>
    </contour>
  </outline>
</glyph>
<glyph name="s" format="2">
  <advance width="1025"/>
  <unicode hex="0073"/>
  <anchor x="653" y="1290" name="top"/>
  <anchor x="451" y="-10" name="bottom"/>
  <anchor x="1181" y="1600" name="top_dd"/>
  <anchor x="868" y="-407" name="bottom_dd"/>
  <anchor x="1133" y="1290" name="top0315"/>
  <outline>
    <contour>
      <point x="699" y="293" type="curve" smooth="yes"/>
      <point x="681" y="174"/>
      <point x="553" y="131"/>
      <point x="446" y="132" type="curve" smooth="yes"/>
      <point x="317" y="134"/>
      <point x="229" y="204"/>
      <point x="229" y="334" type="curve"/>
      <point x="48" y="335" type="line"/>
      <point x="42" y="108"/>
      <point x="230" y="-16"/>
      <point x="440" y="-20" type="curve" smooth="yes"/>
      <point x="642" y="-23"/>
      <point x="867" y="81"/>
      <point x="880" y="307" type="curve" smooth="yes"/>
      <point x="892" y="508"/>
      <point x="708" y="579"/>
      <point x="543" y="624" type="curve" smooth="yes"/>
      <point x="457" y="646"/>
      <point x="321" y="671"/>
      <point x="338" y="786" type="curve" smooth="yes"/>
      <point x="355" y="899"/>
      <point x="469" y="951"/>
      <point x="574" y="949" type="curve" smooth="yes"/>
      <point x="686" y="948"/>
      <point x="769" y="877"/>
      <point x="765" y="764" type="curve"/>
      <point x="945" y="764" type="line"/>
      <point x="951" y="978"/>
      <point x="783" y="1099"/>
      <point x="580" y="1102" type="curve" smooth="yes"/>
      <point x="388" y="1105"/>
      <point x="170" y="993"/>
      <point x="158" y="779" type="curve" smooth="yes"/>
      <point x="147" y="583"/>
      <point x="338" y="514"/>
      <point x="497" y="474" type="curve" smooth="yes"/>
      <point x="594" y="450"/>
      <point x="718" y="416"/>
    </contour>
  </outline>
</glyph>
<glyph name="u" format="2">
  <advance width="1095"/>
  <unicode hex="0075"/>
  <anchor x="442" y="0" name="bottom"/>
  <anchor x="902" y="654" name="rhotichook"/>
  <anchor x="670" y="1290" name="top"/>
  <anchor x="1214" y="1290" name="top0315"/>
  <anchor x="390" y="0" name="bottomu"/>
  <anchor x="1268" y="1600" name="top_dd"/>
  <anchor x="846" y="0" name="ogonek"/>
  <anchor x="921" y="-407" name="bottom_dd"/>
  <outline>
    <contour>
      <point x="720" y="261" type="line"/>
      <point x="684" y="0" type="line"/>
      <point x="856" y="0" type="line"/>
      <point x="1044" y="1082" type="line"/>
      <point x="863" y="1082" type="line"/>
    </contour>
    <contour>
      <point x="785" y="482" type="line"/>
      <point x="757" y="283"/>
      <point x="642" y="130"/>
      <point x="425" y="137" type="curve" smooth="yes"/>
      <point x="285" y="141"/>
      <point x="266" y="266"/>
      <point x="279" y="381" type="curve" smooth="yes"/>
      <point x="397" y="1082" type="line"/>
      <point x="216" y="1082" type="line"/>
      <point x="99" y="384" type="line" smooth="yes"/>
      <point x="75" y="170"/>
      <point x="151" y="-16"/>
      <point x="388" y="-21" type="curve" smooth="yes"/>
      <point x="696" y="-27"/>
      <point x="821" y="211"/>
      <point x="852" y="484" type="curve"/>
    </contour>
  </outline>
</glyph>
<glyph name="z" format="2">
  <advance width="985"/>
  <unicode hex="007A"/>
  <anchor x="618" y="1290" name="top"/>
  <anchor x="408" y="10" name="bottom"/>
  <anchor x="1158" y="1600" name="top_dd"/>
  <anchor x="811" y="-407" name="bottom_dd"/>
  <anchor x="1105" y="1290" name="top0315"/>
  <outline>
    <contour>
      <point x="842" y="151" type="line"/>
      <point x="77" y="151" type="line"/>
      <point x="50" y="0" type="line"/>
      <point x="816" y="0" type="line"/>
    </contour>
    <contour>
      <point x="951" y="942" type="line"/>
      <point x="975" y="1082" type="line"/>
      <point x="853" y="1082" type="line"/>
      <point x="6" y="145" type="line"/>
      <point x="-19" y="0" type="line"/>
      <point x="99" y="0" type="line"/>
    </contour>
    <contour>
      <point x="896" y="1082" type="line"/>
      <point x="178" y="1082" type="line"/>
      <point x="151" y="930" type="line"/>
      <point x="869" y="930" type="line"/>
    </contour>
  </outline>
</glyph>
<glyph name="braceright" format="2">
  <advance width="673"/>
  <unicode hex="007D"/>
  <outline>
    <contour>
      <point x="157" y="1483" type="line"/>
      <point x="307" y="1423"/>
      <point x="322" y="1277"/>
      <point x="303" y="1133" type="curve" smooth="yes"/>
      <point x="275" y="925" type="line" smooth="yes"/>
      <point x="254" y="702"/>
      <point x="399" y="584"/>
      <point x="611" y="576" type="curve"/>
      <point x="620" y="690" type="line"/>
      <point x="477" y="699"/>
      <point x="440" y="792"/>
      <point x="456" y="924" type="curve" smooth="yes"/>
      <point x="484" y="1132" type="line" smooth="yes"/>
      <point x="509" y="1355"/>
      <point x="414" y="1524"/>
      <point x="199" y="1596" type="curve"/>
    </contour>
    <contour>
      <point x="-81" y="-370" type="line"/>
      <point x="155" y="-298"/>
      <point x="293" y="-147"/>
      <point x="326" y="99" type="curve" smooth="yes"/>
      <point x="355" y="306" type="line" smooth="yes"/>
      <point x="376" y="447"/>
      <point x="455" y="539"/>
      <point x="603" y="545" type="curve"/>
      <point x="613" y="657" type="line"/>
      <point x="380" y="651"/>
      <point x="203" y="551"/>
      <point x="173" y="306" type="curve" smooth="yes"/>
      <point x="144" y="99" type="line" smooth="yes"/>
      <point x="120" y="-61"/>
      <point x="47" y="-197"/>
      <point x="-115" y="-251" type="curve"/>
    </contour>
  </outline>
</glyph>
<glyph name="asciitilde" format="2">
  <advance width="1351"/>
  <unicode hex="007E"/>
  <outline>
    <contour>
      <point x="1102" y="776" type="line"/>
      <point x="1084" y="672"/>
      <point x="1024" y="562"/>
      <point x="902" y="564" type="curve" smooth="yes"/>
      <point x="830" y="564"/>
      <point x="780" y="616"/>
      <point x="732" y="663" type="curve" smooth="yes"/>
      <point x="656" y="740"/>
      <point x="569" y="802"/>
      <point x="457" y="804" type="curve" smooth="yes"/>
      <point x="249" y="808"/>
      <point x="124" y="627"/>
      <point x="105" y="436" type="curve"/>
      <point x="261" y="439" type="line"/>
      <point x="279" y="540"/>
      <point x="331" y="643"/>
      <point x="450" y="641" type="curve" smooth="yes"/>
      <point x="522" y="640"/>
      <point x="573" y="589"/>
      <point x="621" y="542" type="curve" smooth="yes"/>
      <point x="697" y="465"/>
      <point x="783" y="403"/>
      <point x="895" y="401" type="curve" smooth="yes"/>
      <point x="1104" y="398"/>
      <point x="1229" y="590"/>
      <point x="1246" y="779" type="curve"/>
    </contour>
  </outline>
</glyph>
<glyph name="sterling" format="2">
  <advance width="1155"/>
  <unicode hex="00A3"/>
  <outline>
    <contour>
      <point x="991" y="0" type="line"/>
      <point x="1019" y="157" type="line"/>
      <point x="15" y="157" type="line"/>
      <point x="-12" y="0" type="line"/>
    </contour>
    <contour>
      <point x="745" y="623" type="line"/>
      <point x="772" y="780" type="line"/>
      <point x="119" y="780" type="line"/>
      <point x="92" y="623" type="line"/>
    </contour>
    <contour>
      <point x="496" y="1040" type="line" smooth="yes"/>
      <point x="518" y="1183"/>
      <point x="616" y="1325"/>
      <point x="777" y="1320" type="curve" smooth="yes"/>
      <point x="919" y="1316"/>
      <point x="976" y="1218"/>
      <point x="967" y="1087" type="curve"/>
      <point x="1154" y="1087" type="line"/>
      <point x="1167" y="1315"/>
      <point x="1035" y="1471"/>
      <point x="802" y="1476" type="curve" smooth="yes"/>
      <point x="539" y="1482"/>
      <point x="340" y="1297"/>
      <point x="308" y="1039" type="curve" smooth="yes"/>
      <point x="223" y="401" type="line" smooth="yes"/>
      <point x="209" y="319"/>
      <point x="178" y="192"/>
      <point x="91" y="158" type="curve"/>
      <point x="261" y="103" type="line"/>
      <point x="356" y="175"/>
      <point x="397" y="290"/>
      <point x="412" y="404" type="curve" smooth="yes"/>
    </contour>
  </outline>
</glyph>
<glyph name="section" format="2">
  <advance width="1219"/>
  <unicode hex="00A7"/>
  <outline>
    <contour>
      <point x="597" y="107" type="line"/>
      <point x="812" y="111"/>
      <point x="1064" y="185"/>
      <point x="1084" y="438" type="curve" smooth="yes"/>
      <point x="1104" y="692"/>
      <point x="899" y="787"/>
      <point x="689" y="854" type="curve" smooth="yes"/>
      <point x="557" y="896"/>
      <point x="381" y="936"/>
      <point x="407" y="1106" type="curve" smooth="yes"/>
      <point x="432" y="1266"/>
      <point x="597" y="1328"/>
      <point x="742" y="1325" type="curve" smooth="yes"/>
      <point x="911" y="1321"/>
      <point x="1002" y="1208"/>
      <point x="989" y="1046" type="curve"/>
      <point x="1169" y="1045" type="line"/>
      <point x="1186" y="1319"/>
      <point x="1017" y="1473"/>
      <point x="748" y="1477" type="curve" smooth="yes"/>
      <point x="512" y="1481"/>
      <point x="247" y="1369"/>
      <point x="226" y="1104" type="curve" smooth="yes"/>
      <point x="205" y="849"/>
      <point x="404" y="761"/>
      <point x="612" y="692" type="curve" smooth="yes"/>
      <point x="735" y="652"/>
      <point x="925" y="598"/>
      <point x="899" y="435" type="curve" smooth="yes"/>
      <point x="876" y="291"/>
      <point x="741" y="230"/>
      <point x="608" y="225" type="curve"/>
    </contour>
    <contour>
      <point x="552" y="876" type="line"/>
      <point x="340" y="872"/>
      <point x="103" y="789"/>
      <point x="84" y="544" type="curve" smooth="yes"/>
      <point x="64" y="289"/>
      <point x="267" y="196"/>
      <point x="476" y="127" type="curve" smooth="yes"/>
      <point x="598" y="87"/>
      <point x="785" y="37"/>
      <point x="760" y="-124" type="curve" smooth="yes"/>
      <point x="735" y="-282"/>
      <point x="569" y="-346"/>
      <point x="425" y="-344" type="curve" smooth="yes"/>
      <point x="250" y="-341"/>
      <point x="138" y="-240"/>
      <point x="152" y="-62" type="curve"/>
      <point x="-29" y="-63" type="line"/>
      <point x="-46" y="-347"/>
      <point x="151" y="-492"/>
      <point x="420" y="-495" type="curve" smooth="yes"/>
      <point x="659" y="-499"/>
      <point x="920" y="-391"/>
      <point x="942" y="-122" type="curve" smooth="yes"/>
      <point x="962" y="131"/>
      <point x="761" y="222"/>
      <point x="553" y="289" type="curve" smooth="yes"/>
      <point x="419" y="332"/>
      <point x="241" y="373"/>
      <point x="268" y="546" type="curve" smooth="yes"/>
      <point x="289" y="687"/>
      <point x="407" y="749"/>
      <point x="541" y="754" type="curve"/>
    </contour>
  </outline>
</glyph>
<glyph name="copyright" format="2">
  <advance width="1561"/>
  <unicode hex="00A9"/>
  <outline>
    <contour>
      <point x="942" y="597" type="line"/>
      <point x="922" y="482"/>
      <point x="861" y="407"/>
      <point x="736" y="412" type="curve" smooth="yes"/>
      <point x="596" y="417"/>
      <point x="572" y="556"/>
      <point x="583" y="670" type="curve" smooth="yes"/>
      <point x="597" y="788" type="line" smooth="yes"/>
      <point x="614" y="916"/>
      <point x="686" y="1048"/>
      <point x="833" y="1047" type="curve" smooth="yes"/>
      <point x="954" y="1045"/>
      <point x="994" y="972"/>
      <point x="986" y="860" type="curve"/>
      <point x="1129" y="860" type="line"/>
      <point x="1137" y="1051"/>
      <point x="1031" y="1171"/>
      <point x="837" y="1174" type="curve" smooth="yes"/>
      <point x="612" y="1178"/>
      <point x="478" y="994"/>
      <point x="454" y="786" type="curve" smooth="yes"/>
      <point x="442" y="670" type="line" smooth="yes"/>
      <point x="425" y="474"/>
      <point x="517" y="289"/>
      <point x="732" y="283" type="curve" smooth="yes"/>
      <point x="935" y="278"/>
      <point x="1064" y="399"/>
      <point x="1082" y="598" type="curve"/>
    </contour>
    <contour>
      <point x="222" y="722" type="curve" smooth="yes"/>
      <point x="267" y="1056"/>
      <point x="553" y="1363"/>
      <point x="904" y="1357" type="curve" smooth="yes"/>
      <point x="1238" y="1351"/>
      <point x="1414" y="1042"/>
      <point x="1372" y="735" type="curve" smooth="yes"/>
      <point x="1327" y="403"/>
      <point x="1043" y="91"/>
      <point x="691" y="98" type="curve" smooth="yes"/>
      <point x="356" y="104"/>
      <point x="181" y="416"/>
    </contour>
    <contour>
      <point x="109" y="723" type="curve" smooth="yes"/>
      <point x="66" y="351"/>
      <point x="294" y="-15"/>
      <point x="693" y="-21" type="curve" smooth="yes"/>
      <point x="1108" y="-28"/>
      <point x="1440" y="340"/>
      <point x="1486" y="735" type="curve" smooth="yes"/>
      <point x="1528" y="1107"/>
      <point x="1300" y="1470"/>
      <point x="902" y="1476" type="curve" smooth="yes"/>
      <point x="488" y="1482"/>
      <point x="154" y="1119"/>
    </contour>
  </outline>
</glyph>
<glyph name="registered" format="2">
  <advance width="1562"/>
  <unicode hex="00AE"/>
  <outline>
    <contour>
      <point x="821" y="655" type="line" smooth="yes"/>
      <point x="844" y="656"/>
      <point x="858" y="661"/>
      <point x="877" y="675" type="curve" smooth="yes"/>
      <point x="882" y="679"/>
      <point x="886" y="685"/>
      <point x="892" y="688" type="curve" smooth="yes"/>
      <point x="998" y="746"/>
      <point x="1118" y="768"/>
      <point x="1126" y="916" type="curve" smooth="yes"/>
      <point x="1135" y="1090"/>
      <point x="997" y="1160"/>
      <point x="842" y="1164" type="curve" smooth="yes"/>
      <point x="584" y="1165" type="line"/>
      <point x="452" y="317" type="line"/>
      <point x="590" y="317" type="line"/>
      <point x="704" y="1039" type="line"/>
      <point x="844" y="1038" type="line" smooth="yes"/>
      <point x="934" y="1036"/>
      <point x="1006" y="1013"/>
      <point x="988" y="910" type="curve" smooth="yes"/>
      <point x="972" y="823"/>
      <point x="885" y="785"/>
      <point x="805" y="782" type="curve" smooth="yes"/>
      <point x="617" y="783" type="line"/>
      <point x="599" y="655" type="line"/>
    </contour>
    <contour>
      <point x="797" y="655" type="line"/>
      <point x="892" y="646"/>
      <point x="929" y="613"/>
      <point x="920" y="515" type="curve" smooth="yes"/>
      <point x="914" y="461" type="line" smooth="yes"/>
      <point x="908" y="413"/>
      <point x="903" y="365"/>
      <point x="910" y="316" type="curve"/>
      <point x="1049" y="316" type="line"/>
      <point x="1051" y="333" type="line"/>
      <point x="1048" y="377"/>
      <point x="1045" y="415"/>
      <point x="1050" y="459" type="curve" smooth="yes"/>
      <point x="1055" y="514" type="line" smooth="yes"/>
      <point x="1068" y="672"/>
      <point x="967" y="742"/>
      <point x="819" y="745" type="curve"/>
    </contour>
    <contour>
      <point x="221" y="722" type="curve" smooth="yes"/>
      <point x="266" y="1056"/>
      <point x="552" y="1363"/>
      <point x="903" y="1357" type="curve" smooth="yes"/>
      <point x="1237" y="1351"/>
      <point x="1413" y="1042"/>
      <point x="1372" y="735" type="curve" smooth="yes"/>
      <point x="1327" y="403"/>
      <point x="1042" y="91"/>
      <point x="690" y="98" type="curve" smooth="yes"/>
      <point x="355" y="104"/>
      <point x="179" y="415"/>
    </contour>
    <contour>
      <point x="108" y="723" type="curve" smooth="yes"/>
      <point x="65" y="351"/>
      <point x="293" y="-16"/>
      <point x="692" y="-22" type="curve" smooth="yes"/>
      <point x="1107" y="-28"/>
      <point x="1440" y="339"/>
      <point x="1485" y="735" type="curve" smooth="yes"/>
      <point x="1528" y="1107"/>
      <point x="1300" y="1470"/>
      <point x="901" y="1476" type="curve" smooth="yes"/>
      <point x="487" y="1482"/>
      <point x="153" y="1119"/>
    </contour>
  </outline>
</glyph>
<glyph name="plusminus" format="2">
  <advance width="1062"/>
  <unicode hex="00B1"/>
  <outline>
    <contour>
      <point x="1024" y="855" type="line"/>
      <point x="134" y="855" type="line"/>
      <point x="110" y="703" type="line"/>
      <point x="1000" y="703" type="line"/>
    </contour>
    <contour>
      <point x="736" y="1267" type="line"/>
      <point x="572" y="1267" type="line"/>
      <point x="419" y="289" type="line"/>
      <point x="583" y="289" type="line"/>
    </contour>
    <component base="minus" xOffset="-134" yOffset="-650"/>
  </outline>
</glyph>
<glyph name="paragraph" format="2">
  <advance width="972"/>
  <unicode hex="00B6"/>
  <outline>
    <contour>
      <point x="705" y="0" type="line"/>
      <point x="958" y="1456" type="line"/>
      <point x="679" y="1457" type="line" smooth="yes"/>
      <point x="391" y="1457"/>
      <point x="164" y="1274"/>
      <point x="133" y="981" type="curve" smooth="yes"/>
      <point x="105" y="710"/>
      <point x="270" y="527"/>
      <point x="541" y="521" type="curve" smooth="yes"/>
      <point x="613" y="520" type="line"/>
      <point x="523" y="0" type="line"/>
    </contour>
  </outline>
</glyph>
<glyph name="periodcentered" format="2">
  <advance width="519"/>
  <unicode hex="00B7"/>
  <outline>
    <contour>
      <point x="165" y="726" type="curve" smooth="yes"/>
      <point x="164" y="661"/>
      <point x="212" y="617"/>
      <point x="276" y="619" type="curve" smooth="yes"/>
      <point x="340" y="620"/>
      <point x="388" y="666"/>
      <point x="389" y="731" type="curve" smooth="yes"/>
      <point x="390" y="798"/>
      <point x="343" y="844"/>
      <point x="278" y="842" type="curve" smooth="yes"/>
      <point x="213" y="841"/>
      <point x="166" y="792"/>
    </contour>
  </outline>
</glyph>
<glyph name="multiply" format="2">
  <advance width="1060"/>
  <unicode hex="00D7"/>
  <outline>
    <contour>
      <point x="141" y="206" type="line"/>
      <point x="1026" y="991" type="line"/>
      <point x="924" y="1124" type="line"/>
      <point x="39" y="338" type="line"/>
    </contour>
    <contour>
      <point x="784" y="206" type="line"/>
      <point x="912" y="321" type="line"/>
      <point x="286" y="1124" type="line"/>
      <point x="158" y="1009" type="line"/>
    </contour>
  </outline>
</glyph>
<glyph name="germandbls" format="2">
  <advance width="1182"/>
  <unicode hex="00DF"/>
  <outline>
    <contour>
      <point x="401" y="1112" type="line" smooth="yes"/>
      <point x="423" y="1257"/>
      <point x="493" y="1411"/>
      <point x="664" y="1406" type="curve" smooth="yes"/>
      <point x="776" y="1402"/>
      <point x="824" y="1315"/>
      <point x="810" y="1210" type="curve" smooth="yes"/>
      <point x="789" y="1057"/>
      <point x="632" y="969"/>
      <point x="618" y="812" type="curve" smooth="yes"/>
      <point x="599" y="594"/>
      <point x="896" y="511"/>
      <point x="868" y="316" type="curve" smooth="yes"/>
      <point x="849" y="190"/>
      <point x="737" y="130"/>
      <point x="617" y="130" type="curve" smooth="yes"/>
      <point x="539" y="131"/>
      <point x="460" y="163"/>
      <point x="398" y="208" type="curve"/>
      <point x="343" y="52" type="line"/>
      <point x="426" y="1"/>
      <point x="535" y="-20"/>
      <point x="632" y="-22" type="curve" smooth="yes"/>
      <point x="848" y="-25"/>
      <point x="1033" y="97"/>
      <point x="1047" y="326" type="curve" smooth="yes"/>
      <point x="1060" y="534"/>
      <point x="767" y="624"/>
      <point x="800" y="811" type="curve" smooth="yes"/>
      <point x="826" y="966"/>
      <point x="970" y="1058"/>
      <point x="985" y="1225" type="curve" smooth="yes"/>
      <point x="1003" y="1434"/>
      <point x="863" y="1551"/>
      <point x="664" y="1555" type="curve" smooth="yes"/>
      <point x="399" y="1561"/>
      <point x="255" y="1356"/>
      <point x="221" y="1112" type="curve" smooth="yes"/>
      <point x="31" y="0" type="line"/>
      <point x="211" y="0" type="line"/>
    </contour>
  </outline>
</glyph>
<glyph name="thorn" format="2">
  <advance width="1145"/>
  <unicode hex="00FE"/>
  <outline>
    <contour>
      <point x="488" y="1536" type="line"/>
      <point x="307" y="1536" type="line"/>
      <point x="-32" y="-416" type="line"/>
      <point x="149" y="-416" type="line"/>
    </contour>
    <contour>
      <point x="1023" y="556" type="line" smooth="yes"/>
      <point x="1051" y="800"/>
      <point x="989" y="1095"/>
      <point x="692" y="1103" type="curve" smooth="yes"/>
      <point x="402" y="1110"/>
      <point x="232" y="846"/>
      <point x="186" y="585" type="curve"/>
      <point x="170" y="474" type="line"/>
      <point x="154" y="228"/>
      <point x="264" y="-15"/>
      <point x="535" y="-21" type="curve" smooth="yes"/>
      <point x="839" y="-27"/>
      <point x="987" y="272"/>
      <point x="1021" y="535" type="curve" smooth="yes"/>
    </contour>
    <contour>
      <point x="839" y="536" type="line" smooth="yes"/>
      <point x="813" y="349"/>
      <point x="710" y="124"/>
      <point x="488" y="131" type="curve" smooth="yes"/>
      <point x="346" y="135"/>
      <point x="242" y="257"/>
      <point x="244" y="399" type="curve"/>
      <point x="288" y="660" type="line"/>
      <point x="329" y="814"/>
      <point x="465" y="952"/>
      <point x="632" y="947" type="curve" smooth="yes"/>
      <point x="840" y="941"/>
      <point x="862" y="719"/>
      <point x="842" y="558" type="curve" smooth="yes"/>
    </contour>
  </outline>
</glyph>
<glyph name="Hbar" format="2">
  <advance width="1392"/>
  <unicode hex="0126"/>
  <anchor x="877" y="1612" name="top"/>
  <anchor x="600" y="10" name="bottom"/>
  <anchor x="1567" y="1612" name="top0315"/>
  <outline>
    <contour>
      <point x="1473" y="1166" type="line"/>
      <point x="127" y="1166" type="line"/>
      <point x="102" y="1024" type="line"/>
      <point x="1449" y="1024" type="line"/>
    </contour>
    <component base="H" xOffset="-4"/>
  </outline>
</glyph>
<glyph name="eng" format="2">
  <advance width="1126"/>
  <unicode hex="014B"/>
  <anchor x="617" y="-304" name="parenthesses.w1"/>
  <anchor x="444" y="10" name="markbottom"/>
  <anchor x="675" y="1290" name="top"/>
  <anchor x="444" y="10" name="bottom"/>
  <anchor x="1245" y="1290" name="top0315"/>
  <outline>
    <contour>
      <point x="364" y="840" type="line"/>
      <point x="386" y="1082" type="line"/>
      <point x="225" y="1082" type="line"/>
      <point x="37" y="0" type="line"/>
      <point x="218" y="0" type="line"/>
    </contour>
    <contour>
      <point x="261" y="576" type="line"/>
      <point x="300" y="770"/>
      <point x="409" y="953"/>
      <point x="632" y="947" type="curve" smooth="yes"/>
      <point x="797" y="943"/>
      <point x="826" y="823"/>
      <point x="808" y="680" type="curve" smooth="yes"/>
      <point x="682" y="-89" type="line" smooth="yes"/>
      <point x="666" y="-183"/>
      <point x="619" y="-279"/>
      <point x="510" y="-279" type="curve" smooth="yes"/>
      <point x="477" y="-279"/>
      <point x="444" y="-272"/>
      <point x="412" y="-264" type="curve"/>
      <point x="382" y="-420" type="line"/>
      <point x="421" y="-431"/>
      <point x="459" y="-439"/>
      <point x="500" y="-439" type="curve" smooth="yes"/>
      <point x="715" y="-441"/>
      <point x="837" y="-292"/>
      <point x="864" y="-89" type="curve" smooth="yes"/>
      <point x="990" y="682" type="line" smooth="yes"/>
      <point x="1015" y="903"/>
      <point x="940" y="1098"/>
      <point x="693" y="1103" type="curve" smooth="yes"/>
      <point x="398" y="1109"/>
      <point x="261" y="826"/>
      <point x="224" y="574" type="curve"/>
    </contour>
  </outline>
</glyph>
<glyph name="Dtopbar" format="2">
  <advance width="1244"/>
  <unicode hex="018B"/>
  <outline>
    <contour>
      <point x="983" y="0" type="line"/>
      <point x="1236" y="1456" type="line"/>
      <point x="367" y="1456" type="line"/>
      <point x="339" y="1298" type="line"/>
      <point x="1020" y="1298" type="line"/>
      <point x="944" y="863" type="line"/>
      <point x="592" y="863" type="line" smooth="yes"/>
      <point x="319" y="863"/>
      <point x="77" y="720"/>
      <point x="51" y="429" type="curve" smooth="yes"/>
      <point x="26" y="157"/>
      <point x="211" y="10"/>
      <point x="468" y="1" type="curve" smooth="yes"/>
    </contour>
    <contour>
      <point x="821" y="157" type="line"/>
      <point x="471" y="158" type="line" smooth="yes"/>
      <point x="308" y="164"/>
      <point x="217" y="270"/>
      <point x="240" y="431" type="curve" smooth="yes"/>
      <point x="264" y="612"/>
      <point x="412" y="705"/>
      <point x="587" y="706" type="curve" smooth="yes"/>
      <point x="917" y="704" type="line"/>
    </contour>
  </outline>
</glyph>
<glyph name="Eturn" format="2">
  <advance width="1129"/>
  <unicode hex="018E"/>
  <outline>
    <contour>
      <point x="189" y="1299" type="line"/>
      <point x="938" y="1299" type="line"/>
      <point x="965" y="1456" type="line"/>
      <point x="216" y="1456" type="line"/>
    </contour>
    <contour>
      <point x="674" y="0" type="line"/>
      <point x="862" y="0" type="line"/>
      <point x="1114" y="1456" type="line"/>
      <point x="926" y="1456" type="line"/>
    </contour>
    <contour>
      <point x="172" y="630" type="line"/>
      <point x="822" y="630" type="line"/>
      <point x="849" y="787" type="line"/>
      <point x="199" y="787" type="line"/>
    </contour>
    <contour>
      <point x="-27" y="0" type="line"/>
      <point x="712" y="0" type="line"/>
      <point x="740" y="158" type="line"/>
      <point x="0" y="158" type="line"/>
    </contour>
  </outline>
</glyph>
<glyph name="Epsilon1" format="2">
  <advance width="1190"/>
  <unicode hex="0190"/>
  <anchor x="766" y="1603" name="top"/>
  <anchor x="489" y="0" name="bottom"/>
  <anchor x="1363" y="1603" name="top0315"/>
  <outline>
    <contour>
      <point x="770" y="699" type="line"/>
      <point x="792" y="821" type="line"/>
      <point x="619" y="822" type="line" smooth="yes"/>
      <point x="466" y="827"/>
      <point x="351" y="894"/>
      <point x="374" y="1060" type="curve" smooth="yes"/>
      <point x="398" y="1241"/>
      <point x="564" y="1323"/>
      <point x="735" y="1319" type="curve" smooth="yes"/>
      <point x="883" y="1315"/>
      <point x="990" y="1226"/>
      <point x="980" y="1075" type="curve"/>
      <point x="1167" y="1074" type="line"/>
      <point x="1179" y="1326"/>
      <point x="981" y="1472"/>
      <point x="743" y="1477" type="curve" smooth="yes"/>
      <point x="474" y="1482"/>
      <point x="208" y="1349"/>
      <point x="187" y="1055" type="curve" smooth="yes"/>
      <point x="168" y="803"/>
      <point x="402" y="704"/>
      <point x="618" y="700" type="curve" smooth="yes"/>
    </contour>
    <contour>
      <point x="608" y="785" type="line" smooth="yes"/>
      <point x="354" y="785"/>
      <point x="72" y="691"/>
      <point x="48" y="399" type="curve" smooth="yes"/>
      <point x="24" y="107"/>
      <point x="250" y="-18"/>
      <point x="513" y="-22" type="curve" smooth="yes"/>
      <point x="782" y="-26"/>
      <point x="1033" y="121"/>
      <point x="1064" y="404" type="curve"/>
      <point x="877" y="403" type="line"/>
      <point x="847" y="231"/>
      <point x="691" y="132"/>
      <point x="521" y="134" type="curve" smooth="yes"/>
      <point x="355" y="137"/>
      <point x="215" y="213"/>
      <point x="238" y="395" type="curve" smooth="yes"/>
      <point x="263" y="595"/>
      <point x="430" y="664"/>
      <point x="614" y="665" type="curve" smooth="yes"/>
      <point x="764" y="664" type="line"/>
      <point x="785" y="784" type="line"/>
    </contour>
  </outline>
</glyph>
<glyph name="Fhook" format="2">
  <advance width="1158"/>
  <unicode hex="0191"/>
  <outline>
    <contour>
      <point x="283" y="940" type="line"/>
      <point x="106" y="-89" type="line" smooth="yes"/>
      <point x="91" y="-181"/>
      <point x="47" y="-276"/>
      <point x="-61" y="-276" type="curve" smooth="yes"/>
      <point x="-93" y="-276"/>
      <point x="-125" y="-269"/>
      <point x="-156" y="-261" type="curve"/>
      <point x="-187" y="-420" type="line"/>
      <point x="-148" y="-432"/>
      <point x="-111" y="-439"/>
      <point x="-70" y="-440" type="curve" smooth="yes"/>
      <point x="145" y="-443"/>
      <point x="269" y="-291"/>
      <point x="297" y="-88" type="curve" smooth="yes"/>
      <point x="471" y="940" type="line"/>
    </contour>
    <component base="F" xOffset="60"/>
  </outline>
</glyph>
<glyph name="florin" format="2">
  <advance width="677"/>
  <unicode hex="0192"/>
  <outline>
    <contour>
      <point x="666" y="1082" type="line"/>
      <point x="469" y="1082" type="line"/>
      <point x="485" y="1197" type="line" smooth="yes"/>
      <point x="503" y="1313"/>
      <point x="566" y="1403"/>
      <point x="693" y="1403" type="curve" smooth="yes"/>
      <point x="725" y="1403"/>
      <point x="757" y="1398"/>
      <point x="788" y="1391" type="curve"/>
      <point x="824" y="1536" type="line"/>
      <point x="776" y="1548"/>
      <point x="727" y="1558"/>
      <point x="677" y="1559" type="curve" smooth="yes"/>
      <point x="455" y="1562"/>
      <point x="329" y="1406"/>
      <point x="303" y="1197" type="curve" smooth="yes"/>
      <point x="288" y="1082" type="line"/>
      <point x="122" y="1082" type="line"/>
      <point x="100" y="940" type="line"/>
      <point x="266" y="940" type="line"/>
      <point x="107" y="-89" type="line" smooth="yes"/>
      <point x="93" y="-181"/>
      <point x="48" y="-289"/>
      <point x="-62" y="-289" type="curve" smooth="yes"/>
      <point x="-94" y="-289"/>
      <point x="-126" y="-282"/>
      <point x="-157" y="-273" type="curve"/>
      <point x="-184" y="-420" type="line"/>
      <point x="-146" y="-431"/>
      <point x="-108" y="-439"/>
      <point x="-68" y="-439" type="curve" smooth="yes"/>
      <point x="148" y="-442"/>
      <point x="265" y="-292"/>
      <point x="290" y="-89" type="curve" smooth="yes"/>
      <point x="447" y="940" type="line"/>
      <point x="644" y="940" type="line"/>
    </contour>
  </outline>
</glyph>
<glyph name="hv" format="2">
  <advance width="1663"/>
  <unicode hex="0195"/>
  <outline>
    <contour>
      <point x="479" y="1536" type="line"/>
      <point x="298" y="1536" type="line"/>
      <point x="32" y="0" type="line"/>
      <point x="213" y="0" type="line"/>
    </contour>
    <contour>
      <point x="272" y="583" type="line"/>
      <point x="307" y="760"/>
      <point x="430" y="953"/>
      <point x="633" y="947" type="curve" smooth="yes"/>
      <point x="785" y="944"/>
      <point x="814" y="836"/>
      <point x="797" y="706" type="curve" smooth="yes"/>
      <point x="764" y="500" type="line"/>
      <point x="946" y="500" type="line"/>
      <point x="978" y="705" type="line" smooth="yes"/>
      <point x="1004" y="917"/>
      <point x="932" y="1097"/>
      <point x="695" y="1102" type="curve" smooth="yes"/>
      <point x="405" y="1109"/>
      <point x="237" y="844"/>
      <point x="202" y="585" type="curve"/>
    </contour>
    <contour>
      <point x="1066" y="-21" type="curve" smooth="yes"/>
      <point x="1350" y="-27"/>
      <point x="1470" y="191"/>
      <point x="1505" y="445" type="curve" smooth="yes"/>
      <point x="1613" y="1082" type="line"/>
      <point x="1432" y="1082" type="line"/>
      <point x="1326" y="442" type="line" smooth="yes"/>
      <point x="1306" y="307"/>
      <point x="1248" y="127"/>
      <point x="1079" y="135" type="curve" smooth="yes"/>
      <point x="921" y="143"/>
      <point x="927" y="327"/>
      <point x="941" y="441" type="curve" smooth="yes"/>
      <point x="961" y="582" type="line"/>
      <point x="779" y="582" type="line"/>
      <point x="758" y="445" type="line" smooth="yes"/>
      <point x="729" y="207"/>
      <point x="794" y="-14"/>
    </contour>
  </outline>
</glyph>
<glyph name="Khook" format="2">
  <advance width="1246"/>
  <unicode hex="0198"/>
  <outline>
    <contour>
      <point x="501" y="1456" type="line"/>
      <point x="312" y="1456" type="line"/>
      <point x="60" y="0" type="line"/>
      <point x="248" y="0" type="line"/>
    </contour>
    <contour>
      <point x="926" y="0" type="line"/>
      <point x="1137" y="0" type="line"/>
      <point x="651" y="864" type="line"/>
      <point x="521" y="719" type="line"/>
    </contour>
    <contour>
      <point x="898" y="1281" type="curve" smooth="yes"/>
      <point x="557" y="919" type="line"/>
      <point x="257" y="605" type="line"/>
      <point x="251" y="381" type="line"/>
      <point x="651" y="772" type="line"/>
      <point x="1049" y="1195" type="line" smooth="yes"/>
      <point x="1091" y="1241"/>
      <point x="1139" y="1303"/>
      <point x="1207" y="1304" type="curve" smooth="yes"/>
      <point x="1248" y="1305"/>
      <point x="1282" y="1290"/>
      <point x="1313" y="1266" type="curve"/>
      <point x="1389" y="1398" type="line"/>
      <point x="1333" y="1444"/>
      <point x="1271" y="1478"/>
      <point x="1196" y="1479" type="curve" smooth="yes"/>
      <point x="1064" y="1480"/>
      <point x="978" y="1371"/>
    </contour>
  </outline>
</glyph>
<glyph name="khook" format="2">
  <advance width="1007"/>
  <unicode hex="0199"/>
  <outline>
    <contour>
      <point x="416" y="1163" type="line"/>
      <point x="235" y="1163" type="line"/>
      <point x="33" y="0" type="line"/>
      <point x="214" y="0" type="line"/>
    </contour>
    <contour>
      <point x="1051" y="1082" type="line"/>
      <point x="815" y="1082" type="line"/>
      <point x="430" y="730" type="line"/>
      <point x="213" y="509" type="line"/>
      <point x="193" y="295" type="line"/>
      <point x="503" y="575" type="line"/>
    </contour>
    <contour>
      <point x="697" y="0" type="line"/>
      <point x="896" y="0" type="line"/>
      <point x="521" y="681" type="line"/>
      <point x="406" y="526" type="line"/>
    </contour>
    <contour>
      <point x="407" y="1115" type="line"/>
      <point x="429" y="1255" type="line" smooth="yes"/>
      <point x="447" y="1357"/>
      <point x="505" y="1427"/>
      <point x="615" y="1425" type="curve" smooth="yes"/>
      <point x="635" y="1424"/>
      <point x="653" y="1420"/>
      <point x="672" y="1415" type="curve"/>
      <point x="685" y="1543" type="line"/>
      <point x="651" y="1552"/>
      <point x="616" y="1560"/>
      <point x="580" y="1560" type="curve" smooth="yes"/>
      <point x="395" y="1564"/>
      <point x="267" y="1430"/>
      <point x="244" y="1254" type="curve" smooth="yes"/>
      <point x="227" y="1115" type="line"/>
    </contour>
  </outline>
</glyph>
<glyph name="mcapturn" format="2">
  <advance width="1809"/>
  <unicode hex="019C"/>
  <outline>
    <contour>
      <point x="1397" y="227" type="line"/>
      <point x="1367" y="0" type="line"/>
      <point x="1539" y="0" type="line"/>
      <point x="1791" y="1456" type="line"/>
      <point x="1610" y="1456" type="line"/>
    </contour>
    <contour>
      <point x="1453" y="501" type="line"/>
      <point x="1427" y="311"/>
      <point x="1329" y="128"/>
      <point x="1109" y="137" type="curve" smooth="yes"/>
      <point x="953" y="144"/>
      <point x="959" y="330"/>
      <point x="973" y="442" type="curve" smooth="yes"/>
      <point x="1144" y="1456" type="line"/>
      <point x="963" y="1456" type="line"/>
      <point x="791" y="444" type="line" smooth="yes"/>
      <point x="766" y="224"/>
      <point x="804" y="-19"/>
      <point x="1071" y="-23" type="curve" smooth="yes"/>
      <point x="1381" y="-28"/>
      <point x="1499" y="236"/>
      <point x="1531" y="504" type="curve"/>
    </contour>
    <contour>
      <point x="806" y="501" type="line"/>
      <point x="780" y="311"/>
      <point x="682" y="128"/>
      <point x="462" y="137" type="curve" smooth="yes"/>
      <point x="305" y="144"/>
      <point x="312" y="330"/>
      <point x="326" y="442" type="curve" smooth="yes"/>
      <point x="497" y="1456" type="line"/>
      <point x="316" y="1456" type="line"/>
      <point x="144" y="444" type="line" smooth="yes"/>
      <point x="119" y="224"/>
      <point x="157" y="-19"/>
      <point x="424" y="-23" type="curve" smooth="yes"/>
      <point x="734" y="-28"/>
      <point x="853" y="236"/>
      <point x="884" y="504" type="curve"/>
    </contour>
  </outline>
</glyph>
<glyph name="Nhook" format="2">
  <advance width="1476"/>
  <unicode hex="019D"/>
  <outline>
    <contour>
      <point x="283" y="940" type="line"/>
      <point x="106" y="-89" type="line" smooth="yes"/>
      <point x="91" y="-181"/>
      <point x="47" y="-276"/>
      <point x="-61" y="-276" type="curve" smooth="yes"/>
      <point x="-93" y="-276"/>
      <point x="-125" y="-269"/>
      <point x="-156" y="-261" type="curve"/>
      <point x="-187" y="-420" type="line"/>
      <point x="-148" y="-432"/>
      <point x="-111" y="-439"/>
      <point x="-70" y="-440" type="curve" smooth="yes"/>
      <point x="145" y="-443"/>
      <point x="270" y="-291"/>
      <point x="297" y="-88" type="curve" smooth="yes"/>
      <point x="471" y="940" type="line"/>
    </contour>
    <component base="N" xOffset="59"/>
  </outline>
</glyph>
<glyph name="OI" format="2">
  <advance width="1686"/>
  <unicode hex="01A2"/>
  <outline>
    <contour>
      <point x="1225" y="738" type="line"/>
      <point x="1046" y="738" type="line"/>
      <point x="957" y="245" type="line"/>
      <point x="864" y="163"/>
      <point x="748" y="136"/>
      <point x="624" y="138" type="curve" smooth="yes"/>
      <point x="330" y="143"/>
      <point x="283" y="434"/>
      <point x="316" y="671" type="curve" smooth="yes"/>
      <point x="332" y="774" type="line"/>
      <point x="146" y="772" type="line"/>
      <point x="130" y="671" type="line" smooth="yes"/>
      <point x="82" y="328"/>
      <point x="223" y="-15"/>
      <point x="610" y="-20" type="curve" smooth="yes"/>
      <point x="803" y="-23"/>
      <point x="1017" y="29"/>
      <point x="1136" y="193" type="curve"/>
    </contour>
    <contour>
      <point x="1312" y="1262" type="line"/>
      <point x="1208" y="1424"/>
      <point x="1026" y="1474"/>
      <point x="842" y="1476" type="curve" smooth="yes"/>
      <point x="441" y="1481"/>
      <point x="203" y="1150"/>
      <point x="146" y="784" type="curve" smooth="yes"/>
      <point x="131" y="693" type="line"/>
      <point x="317" y="691" type="line"/>
      <point x="333" y="785" type="line" smooth="yes"/>
      <point x="377" y="1048"/>
      <point x="535" y="1325"/>
      <point x="837" y="1321" type="curve" smooth="yes"/>
      <point x="940" y="1319"/>
      <point x="1068" y="1305"/>
      <point x="1129" y="1212" type="curve"/>
      <point x="1039" y="699" type="line"/>
      <point x="1218" y="699" type="line"/>
    </contour>
    <contour>
      <point x="1668" y="1456" type="line"/>
      <point x="1516" y="1456" type="line"/>
      <point x="1245" y="1345" type="line"/>
      <point x="1216" y="1176" type="line"/>
      <point x="1454" y="1265" type="line"/>
      <point x="1162" y="-416" type="line"/>
      <point x="1344" y="-416" type="line"/>
    </contour>
  </outline>
</glyph>
<glyph name="oi" format="2">
  <advance width="1327"/>
  <unicode hex="01A3"/>
  <outline>
    <contour>
      <point x="470" y="133" type="curve" smooth="yes"/>
      <point x="260" y="137"/>
      <point x="238" y="356"/>
      <point x="258" y="518" type="curve" smooth="yes"/>
      <point x="263" y="560" type="line" smooth="yes"/>
      <point x="290" y="753"/>
      <point x="401" y="958"/>
      <point x="623" y="953" type="curve" smooth="yes"/>
      <point x="675" y="952"/>
      <point x="723" y="936"/>
      <point x="762" y="903" type="curve"/>
      <point x="693" y="508" type="line"/>
      <point x="873" y="508" type="line"/>
      <point x="946" y="950" type="line"/>
      <point x="868" y="1051"/>
      <point x="754" y="1099"/>
      <point x="628" y="1102" type="curve" smooth="yes"/>
      <point x="315" y="1109"/>
      <point x="119" y="851"/>
      <point x="83" y="560" type="curve" smooth="yes"/>
      <point x="78" y="517" type="line" smooth="yes"/>
      <point x="48" y="247"/>
      <point x="161" y="-14"/>
      <point x="464" y="-20" type="curve" smooth="yes"/>
      <point x="598" y="-22"/>
      <point x="724" y="35"/>
      <point x="814" y="132" type="curve"/>
      <point x="880" y="544" type="line"/>
      <point x="699" y="544" type="line"/>
      <point x="631" y="177" type="line"/>
      <point x="581" y="150"/>
      <point x="528" y="132"/>
    </contour>
    <contour>
      <point x="1270" y="1082" type="line"/>
      <point x="1115" y="1082" type="line"/>
      <point x="864" y="955" type="line"/>
      <point x="821" y="707" type="line"/>
      <point x="1046" y="830" type="line"/>
      <point x="829" y="-416" type="line"/>
      <point x="1010" y="-416" type="line"/>
    </contour>
  </outline>
</glyph>
<glyph name="YR" format="2">
  <advance width="1361"/>
  <unicode hex="01A6"/>
  <outline>
    <contour>
      <point x="295" y="1361" type="line"/>
      <point x="483" y="1360" type="line"/>
      <point x="518" y="1558" type="line"/>
      <point x="330" y="1558" type="line"/>
    </contour>
    <contour>
      <point x="312" y="1456" type="line"/>
      <point x="59" y="0" type="line"/>
      <point x="248" y="0" type="line"/>
      <point x="473" y="1298" type="line"/>
      <point x="764" y="1297" type="line" smooth="yes"/>
      <point x="935" y="1293"/>
      <point x="1036" y="1200"/>
      <point x="1011" y="1026" type="curve" smooth="yes"/>
      <point x="986" y="843"/>
      <point x="827" y="747"/>
      <point x="652" y="746" type="curve" smooth="yes"/>
      <point x="330" y="747" type="line"/>
      <point x="305" y="590" type="line"/>
      <point x="757" y="590" type="line"/>
      <point x="813" y="610" type="line"/>
      <point x="1016" y="673"/>
      <point x="1179" y="800"/>
      <point x="1200" y="1026" type="curve" smooth="yes"/>
      <point x="1227" y="1311"/>
      <point x="1035" y="1449"/>
      <point x="767" y="1455" type="curve" smooth="yes"/>
    </contour>
    <contour>
      <point x="1018" y="-359" type="line"/>
      <point x="1219" y="-361" type="line"/>
      <point x="1220" y="-346" type="line"/>
      <point x="847" y="661" type="line"/>
      <point x="661" y="661" type="line"/>
    </contour>
  </outline>
</glyph>
<glyph name="eshlooprev" format="2">
  <advance width="926"/>
  <unicode hex="01AA"/>
  <outline>
    <contour>
      <point x="594" y="1143" type="line"/>
      <point x="389" y="-62" type="line" smooth="yes"/>
      <point x="371" y="-230"/>
      <point x="418" y="-405"/>
      <point x="616" y="-408" type="curve" smooth="yes"/>
      <point x="652" y="-408"/>
      <point x="688" y="-402"/>
      <point x="722" y="-393" type="curve"/>
      <point x="735" y="-243" type="line"/>
      <point x="712" y="-247"/>
      <point x="689" y="-251"/>
      <point x="666" y="-250" type="curve" smooth="yes"/>
      <point x="560" y="-247"/>
      <point x="559" y="-146"/>
      <point x="570" y="-64" type="curve" smooth="yes"/>
      <point x="790" y="1226" type="line"/>
    </contour>
    <contour>
      <point x="129" y="1213" type="curve" smooth="yes"/>
      <point x="117" y="1039"/>
      <point x="239" y="885"/>
      <point x="418" y="881" type="curve" smooth="yes"/>
      <point x="611" y="877"/>
      <point x="775" y="1040"/>
      <point x="788" y="1229" type="curve" smooth="yes"/>
      <point x="800" y="1404"/>
      <point x="677" y="1559"/>
      <point x="498" y="1562" type="curve" smooth="yes"/>
      <point x="305" y="1567"/>
      <point x="142" y="1403"/>
    </contour>
    <contour>
      <point x="431" y="1052" type="curve" smooth="yes"/>
      <point x="336" y="1052"/>
      <point x="288" y="1127"/>
      <point x="298" y="1215" type="curve" smooth="yes"/>
      <point x="310" y="1313"/>
      <point x="384" y="1396"/>
      <point x="488" y="1395" type="curve" smooth="yes"/>
      <point x="583" y="1394"/>
      <point x="629" y="1317"/>
      <point x="618" y="1230" type="curve" smooth="yes"/>
      <point x="607" y="1133"/>
      <point x="534" y="1051"/>
    </contour>
  </outline>
</glyph>
<glyph name="thook" format="2">
  <advance width="660"/>
  <unicode hex="01AD"/>
  <outline>
    <contour>
      <point x="484" y="1115" type="line"/>
      <point x="507" y="1260" type="line" smooth="yes"/>
      <point x="525" y="1361"/>
      <point x="583" y="1432"/>
      <point x="693" y="1429" type="curve" smooth="yes"/>
      <point x="713" y="1429"/>
      <point x="731" y="1425"/>
      <point x="750" y="1420" type="curve"/>
      <point x="763" y="1547" type="line"/>
      <point x="729" y="1556"/>
      <point x="694" y="1564"/>
      <point x="658" y="1564" type="curve" smooth="yes"/>
      <point x="473" y="1567"/>
      <point x="346" y="1437"/>
      <point x="323" y="1260" type="curve" smooth="yes"/>
      <point x="303" y="1115" type="line"/>
    </contour>
    <contour>
      <point x="675" y="1082" type="line"/>
      <point x="106" y="1082" type="line"/>
      <point x="81" y="940" type="line"/>
      <point x="650" y="940" type="line"/>
    </contour>
    <contour>
      <point x="308" y="1142" type="line"/>
      <point x="166" y="297" type="line" smooth="yes"/>
      <point x="152" y="151"/>
      <point x="193" y="-15"/>
      <point x="367" y="-18" type="curve" smooth="yes"/>
      <point x="411" y="-19"/>
      <point x="456" y="-13"/>
      <point x="499" y="0" type="curve"/>
      <point x="511" y="151" type="line"/>
      <point x="483" y="146"/>
      <point x="454" y="141"/>
      <point x="425" y="142" type="curve" smooth="yes"/>
      <point x="341" y="144"/>
      <point x="339" y="227"/>
      <point x="346" y="293" type="curve" smooth="yes"/>
      <point x="489" y="1142" type="line"/>
    </contour>
  </outline>
</glyph>
<glyph name="Trthook" format="2">
  <advance width="1186"/>
  <unicode hex="01AE"/>
  <outline>
    <contour>
      <point x="1290" y="1456" type="line"/>
      <point x="196" y="1456" type="line"/>
      <point x="169" y="1298" type="line"/>
      <point x="1262" y="1298" type="line"/>
    </contour>
    <contour>
      <point x="753" y="-421" type="curve"/>
      <point x="752" y="-263" type="line"/>
      <point x="721" y="-269"/>
      <point x="689" y="-276"/>
      <point x="657" y="-274" type="curve" smooth="yes"/>
      <point x="560" y="-271"/>
      <point x="561" y="-161"/>
      <point x="570" y="-90" type="curve" smooth="yes"/>
      <point x="836" y="1456" type="line"/>
      <point x="649" y="1456" type="line"/>
      <point x="385" y="-89" type="line" smooth="yes"/>
      <point x="364" y="-275"/>
      <point x="449" y="-433"/>
      <point x="651" y="-436" type="curve" smooth="yes"/>
      <point x="686" y="-437"/>
      <point x="719" y="-432"/>
    </contour>
  </outline>
</glyph>
<glyph name="Upsilon2" format="2">
  <advance width="1320"/>
  <unicode hex="01B1"/>
  <outline>
    <contour>
      <point x="331" y="729" type="line" smooth="yes"/>
      <point x="366" y="961"/>
      <point x="463" y="1237"/>
      <point x="720" y="1294" type="curve"/>
      <point x="736" y="1435" type="line"/>
      <point x="398" y="1386"/>
      <point x="189" y="1044"/>
      <point x="140" y="728" type="curve" smooth="yes"/>
      <point x="124" y="615" type="line" smooth="yes"/>
      <point x="83" y="305"/>
      <point x="218" y="-15"/>
      <point x="568" y="-22" type="curve" smooth="yes"/>
      <point x="931" y="-29"/>
      <point x="1156" y="285"/>
      <point x="1206" y="616" type="curve" smooth="yes"/>
      <point x="1222" y="729" type="line" smooth="yes"/>
      <point x="1260" y="1003"/>
      <point x="1165" y="1371"/>
      <point x="855" y="1433" type="curve"/>
      <point x="842" y="1292" type="line"/>
      <point x="1076" y="1233"/>
      <point x="1057" y="915"/>
      <point x="1031" y="729" type="curve" smooth="yes"/>
      <point x="1014" y="613" type="line" smooth="yes"/>
      <point x="979" y="380"/>
      <point x="847" y="126"/>
      <point x="576" y="135" type="curve" smooth="yes"/>
      <point x="317" y="143"/>
      <point x="288" y="407"/>
      <point x="315" y="612" type="curve" smooth="yes"/>
    </contour>
    <contour>
      <point x="745" y="1456" type="line"/>
      <point x="275" y="1456" type="line"/>
      <point x="247" y="1298" type="line"/>
      <point x="718" y="1298" type="line"/>
    </contour>
    <contour>
      <point x="1346" y="1456" type="line"/>
      <point x="867" y="1456" type="line"/>
      <point x="840" y="1298" type="line"/>
      <point x="1318" y="1298" type="line"/>
    </contour>
  </outline>
</glyph>
<glyph name="Vcursive" format="2">
  <advance width="1297"/>
  <unicode hex="01B2"/>
  <outline>
    <contour>
      <point x="555" y="-20" type="curve" smooth="yes"/>
      <point x="859" y="-26"/>
      <point x="1098" y="168"/>
      <point x="1142" y="471" type="curve" smooth="yes"/>
      <point x="1248" y="1128" type="line" smooth="yes"/>
      <point x="1266" y="1306"/>
      <point x="1188" y="1473"/>
      <point x="991" y="1474" type="curve" smooth="yes"/>
      <point x="955" y="1475"/>
      <point x="919" y="1469"/>
      <point x="884" y="1459" type="curve"/>
      <point x="871" y="1307" type="line"/>
      <point x="894" y="1310"/>
      <point x="917" y="1315"/>
      <point x="940" y="1314" type="curve" smooth="yes"/>
      <point x="1055" y="1312"/>
      <point x="1074" y="1229"/>
      <point x="1061" y="1129" type="curve" smooth="yes"/>
      <point x="953" y="470" type="line" smooth="yes"/>
      <point x="920" y="265"/>
      <point x="777" y="130"/>
      <point x="563" y="136" type="curve" smooth="yes"/>
      <point x="363" y="142"/>
      <point x="280" y="282"/>
      <point x="304" y="470" type="curve" smooth="yes"/>
      <point x="472" y="1456" type="line"/>
      <point x="285" y="1456" type="line"/>
      <point x="118" y="471" type="line" smooth="yes"/>
      <point x="83" y="178"/>
      <point x="265" y="-15"/>
    </contour>
  </outline>
</glyph>
<glyph name="Yhook" format="2">
  <advance width="1288"/>
  <unicode hex="01B3"/>
  <outline>
    <contour>
      <point x="525" y="590" type="line"/>
      <point x="545" y="507" type="line"/>
      <point x="661" y="507" type="line"/>
      <point x="1039" y="1042" type="line" smooth="yes"/>
      <point x="1096" y="1127"/>
      <point x="1167" y="1307"/>
      <point x="1292" y="1305" type="curve" smooth="yes"/>
      <point x="1334" y="1304"/>
      <point x="1366" y="1290"/>
      <point x="1398" y="1266" type="curve"/>
      <point x="1474" y="1397" type="line"/>
      <point x="1415" y="1445"/>
      <point x="1347" y="1477"/>
      <point x="1269" y="1478" type="curve" smooth="yes"/>
      <point x="1072" y="1482"/>
      <point x="971" y="1267"/>
      <point x="881" y="1124" type="curve" smooth="yes"/>
    </contour>
    <contour>
      <point x="369" y="1457" type="line"/>
      <point x="168" y="1456" type="line"/>
      <point x="509" y="507" type="line"/>
      <point x="619" y="507" type="line"/>
      <point x="664" y="578" type="line"/>
    </contour>
    <contour>
      <point x="703" y="676" type="line"/>
      <point x="514" y="676" type="line"/>
      <point x="397" y="0" type="line"/>
      <point x="585" y="0" type="line"/>
    </contour>
  </outline>
</glyph>
<glyph name="yhook" format="2">
  <advance width="1180"/>
  <unicode hex="01B4"/>
  <outline>
    <contour>
      <point x="351" y="128" type="line"/>
      <point x="236" y="-95" type="line" smooth="yes"/>
      <point x="179" y="-207"/>
      <point x="104" y="-283"/>
      <point x="-29" y="-278" type="curve" smooth="yes"/>
      <point x="-44" y="-277"/>
      <point x="-60" y="-275"/>
      <point x="-75" y="-272" type="curve"/>
      <point x="-91" y="-423" type="line"/>
      <point x="-55" y="-430"/>
      <point x="-18" y="-440"/>
      <point x="18" y="-441" type="curve" smooth="yes"/>
      <point x="191" y="-445"/>
      <point x="303" y="-312"/>
      <point x="369" y="-168" type="curve" smooth="yes"/>
      <point x="939" y="985" type="line" smooth="yes"/>
      <point x="981" y="1076"/>
      <point x="1039" y="1235"/>
      <point x="1162" y="1231" type="curve" smooth="yes"/>
      <point x="1206" y="1230"/>
      <point x="1246" y="1210"/>
      <point x="1282" y="1188" type="curve"/>
      <point x="1334" y="1304" type="line"/>
      <point x="1277" y="1346"/>
      <point x="1213" y="1375"/>
      <point x="1141" y="1376" type="curve" smooth="yes"/>
      <point x="942" y="1378"/>
      <point x="860" y="1205"/>
      <point x="791" y="1047" type="curve" smooth="yes"/>
    </contour>
    <contour>
      <point x="298" y="1082" type="line"/>
      <point x="109" y="1082" type="line"/>
      <point x="304" y="-24" type="line"/>
      <point x="438" y="41" type="line"/>
      <point x="405" y="377" type="line"/>
    </contour>
  </outline>
</glyph>
<glyph name="uni01B7" format="2">
  <advance width="1279"/>
  <unicode hex="01B7"/>
  <outline>
    <contour>
      <point x="-17" y="65" type="line"/>
      <point x="-6" y="-222"/>
      <point x="153" y="-410"/>
      <point x="449" y="-416" type="curve" smooth="yes"/>
      <point x="813" y="-424"/>
      <point x="1052" y="-188"/>
      <point x="1089" y="169" type="curve" smooth="yes"/>
      <point x="1125" y="514"/>
      <point x="959" y="734"/>
      <point x="607" y="740" type="curve" smooth="yes"/>
      <point x="422" y="740" type="line"/>
      <point x="396" y="589" type="line"/>
      <point x="604" y="588" type="line" smooth="yes"/>
      <point x="867" y="582"/>
      <point x="930" y="406"/>
      <point x="901" y="168" type="curve" smooth="yes"/>
      <point x="870" y="-84"/>
      <point x="728" y="-268"/>
      <point x="458" y="-262" type="curve" smooth="yes"/>
      <point x="243" y="-256"/>
      <point x="179" y="-132"/>
      <point x="170" y="65" type="curve"/>
    </contour>
    <contour>
      <point x="1219" y="1319" type="line"/>
      <point x="1240" y="1456" type="line"/>
      <point x="1146" y="1455" type="line"/>
      <point x="402" y="741" type="line"/>
      <point x="375" y="589" type="line"/>
      <point x="470" y="590" type="line"/>
    </contour>
    <contour>
      <point x="1161" y="1456" type="line"/>
      <point x="259" y="1456" type="line"/>
      <point x="232" y="1298" type="line"/>
      <point x="1133" y="1298" type="line"/>
    </contour>
  </outline>
</glyph>
<glyph name="uni01B8" format="2">
  <advance width="1279"/>
  <unicode hex="01B8"/>
  <outline>
    <contour>
      <point x="916" y="63" type="line"/>
      <point x="855" y="-142"/>
      <point x="741" y="-268"/>
      <point x="514" y="-263" type="curve" smooth="yes"/>
      <point x="256" y="-257"/>
      <point x="200" y="-71"/>
      <point x="228" y="155" type="curve" smooth="yes"/>
      <point x="261" y="428"/>
      <point x="414" y="590"/>
      <point x="695" y="590" type="curve" smooth="yes"/>
      <point x="881" y="589" type="line"/>
      <point x="907" y="740" type="line"/>
      <point x="698" y="741" type="line" smooth="yes"/>
      <point x="329" y="741"/>
      <point x="78" y="528"/>
      <point x="38" y="155" type="curve" smooth="yes"/>
      <point x="3" y="-179"/>
      <point x="156" y="-413"/>
      <point x="506" y="-417" type="curve" smooth="yes"/>
      <point x="812" y="-421"/>
      <point x="1041" y="-234"/>
      <point x="1102" y="65" type="curve"/>
    </contour>
    <contour>
      <point x="824" y="589" type="line"/>
      <point x="901" y="589" type="line"/>
      <point x="924" y="723" type="line"/>
      <point x="416" y="1456" type="line"/>
      <point x="338" y="1456" type="line"/>
      <point x="315" y="1328" type="line"/>
    </contour>
    <contour>
      <point x="389" y="1298" type="line"/>
      <point x="1291" y="1298" type="line"/>
      <point x="1318" y="1456" type="line"/>
      <point x="416" y="1456" type="line"/>
    </contour>
  </outline>
</glyph>
<glyph name="uni01BA" format="2">
  <advance width="1059"/>
  <unicode hex="01BA"/>
  <outline>
    <contour>
      <point x="204" y="1082" type="line"/>
      <point x="178" y="931" type="line"/>
      <point x="745" y="930" type="line"/>
      <point x="325" y="632" type="line"/>
      <point x="303" y="506" type="line"/>
      <point x="454" y="506" type="line"/>
      <point x="1017" y="958" type="line"/>
      <point x="1037" y="1082" type="line"/>
    </contour>
    <contour>
      <point x="131" y="-137" type="curve" smooth="yes"/>
      <point x="147" y="-7"/>
      <point x="300" y="27"/>
      <point x="407" y="52" type="curve" smooth="yes"/>
      <point x="589" y="92"/>
      <point x="821" y="153"/>
      <point x="833" y="376" type="curve" smooth="yes"/>
      <point x="844" y="574"/>
      <point x="653" y="653"/>
      <point x="485" y="657" type="curve" smooth="yes"/>
      <point x="421" y="658" type="line"/>
      <point x="409" y="505" type="line"/>
      <point x="478" y="505" type="line" smooth="yes"/>
      <point x="561" y="503"/>
      <point x="669" y="486"/>
      <point x="654" y="380" type="curve" smooth="yes"/>
      <point x="636" y="252"/>
      <point x="491" y="228"/>
      <point x="385" y="206" type="curve" smooth="yes"/>
      <point x="203" y="167"/>
      <point x="-38" y="102"/>
      <point x="-51" y="-122" type="curve" smooth="yes"/>
      <point x="-64" y="-334"/>
      <point x="129" y="-434"/>
      <point x="316" y="-438" type="curve" smooth="yes"/>
      <point x="534" y="-441"/>
      <point x="764" y="-319"/>
      <point x="787" y="-83" type="curve"/>
      <point x="606" y="-84" type="line"/>
      <point x="571" y="-219"/>
      <point x="461" y="-291"/>
      <point x="323" y="-288" type="curve" smooth="yes"/>
      <point x="230" y="-286"/>
      <point x="116" y="-250"/>
    </contour>
  </outline>
</glyph>
<glyph name="tonefive" format="2">
  <advance width="996"/>
  <unicode hex="01BD"/>
  <outline>
    <contour>
      <point x="294" y="476" type="line"/>
      <point x="353" y="547"/>
      <point x="431" y="587"/>
      <point x="526" y="586" type="curve" smooth="yes"/>
      <point x="657" y="584"/>
      <point x="720" y="492"/>
      <point x="705" y="367" type="curve" smooth="yes"/>
      <point x="687" y="222"/>
      <point x="579" y="134"/>
      <point x="432" y="136" type="curve" smooth="yes"/>
      <point x="315" y="139"/>
      <point x="233" y="202"/>
      <point x="239" y="321" type="curve"/>
      <point x="62" y="307" type="line"/>
      <point x="57" y="102"/>
      <point x="233" y="-13"/>
      <point x="424" y="-18" type="curve" smooth="yes"/>
      <point x="669" y="-23"/>
      <point x="866" y="115"/>
      <point x="886" y="369" type="curve" smooth="yes"/>
      <point x="903" y="581"/>
      <point x="784" y="739"/>
      <point x="563" y="735" type="curve" smooth="yes"/>
      <point x="487" y="733"/>
      <point x="411" y="711"/>
      <point x="347" y="670" type="curve"/>
      <point x="431" y="920" type="line"/>
      <point x="930" y="920" type="line"/>
      <point x="958" y="1082" type="line"/>
      <point x="301" y="1082" type="line"/>
      <point x="134" y="487" type="line"/>
    </contour>
    <contour>
      <point x="407" y="1082" type="line"/>
      <point x="123" y="1082" type="line"/>
      <point x="95" y="920" type="line"/>
      <point x="379" y="920" type="line"/>
    </contour>
  </outline>
</glyph>
<glyph name="glottalstopbarinv" format="2">
  <advance width="1016"/>
  <unicode hex="01BE"/>
  <outline>
    <contour>
      <point x="691" y="294" type="curve" smooth="yes"/>
      <point x="672" y="175"/>
      <point x="541" y="132"/>
      <point x="435" y="133" type="curve" smooth="yes"/>
      <point x="306" y="134"/>
      <point x="219" y="204"/>
      <point x="221" y="334" type="curve"/>
      <point x="40" y="335" type="line"/>
      <point x="32" y="108"/>
      <point x="217" y="-17"/>
      <point x="428" y="-21" type="curve" smooth="yes"/>
      <point x="631" y="-24"/>
      <point x="859" y="81"/>
      <point x="871" y="309" type="curve" smooth="yes"/>
      <point x="885" y="543"/>
      <point x="574" y="564"/>
      <point x="604" y="790" type="curve" smooth="yes"/>
      <point x="698" y="1344" type="line"/>
      <point x="517" y="1344" type="line"/>
      <point x="425" y="786" type="line" smooth="yes"/>
      <point x="402" y="545"/>
      <point x="721" y="482"/>
    </contour>
    <contour>
      <point x="849" y="1082" type="line"/>
      <point x="280" y="1082" type="line"/>
      <point x="255" y="940" type="line"/>
      <point x="824" y="940" type="line"/>
    </contour>
  </outline>
</glyph>
<glyph name="uni01C6" format="2">
  <advance width="1973"/>
  <unicode hex="01C6"/>
  <outline>
    <contour>
      <point x="732" y="221" type="line"/>
      <point x="719" y="0" type="line"/>
      <point x="875" y="0" type="line"/>
      <point x="1146" y="1560" type="line"/>
      <point x="965" y="1560" type="line"/>
    </contour>
    <contour>
      <point x="79" y="521" type="line" smooth="yes"/>
      <point x="53" y="283"/>
      <point x="130" y="-12"/>
      <point x="417" y="-21" type="curve" smooth="yes"/>
      <point x="706" y="-29"/>
      <point x="870" y="236"/>
      <point x="913" y="495" type="curve"/>
      <point x="927" y="589" type="line"/>
      <point x="941" y="830"/>
      <point x="855" y="1097"/>
      <point x="579" y="1104" type="curve" smooth="yes"/>
      <point x="271" y="1111"/>
      <point x="115" y="808"/>
      <point x="81" y="542" type="curve" smooth="yes"/>
    </contour>
    <contour>
      <point x="266" y="546" type="line" smooth="yes"/>
      <point x="292" y="732"/>
      <point x="392" y="953"/>
      <point x="614" y="946" type="curve" smooth="yes"/>
      <point x="766" y="942"/>
      <point x="860" y="806"/>
      <point x="853" y="660" type="curve"/>
      <point x="812" y="418" type="line"/>
      <point x="767" y="267"/>
      <point x="631" y="130"/>
      <point x="467" y="135" type="curve" smooth="yes"/>
      <point x="260" y="141"/>
      <point x="243" y="365"/>
      <point x="263" y="524" type="curve" smooth="yes"/>
    </contour>
    <contour>
      <point x="1829" y="151" type="line"/>
      <point x="1064" y="151" type="line"/>
      <point x="1038" y="0" type="line"/>
      <point x="1803" y="0" type="line"/>
    </contour>
    <contour>
      <point x="1939" y="942" type="line"/>
      <point x="1963" y="1082" type="line"/>
      <point x="1841" y="1082" type="line"/>
      <point x="994" y="145" type="line"/>
      <point x="969" y="0" type="line"/>
      <point x="1087" y="0" type="line"/>
    </contour>
    <contour>
      <point x="1883" y="1082" type="line"/>
      <point x="1165" y="1082" type="line"/>
      <point x="1139" y="930" type="line"/>
      <point x="1857" y="930" type="line"/>
    </contour>
    <contour>
      <point x="1493" y="1515" type="line"/>
      <point x="1342" y="1516" type="line"/>
      <point x="1341" y="1493" type="line"/>
      <point x="1551" y="1252" type="line"/>
      <point x="1664" y="1252" type="line"/>
      <point x="1944" y="1495" type="line"/>
      <point x="1945" y="1516" type="line"/>
      <point x="1782" y="1514" type="line"/>
      <point x="1610" y="1366" type="line"/>
    </contour>
  </outline>
</glyph>
<glyph name="uni01F6" format="2">
  <advance width="2167"/>
  <unicode hex="01F6"/>
  <outline>
    <contour>
      <point x="1127" y="830" type="line"/>
      <point x="362" y="830" type="line"/>
      <point x="335" y="673" type="line"/>
      <point x="1100" y="673" type="line"/>
    </contour>
    <contour>
      <point x="501" y="1456" type="line"/>
      <point x="312" y="1456" type="line"/>
      <point x="60" y="0" type="line"/>
      <point x="248" y="0" type="line"/>
    </contour>
    <contour>
      <point x="1399" y="1456" type="line"/>
      <point x="1211" y="1456" type="line"/>
      <point x="1045" y="500" type="line"/>
      <point x="1233" y="500" type="line"/>
    </contour>
    <contour>
      <point x="1932" y="1081" type="line"/>
      <point x="1827" y="464" type="line" smooth="yes"/>
      <point x="1797" y="268"/>
      <point x="1674" y="131"/>
      <point x="1466" y="137" type="curve" smooth="yes"/>
      <point x="1269" y="142"/>
      <point x="1207" y="284"/>
      <point x="1230" y="463" type="curve" smooth="yes"/>
      <point x="1246" y="565" type="line"/>
      <point x="1057" y="565" type="line"/>
      <point x="1042" y="464" type="line" smooth="yes"/>
      <point x="1006" y="181"/>
      <point x="1170" y="-16"/>
      <point x="1457" y="-21" type="curve" smooth="yes"/>
      <point x="1757" y="-26"/>
      <point x="1973" y="173"/>
      <point x="2015" y="466" type="curve" smooth="yes"/>
      <point x="2120" y="1081" type="line"/>
    </contour>
  </outline>
</glyph>
<glyph name="uni0221" format="2">
  <advance width="1416"/>
  <unicode hex="0221"/>
  <outline>
    <contour>
      <point x="728" y="228" type="curve"/>
      <point x="721" y="110"/>
      <point x="687" y="-6"/>
      <point x="676" y="-123" type="curve" smooth="yes"/>
      <point x="659" y="-303"/>
      <point x="753" y="-434"/>
      <point x="941" y="-437" type="curve" smooth="yes"/>
      <point x="1102" y="-440"/>
      <point x="1246" y="-335"/>
      <point x="1254" y="-166" type="curve" smooth="yes"/>
      <point x="1262" y="-15"/>
      <point x="1159" y="86"/>
      <point x="1010" y="89" type="curve" smooth="yes"/>
      <point x="892" y="91"/>
      <point x="773" y="30"/>
      <point x="684" y="-45" type="curve"/>
      <point x="431" y="-281" type="line"/>
      <point x="466" y="-318"/>
      <point x="498" y="-357"/>
      <point x="532" y="-395" type="curve"/>
      <point x="696" y="-234" type="line" smooth="yes"/>
      <point x="769" y="-163"/>
      <point x="871" y="-55"/>
      <point x="983" y="-60" type="curve" smooth="yes"/>
      <point x="1045" y="-62"/>
      <point x="1084" y="-105"/>
      <point x="1075" y="-166" type="curve" smooth="yes"/>
      <point x="1066" y="-229"/>
      <point x="1015" y="-282"/>
      <point x="950" y="-284" type="curve" smooth="yes"/>
      <point x="873" y="-285"/>
      <point x="843" y="-234"/>
      <point x="850" y="-166" type="curve" smooth="yes"/>
      <point x="863" y="-34"/>
      <point x="905" y="96"/>
      <point x="909" y="229" type="curve"/>
      <point x="850" y="226"/>
      <point x="787" y="222"/>
    </contour>
    <component base="d"/>
  </outline>
</glyph>
<glyph name="uni0222" format="2">
  <advance width="1326"/>
  <unicode hex="0222"/>
  <outline>
    <contour>
      <point x="685" y="878" type="line" smooth="yes"/>
      <point x="399" y="880"/>
      <point x="115" y="736"/>
      <point x="87" y="424" type="curve" smooth="yes"/>
      <point x="61" y="128"/>
      <point x="287" y="-14"/>
      <point x="556" y="-21" type="curve" smooth="yes"/>
      <point x="579" y="-21" type="line" smooth="yes"/>
      <point x="872" y="-24"/>
      <point x="1153" y="124"/>
      <point x="1181" y="441" type="curve" smooth="yes"/>
      <point x="1206" y="734"/>
      <point x="972" y="871"/>
      <point x="708" y="878" type="curve" smooth="yes"/>
    </contour>
    <contour>
      <point x="703" y="729" type="line" smooth="yes"/>
      <point x="883" y="723"/>
      <point x="1020" y="637"/>
      <point x="995" y="441" type="curve" smooth="yes"/>
      <point x="967" y="227"/>
      <point x="783" y="140"/>
      <point x="584" y="142" type="curve" smooth="yes"/>
      <point x="563" y="143" type="line" smooth="yes"/>
      <point x="384" y="149"/>
      <point x="249" y="229"/>
      <point x="274" y="424" type="curve" smooth="yes"/>
      <point x="300" y="636"/>
      <point x="481" y="731"/>
      <point x="680" y="730" type="curve" smooth="yes"/>
    </contour>
    <contour>
      <point x="687" y="892" type="line" smooth="yes"/>
      <point x="542" y="895"/>
      <point x="370" y="929"/>
      <point x="394" y="1110" type="curve" smooth="yes"/>
      <point x="411" y="1241"/>
      <point x="506" y="1299"/>
      <point x="627" y="1328" type="curve"/>
      <point x="643" y="1477" type="line"/>
      <point x="419" y="1465"/>
      <point x="224" y="1354"/>
      <point x="207" y="1109" type="curve" smooth="yes"/>
      <point x="186" y="830"/>
      <point x="448" y="749"/>
      <point x="680" y="744" type="curve" smooth="yes"/>
      <point x="721" y="744" type="line" smooth="yes"/>
      <point x="975" y="742"/>
      <point x="1279" y="825"/>
      <point x="1300" y="1125" type="curve" smooth="yes"/>
      <point x="1315" y="1337"/>
      <point x="1174" y="1458"/>
      <point x="974" y="1476" type="curve"/>
      <point x="960" y="1326" type="line"/>
      <point x="1070" y="1298"/>
      <point x="1132" y="1244"/>
      <point x="1115" y="1124" type="curve" smooth="yes"/>
      <point x="1089" y="932"/>
      <point x="893" y="891"/>
      <point x="727" y="892" type="curve" smooth="yes"/>
    </contour>
  </outline>
</glyph>
<glyph name="uni0225" format="2">
  <advance width="1019"/>
  <unicode hex="0225"/>
  <outline>
    <contour>
      <point x="544" y="151" type="line"/>
      <point x="77" y="151" type="line"/>
      <point x="50" y="0" type="line"/>
      <point x="518" y="0" type="line"/>
    </contour>
    <contour>
      <point x="951" y="942" type="line"/>
      <point x="975" y="1082" type="line"/>
      <point x="853" y="1082" type="line"/>
      <point x="6" y="145" type="line"/>
      <point x="-19" y="0" type="line"/>
      <point x="100" y="0" type="line"/>
    </contour>
    <contour>
      <point x="896" y="1082" type="line"/>
      <point x="178" y="1082" type="line"/>
      <point x="151" y="930" type="line"/>
      <point x="869" y="930" type="line"/>
    </contour>
    <contour>
      <point x="381" y="0" type="line"/>
      <point x="545" y="0" type="line" smooth="yes"/>
      <point x="645" y="-4"/>
      <point x="707" y="-42"/>
      <point x="692" y="-148" type="curve" smooth="yes"/>
      <point x="689" y="-172"/>
      <point x="682" y="-194"/>
      <point x="674" y="-217" type="curve"/>
      <point x="821" y="-219" type="line"/>
      <point x="834" y="-180"/>
      <point x="845" y="-140"/>
      <point x="848" y="-99" type="curve" smooth="yes"/>
      <point x="864" y="91"/>
      <point x="711" y="148"/>
      <point x="547" y="151" type="curve" smooth="yes"/>
      <point x="407" y="151" type="line"/>
    </contour>
  </outline>
</glyph>
<glyph name="uni0235" format="2">
  <advance width="1400"/>
  <unicode hex="0235"/>
  <outline>
    <contour>
      <point x="712" y="228" type="curve"/>
      <point x="704" y="110"/>
      <point x="671" y="-6"/>
      <point x="660" y="-123" type="curve" smooth="yes"/>
      <point x="643" y="-303"/>
      <point x="736" y="-434"/>
      <point x="924" y="-437" type="curve" smooth="yes"/>
      <point x="1085" y="-439"/>
      <point x="1230" y="-335"/>
      <point x="1238" y="-166" type="curve" smooth="yes"/>
      <point x="1245" y="-14"/>
      <point x="1142" y="86"/>
      <point x="993" y="89" type="curve" smooth="yes"/>
      <point x="875" y="91"/>
      <point x="757" y="30"/>
      <point x="668" y="-45" type="curve"/>
      <point x="415" y="-281" type="line"/>
      <point x="450" y="-318"/>
      <point x="482" y="-357"/>
      <point x="515" y="-395" type="curve"/>
      <point x="680" y="-234" type="line" smooth="yes"/>
      <point x="752" y="-163"/>
      <point x="856" y="-55"/>
      <point x="967" y="-60" type="curve" smooth="yes"/>
      <point x="1029" y="-62"/>
      <point x="1068" y="-105"/>
      <point x="1059" y="-167" type="curve" smooth="yes"/>
      <point x="1050" y="-229"/>
      <point x="1000" y="-283"/>
      <point x="934" y="-284" type="curve" smooth="yes"/>
      <point x="858" y="-286"/>
      <point x="829" y="-234"/>
      <point x="835" y="-167" type="curve" smooth="yes"/>
      <point x="847" y="-35"/>
      <point x="888" y="96"/>
      <point x="893" y="229" type="curve"/>
      <point x="834" y="226"/>
      <point x="771" y="222"/>
    </contour>
    <contour>
      <point x="359" y="840" type="line"/>
      <point x="391" y="1082" type="line"/>
      <point x="220" y="1082" type="line"/>
      <point x="32" y="0" type="line"/>
      <point x="213" y="0" type="line"/>
    </contour>
    <contour>
      <point x="273" y="583" type="line"/>
      <point x="307" y="760"/>
      <point x="430" y="953"/>
      <point x="634" y="947" type="curve" smooth="yes"/>
      <point x="780" y="944"/>
      <point x="813" y="841"/>
      <point x="797" y="712" type="curve" smooth="yes"/>
      <point x="678" y="0" type="line"/>
      <point x="859" y="0" type="line"/>
      <point x="978" y="709" type="line" smooth="yes"/>
      <point x="1001" y="920"/>
      <point x="928" y="1097"/>
      <point x="695" y="1102" type="curve" smooth="yes"/>
      <point x="405" y="1109"/>
      <point x="238" y="844"/>
      <point x="202" y="585" type="curve"/>
    </contour>
  </outline>
</glyph>
<glyph name="uni0236" format="2">
  <advance width="856"/>
  <unicode hex="0236"/>
  <outline>
    <contour>
      <point x="362" y="1348" type="curve"/>
      <point x="358" y="999"/>
      <point x="169" y="640"/>
      <point x="187" y="294" type="curve" smooth="yes"/>
      <point x="197" y="115"/>
      <point x="243" y="-18"/>
      <point x="453" y="-21" type="curve" smooth="yes"/>
      <point x="614" y="-24"/>
      <point x="758" y="83"/>
      <point x="766" y="251" type="curve" smooth="yes"/>
      <point x="773" y="402"/>
      <point x="670" y="503"/>
      <point x="522" y="505" type="curve" smooth="yes"/>
      <point x="404" y="507"/>
      <point x="283" y="447"/>
      <point x="196" y="372" type="curve"/>
      <point x="-57" y="134" type="line"/>
      <point x="-23" y="98"/>
      <point x="9" y="60"/>
      <point x="42" y="23" type="curve"/>
      <point x="208" y="183" type="line" smooth="yes"/>
      <point x="281" y="253"/>
      <point x="383" y="362"/>
      <point x="495" y="357" type="curve" smooth="yes"/>
      <point x="556" y="355"/>
      <point x="595" y="312"/>
      <point x="586" y="251" type="curve" smooth="yes"/>
      <point x="576" y="189"/>
      <point x="526" y="136"/>
      <point x="460" y="134" type="curve" smooth="yes"/>
      <point x="383" y="132"/>
      <point x="354" y="184"/>
      <point x="360" y="252" type="curve" smooth="yes"/>
      <point x="392" y="616"/>
      <point x="542" y="982"/>
      <point x="543" y="1348" type="curve"/>
      <point x="485" y="1344"/>
      <point x="419" y="1338"/>
    </contour>
    <contour>
      <point x="698" y="1082" type="line"/>
      <point x="130" y="1082" type="line"/>
      <point x="105" y="940" type="line"/>
      <point x="674" y="940" type="line"/>
    </contour>
  </outline>
</glyph>
<glyph name="uni0239" format="2">
  <advance width="1778"/>
  <unicode hex="0239"/>
  <outline>
    <contour>
      <point x="621" y="-416" type="line"/>
      <point x="802" y="-416" type="line"/>
      <point x="1024" y="863" type="line"/>
      <point x="1046" y="1082" type="line"/>
      <point x="895" y="1082" type="line"/>
      <point x="846" y="885" type="line"/>
    </contour>
    <contour>
      <point x="80" y="522" type="line" smooth="yes"/>
      <point x="54" y="282"/>
      <point x="129" y="-13"/>
      <point x="419" y="-21" type="curve" smooth="yes"/>
      <point x="708" y="-29"/>
      <point x="879" y="234"/>
      <point x="922" y="495" type="curve"/>
      <point x="936" y="590" type="line"/>
      <point x="950" y="833"/>
      <point x="858" y="1096"/>
      <point x="581" y="1102" type="curve" smooth="yes"/>
      <point x="270" y="1110"/>
      <point x="118" y="814"/>
      <point x="83" y="544" type="curve" smooth="yes"/>
    </contour>
    <contour>
      <point x="265" y="544" type="line" smooth="yes"/>
      <point x="292" y="731"/>
      <point x="395" y="958"/>
      <point x="618" y="951" type="curve" smooth="yes"/>
      <point x="770" y="946"/>
      <point x="868" y="806"/>
      <point x="862" y="660" type="curve"/>
      <point x="821" y="418" type="line"/>
      <point x="776" y="266"/>
      <point x="635" y="125"/>
      <point x="470" y="130" type="curve" smooth="yes"/>
      <point x="262" y="136"/>
      <point x="243" y="363"/>
      <point x="263" y="523" type="curve" smooth="yes"/>
    </contour>
    <contour>
      <point x="1676" y="556" type="line" smooth="yes"/>
      <point x="1704" y="801"/>
      <point x="1643" y="1095"/>
      <point x="1346" y="1102" type="curve" smooth="yes"/>
      <point x="1055" y="1110"/>
      <point x="886" y="846"/>
      <point x="840" y="585" type="curve"/>
      <point x="823" y="474" type="line"/>
      <point x="808" y="229"/>
      <point x="918" y="-15"/>
      <point x="1188" y="-21" type="curve" smooth="yes"/>
      <point x="1493" y="-28"/>
      <point x="1640" y="273"/>
      <point x="1674" y="535" type="curve" smooth="yes"/>
    </contour>
    <contour>
      <point x="1493" y="536" type="line" smooth="yes"/>
      <point x="1466" y="349"/>
      <point x="1363" y="125"/>
      <point x="1142" y="131" type="curve" smooth="yes"/>
      <point x="999" y="135"/>
      <point x="896" y="257"/>
      <point x="898" y="399" type="curve"/>
      <point x="942" y="660" type="line"/>
      <point x="983" y="814"/>
      <point x="1119" y="952"/>
      <point x="1285" y="947" type="curve" smooth="yes"/>
      <point x="1494" y="941"/>
      <point x="1516" y="718"/>
      <point x="1496" y="557" type="curve" smooth="yes"/>
    </contour>
  </outline>
</glyph>
<glyph name="uni023F" format="2">
  <advance width="1025"/>
  <unicode hex="023F"/>
  <outline>
    <contour>
      <point x="695" y="294" type="curve" smooth="yes"/>
      <point x="675" y="174"/>
      <point x="544" y="131"/>
      <point x="437" y="132" type="curve" smooth="yes"/>
      <point x="308" y="133"/>
      <point x="209" y="204"/>
      <point x="156" y="317" type="curve"/>
      <point x="28" y="247" type="line"/>
      <point x="193" y="-193" type="line" smooth="yes"/>
      <point x="239" y="-302"/>
      <point x="311" y="-435"/>
      <point x="448" y="-436" type="curve" smooth="yes"/>
      <point x="525" y="-436"/>
      <point x="599" y="-391"/>
      <point x="651" y="-338" type="curve"/>
      <point x="597" y="-227" type="line"/>
      <point x="555" y="-257"/>
      <point x="508" y="-287"/>
      <point x="454" y="-287" type="curve" smooth="yes"/>
      <point x="349" y="-287"/>
      <point x="312" y="-77"/>
      <point x="291" y="-7" type="curve"/>
      <point x="336" y="-16"/>
      <point x="383" y="-21"/>
      <point x="430" y="-22" type="curve" smooth="yes"/>
      <point x="633" y="-23"/>
      <point x="862" y="78"/>
      <point x="876" y="308" type="curve" smooth="yes"/>
      <point x="888" y="501"/>
      <point x="713" y="578"/>
      <point x="554" y="621" type="curve" smooth="yes"/>
      <point x="466" y="644"/>
      <point x="326" y="666"/>
      <point x="343" y="785" type="curve" smooth="yes"/>
      <point x="359" y="899"/>
      <point x="477" y="951"/>
      <point x="582" y="950" type="curve" smooth="yes"/>
      <point x="694" y="948"/>
      <point x="775" y="877"/>
      <point x="770" y="764" type="curve"/>
      <point x="950" y="764" type="line"/>
      <point x="957" y="978"/>
      <point x="791" y="1099"/>
      <point x="588" y="1102" type="curve" smooth="yes"/>
      <point x="395" y="1106"/>
      <point x="176" y="993"/>
      <point x="163" y="778" type="curve" smooth="yes"/>
      <point x="151" y="580"/>
      <point x="343" y="515"/>
      <point x="501" y="473" type="curve" smooth="yes"/>
      <point x="596" y="448"/>
      <point x="715" y="413"/>
    </contour>
  </outline>
</glyph>
<glyph name="uni0241" format="2">
  <advance width="1070"/>
  <unicode hex="0241"/>
  <outline>
    <contour>
      <point x="411" y="448" type="line"/>
      <point x="393" y="285" type="line"/>
      <point x="440" y="284" type="line" smooth="yes"/>
      <point x="758" y="286"/>
      <point x="955" y="526"/>
      <point x="998" y="826" type="curve" smooth="yes"/>
      <point x="1013" y="936" type="line" smooth="yes"/>
      <point x="1048" y="1210"/>
      <point x="921" y="1470"/>
      <point x="619" y="1476" type="curve" smooth="yes"/>
      <point x="374" y="1482"/>
      <point x="181" y="1313"/>
      <point x="146" y="1072" type="curve"/>
      <point x="323" y="1072" type="line"/>
      <point x="356" y="1212"/>
      <point x="457" y="1317"/>
      <point x="609" y="1313" type="curve" smooth="yes"/>
      <point x="821" y="1307"/>
      <point x="850" y="1106"/>
      <point x="827" y="937" type="curve" smooth="yes"/>
      <point x="811" y="826" type="line" smooth="yes"/>
      <point x="780" y="627"/>
      <point x="673" y="448"/>
      <point x="450" y="447" type="curve" smooth="yes"/>
    </contour>
    <contour>
      <point x="559" y="449" type="line"/>
      <point x="371" y="449" type="line"/>
      <point x="293" y="0" type="line"/>
      <point x="481" y="0" type="line"/>
    </contour>
  </outline>
</glyph>
<glyph name="uni0242" format="2">
  <advance width="946"/>
  <unicode hex="0242"/>
  <outline>
    <contour>
      <point x="80" y="700" type="curve"/>
      <point x="260" y="701" type="line"/>
      <point x="282" y="828"/>
      <point x="361" y="955"/>
      <point x="507" y="953" type="curve" smooth="yes"/>
      <point x="658" y="951"/>
      <point x="706" y="833"/>
      <point x="690" y="700" type="curve" smooth="yes"/>
      <point x="671" y="550"/>
      <point x="584" y="445"/>
      <point x="426" y="443" type="curve" smooth="yes"/>
      <point x="390" y="443" type="line"/>
      <point x="379" y="324" type="line"/>
      <point x="427" y="324" type="line" smooth="yes"/>
      <point x="665" y="326"/>
      <point x="852" y="446"/>
      <point x="873" y="695" type="curve" smooth="yes"/>
      <point x="894" y="938"/>
      <point x="764" y="1098"/>
      <point x="517" y="1103" type="curve" smooth="yes"/>
      <point x="277" y="1107"/>
      <point x="105" y="932"/>
    </contour>
    <contour>
      <point x="350" y="444" type="line"/>
      <point x="273" y="0" type="line"/>
      <point x="454" y="0" type="line"/>
      <point x="532" y="444" type="line"/>
    </contour>
  </outline>
</glyph>
<glyph name="uni024A" format="2">
  <advance width="1414"/>
  <unicode hex="024A"/>
  <outline>
    <contour>
      <point x="1232" y="738" type="line"/>
      <point x="1044" y="738" type="line"/>
      <point x="956" y="252" type="line"/>
      <point x="862" y="168"/>
      <point x="746" y="142"/>
      <point x="620" y="145" type="curve" smooth="yes"/>
      <point x="327" y="150"/>
      <point x="282" y="434"/>
      <point x="316" y="671" type="curve" smooth="yes"/>
      <point x="333" y="774" type="line"/>
      <point x="146" y="772" type="line"/>
      <point x="129" y="671" type="line" smooth="yes"/>
      <point x="78" y="324"/>
      <point x="224" y="-14"/>
      <point x="613" y="-20" type="curve" smooth="yes"/>
      <point x="805" y="-22"/>
      <point x="1025" y="29"/>
      <point x="1144" y="193" type="curve"/>
    </contour>
    <contour>
      <point x="1319" y="1263" type="line"/>
      <point x="1215" y="1424"/>
      <point x="1028" y="1474"/>
      <point x="845" y="1476" type="curve" smooth="yes"/>
      <point x="441" y="1481"/>
      <point x="205" y="1153"/>
      <point x="147" y="784" type="curve" smooth="yes"/>
      <point x="132" y="693" type="line"/>
      <point x="318" y="691" type="line"/>
      <point x="334" y="784" type="line" smooth="yes"/>
      <point x="382" y="1053"/>
      <point x="531" y="1319"/>
      <point x="838" y="1315" type="curve" smooth="yes"/>
      <point x="941" y="1314"/>
      <point x="1066" y="1299"/>
      <point x="1127" y="1206" type="curve"/>
      <point x="1037" y="699" type="line"/>
      <point x="1225" y="699" type="line"/>
    </contour>
    <contour>
      <point x="1357" y="1456" type="line"/>
      <point x="1210" y="1456" type="line"/>
      <point x="1137" y="1278" type="line"/>
      <point x="905" y="-64" type="line"/>
      <point x="1093" y="-64" type="line"/>
    </contour>
    <contour>
      <point x="910" y="-13" type="line"/>
      <point x="902" y="-89" type="line" smooth="yes"/>
      <point x="886" y="-257"/>
      <point x="931" y="-433"/>
      <point x="1129" y="-435" type="curve" smooth="yes"/>
      <point x="1166" y="-436"/>
      <point x="1201" y="-430"/>
      <point x="1236" y="-420" type="curve"/>
      <point x="1249" y="-267" type="line"/>
      <point x="1227" y="-271"/>
      <point x="1204" y="-275"/>
      <point x="1181" y="-275" type="curve" smooth="yes"/>
      <point x="1076" y="-271"/>
      <point x="1081" y="-172"/>
      <point x="1090" y="-91" type="curve" smooth="yes"/>
      <point x="1099" y="-14" type="line"/>
    </contour>
  </outline>
</glyph>
<glyph name="uni024B" format="2">
  <advance width="1174"/>
  <unicode hex="024B"/>
  <outline>
    <contour>
      <point x="675" y="-108" type="line"/>
      <point x="856" y="-108" type="line"/>
      <point x="1062" y="1082" type="line"/>
      <point x="895" y="1082" type="line"/>
      <point x="846" y="885" type="line"/>
    </contour>
    <contour>
      <point x="80" y="522" type="line" smooth="yes"/>
      <point x="53" y="282"/>
      <point x="129" y="-13"/>
      <point x="419" y="-21" type="curve" smooth="yes"/>
      <point x="708" y="-29"/>
      <point x="879" y="234"/>
      <point x="922" y="495" type="curve"/>
      <point x="936" y="590" type="line"/>
      <point x="950" y="833"/>
      <point x="858" y="1096"/>
      <point x="581" y="1102" type="curve" smooth="yes"/>
      <point x="270" y="1110"/>
      <point x="117" y="814"/>
      <point x="83" y="544" type="curve" smooth="yes"/>
    </contour>
    <contour>
      <point x="265" y="544" type="line" smooth="yes"/>
      <point x="292" y="732"/>
      <point x="395" y="958"/>
      <point x="618" y="951" type="curve" smooth="yes"/>
      <point x="770" y="946"/>
      <point x="869" y="806"/>
      <point x="862" y="660" type="curve"/>
      <point x="821" y="418" type="line"/>
      <point x="776" y="266"/>
      <point x="635" y="125"/>
      <point x="470" y="130" type="curve" smooth="yes"/>
      <point x="262" y="136"/>
      <point x="243" y="363"/>
      <point x="263" y="523" type="curve" smooth="yes"/>
    </contour>
    <contour>
      <point x="695" y="11" type="line"/>
      <point x="674" y="-135" type="line" smooth="yes"/>
      <point x="659" y="-296"/>
      <point x="753" y="-434"/>
      <point x="924" y="-435" type="curve" smooth="yes"/>
      <point x="955" y="-436"/>
      <point x="986" y="-431"/>
      <point x="1016" y="-424" type="curve"/>
      <point x="1025" y="-296" type="line"/>
      <point x="1005" y="-299"/>
      <point x="985" y="-302"/>
      <point x="964" y="-302" type="curve" smooth="yes"/>
      <point x="862" y="-299"/>
      <point x="844" y="-225"/>
      <point x="854" y="-137" type="curve" smooth="yes"/>
      <point x="877" y="10" type="line"/>
    </contour>
  </outline>
</glyph>
<glyph name="ccurl" format="2">
  <advance width="1051"/>
  <unicode hex="0255"/>
  <anchor x="686" y="1290" name="top"/>
  <anchor x="463" y="0" name="bottom"/>
  <anchor x="1171" y="1290" name="top0315"/>
  <outline>
    <contour>
      <point x="488" y="133" type="curve" smooth="yes"/>
      <point x="272" y="136"/>
      <point x="247" y="349"/>
      <point x="268" y="518" type="curve" smooth="yes"/>
      <point x="274" y="560" type="line" smooth="yes"/>
      <point x="301" y="751"/>
      <point x="409" y="958"/>
      <point x="631" y="951" type="curve" smooth="yes"/>
      <point x="770" y="946"/>
      <point x="839" y="839"/>
      <point x="838" y="710" type="curve"/>
      <point x="1008" y="709" type="line"/>
      <point x="1011" y="933"/>
      <point x="867" y="1097"/>
      <point x="639" y="1102" type="curve" smooth="yes"/>
      <point x="326" y="1109"/>
      <point x="131" y="850"/>
      <point x="95" y="560" type="curve" smooth="yes"/>
      <point x="89" y="517" type="line" smooth="yes"/>
      <point x="59" y="243"/>
      <point x="175" y="-15"/>
      <point x="481" y="-20" type="curve" smooth="yes"/>
      <point x="682" y="-24"/>
      <point x="922" y="94"/>
      <point x="934" y="319" type="curve" smooth="yes"/>
      <point x="942" y="472"/>
      <point x="829" y="544"/>
      <point x="689" y="547" type="curve" smooth="yes"/>
      <point x="447" y="554"/>
      <point x="257" y="339"/>
      <point x="109" y="177" type="curve" smooth="yes"/>
      <point x="-70" y="-17" type="line"/>
      <point x="48" y="-128" type="line"/>
      <point x="187" y="28" type="line" smooth="yes"/>
      <point x="296" y="151"/>
      <point x="484" y="405"/>
      <point x="675" y="396" type="curve" smooth="yes"/>
      <point x="734" y="393"/>
      <point x="770" y="360"/>
      <point x="762" y="300" type="curve" smooth="yes"/>
      <point x="748" y="179"/>
      <point x="591" y="131"/>
    </contour>
  </outline>
</glyph>
<glyph name="erev" format="2">
  <advance width="1053"/>
  <unicode hex="0258"/>
  <anchor x="855" y="654" name="rhotichook"/>
  <anchor x="623" y="1290" name="top"/>
  <anchor x="378" y="0" name="bottom"/>
  <anchor x="1173" y="1290" name="top0315"/>
  <outline>
    <contour>
      <point x="390" y="-20" type="curve" smooth="yes"/>
      <point x="696" y="-27"/>
      <point x="912" y="213"/>
      <point x="947" y="505" type="curve" smooth="yes"/>
      <point x="952" y="548" type="line" smooth="yes"/>
      <point x="977" y="803"/>
      <point x="870" y="1096"/>
      <point x="575" y="1103" type="curve" smooth="yes"/>
      <point x="261" y="1110"/>
      <point x="107" y="851"/>
      <point x="66" y="572" type="curve" smooth="yes"/>
      <point x="53" y="489" type="line"/>
      <point x="838" y="489" type="line"/>
      <point x="865" y="640" type="line"/>
      <point x="254" y="638" type="line"/>
      <point x="258" y="656" type="line" smooth="yes"/>
      <point x="298" y="807"/>
      <point x="389" y="956"/>
      <point x="567" y="952" type="curve" smooth="yes"/>
      <point x="774" y="946"/>
      <point x="791" y="702"/>
      <point x="773" y="547" type="curve" smooth="yes"/>
      <point x="768" y="505" type="line" smooth="yes"/>
      <point x="740" y="310"/>
      <point x="599" y="126"/>
      <point x="385" y="131" type="curve" smooth="yes"/>
      <point x="273" y="133"/>
      <point x="190" y="186"/>
      <point x="131" y="279" type="curve"/>
      <point x="14" y="189" type="line"/>
      <point x="99" y="53"/>
      <point x="229" y="-17"/>
    </contour>
  </outline>
</glyph>
<glyph name="schwa" format="2">
  <advance width="1047"/>
  <unicode hex="0259"/>
  <anchor x="870" y="654" name="rhotichook"/>
  <anchor x="662" y="1291" name="top"/>
  <anchor x="779" y="63" name="right"/>
  <anchor x="452" y="0" name="bottom"/>
  <anchor x="1167" y="1291" name="top0315"/>
  <outline>
    <contour>
      <point x="570" y="1103" type="curve" smooth="yes"/>
      <point x="434" y="1105"/>
      <point x="287" y="1069"/>
      <point x="187" y="972" type="curve"/>
      <point x="250" y="845" type="line"/>
      <point x="341" y="915"/>
      <point x="448" y="954"/>
      <point x="564" y="951" type="curve" smooth="yes"/>
      <point x="770" y="945"/>
      <point x="804" y="729"/>
      <point x="785" y="564" type="curve" smooth="yes"/>
      <point x="779" y="521" type="line" smooth="yes"/>
      <point x="755" y="354"/>
      <point x="644" y="126"/>
      <point x="443" y="131" type="curve" smooth="yes"/>
      <point x="286" y="136"/>
      <point x="224" y="266"/>
      <point x="248" y="406" type="curve" smooth="yes"/>
      <point x="253" y="434" type="line"/>
      <point x="837" y="434" type="line"/>
      <point x="863" y="585" type="line"/>
      <point x="92" y="585" type="line"/>
      <point x="74" y="463" type="line" smooth="yes"/>
      <point x="41" y="206"/>
      <point x="155" y="-13"/>
      <point x="433" y="-20" type="curve" smooth="yes"/>
      <point x="725" y="-27"/>
      <point x="926" y="256"/>
      <point x="958" y="520" type="curve" smooth="yes"/>
      <point x="963" y="565" type="line" smooth="yes"/>
      <point x="991" y="835"/>
      <point x="871" y="1098"/>
    </contour>
  </outline>
</glyph>
<glyph name="schwahook" format="2">
  <advance width="1381"/>
  <unicode hex="025A"/>
  <anchor x="661" y="1290" name="top"/>
  <anchor x="452" y="0" name="bottom"/>
  <anchor x="1500" y="1290" name="top0315"/>
  <outline>
    <contour>
      <point x="553" y="1102" type="curve" smooth="yes"/>
      <point x="386" y="1105"/>
      <point x="233" y="1033"/>
      <point x="136" y="895" type="curve"/>
      <point x="242" y="806" type="line"/>
      <point x="321" y="893"/>
      <point x="417" y="954"/>
      <point x="539" y="951" type="curve" smooth="yes"/>
      <point x="741" y="946"/>
      <point x="798" y="751"/>
      <point x="778" y="580" type="curve" smooth="yes"/>
      <point x="773" y="539" type="line" smooth="yes"/>
      <point x="747" y="355"/>
      <point x="644" y="123"/>
      <point x="422" y="131" type="curve" smooth="yes"/>
      <point x="257" y="137"/>
      <point x="204" y="282"/>
      <point x="227" y="426" type="curve" smooth="yes"/>
      <point x="233" y="457" type="line"/>
      <point x="806" y="567" type="line"/>
      <point x="833" y="726" type="line"/>
      <point x="61" y="575" type="line"/>
      <point x="55" y="510" type="line" smooth="yes"/>
      <point x="30" y="248"/>
      <point x="111" y="-13"/>
      <point x="413" y="-20" type="curve" smooth="yes"/>
      <point x="720" y="-27"/>
      <point x="919" y="260"/>
      <point x="952" y="538" type="curve" smooth="yes"/>
      <point x="957" y="582" type="line" smooth="yes"/>
      <point x="984" y="853"/>
      <point x="848" y="1097"/>
    </contour>
    <contour>
      <point x="874" y="581" type="line"/>
      <point x="1017" y="610" type="line"/>
      <point x="1023" y="483"/>
      <point x="1064" y="357"/>
      <point x="1213" y="356" type="curve" smooth="yes"/>
      <point x="1255" y="356"/>
      <point x="1294" y="368"/>
      <point x="1331" y="386" type="curve"/>
      <point x="1318" y="504" type="line"/>
      <point x="1296" y="501"/>
      <point x="1275" y="499"/>
      <point x="1253" y="500" type="curve" smooth="yes"/>
      <point x="1135" y="506"/>
      <point x="1156" y="711"/>
      <point x="1154" y="788" type="curve"/>
      <point x="902" y="741" type="line"/>
    </contour>
  </outline>
</glyph>
<glyph name="jdotlessbar" format="2">
  <advance width="647"/>
  <unicode hex="025F"/>
  <anchor x="486" y="1290" name="top"/>
  <anchor x="185" y="-447" name="bottom"/>
  <anchor x="766" y="1290" name="top0315"/>
  <outline>
    <contour>
      <point x="561" y="151" type="line"/>
      <point x="-10" y="151" type="line"/>
      <point x="-36" y="0" type="line"/>
      <point x="534" y="0" type="line"/>
    </contour>
    <contour>
      <point x="355" y="1082" type="line"/>
      <point x="148" y="-129" type="line" smooth="yes"/>
      <point x="132" y="-216"/>
      <point x="89" y="-283"/>
      <point x="-8" y="-283" type="curve" smooth="yes"/>
      <point x="-36" y="-283"/>
      <point x="-64" y="-278"/>
      <point x="-91" y="-272" type="curve"/>
      <point x="-106" y="-421" type="line"/>
      <point x="-67" y="-431"/>
      <point x="-28" y="-439"/>
      <point x="13" y="-440" type="curve" smooth="yes"/>
      <point x="208" y="-443"/>
      <point x="308" y="-311"/>
      <point x="331" y="-129" type="curve" smooth="yes"/>
      <point x="536" y="1082" type="line"/>
    </contour>
  </outline>
</glyph>
<glyph name="Gsmallcap" format="2">
  <advance width="1194"/>
  <unicode hex="0262"/>
  <anchor x="727" y="1290" name="top"/>
  <anchor x="504" y="0" name="bottom"/>
  <anchor x="1313" y="1290" name="top0315"/>
  <outline>
    <contour>
      <point x="1072" y="547" type="line"/>
      <point x="619" y="547" type="line"/>
      <point x="592" y="397" type="line"/>
      <point x="849" y="397" type="line"/>
      <point x="812" y="203" type="line"/>
      <point x="728" y="148"/>
      <point x="624" y="129"/>
      <point x="523" y="132" type="curve" smooth="yes"/>
      <point x="336" y="136"/>
      <point x="247" y="286"/>
      <point x="270" y="460" type="curve" smooth="yes"/>
      <point x="295" y="625" type="line" smooth="yes"/>
      <point x="326" y="811"/>
      <point x="478" y="957"/>
      <point x="672" y="953" type="curve" smooth="yes"/>
      <point x="816" y="950"/>
      <point x="901" y="881"/>
      <point x="906" y="737" type="curve"/>
      <point x="1085" y="737" type="line"/>
      <point x="1075" y="976"/>
      <point x="912" y="1098"/>
      <point x="679" y="1102" type="curve" smooth="yes"/>
      <point x="390" y="1107"/>
      <point x="153" y="910"/>
      <point x="112" y="624" type="curve" smooth="yes"/>
      <point x="90" y="461" type="line" smooth="yes"/>
      <point x="57" y="185"/>
      <point x="245" y="-15"/>
      <point x="519" y="-19" type="curve" smooth="yes"/>
      <point x="679" y="-22"/>
      <point x="908" y="19"/>
      <point x="1011" y="157" type="curve"/>
    </contour>
  </outline>
</glyph>
<glyph name="hturn" format="2">
  <advance width="1095"/>
  <unicode hex="0265"/>
  <anchor x="665" y="1290" name="top"/>
  <anchor x="365" y="-447" name="bottom"/>
  <anchor x="1214" y="1290" name="top0315"/>
  <outline>
    <contour>
      <point x="602" y="-416" type="line"/>
      <point x="783" y="-416" type="line"/>
      <point x="1043" y="1082" type="line"/>
      <point x="862" y="1082" type="line"/>
    </contour>
    <contour>
      <point x="797" y="503" type="line"/>
      <point x="768" y="324"/>
      <point x="647" y="130"/>
      <point x="442" y="135" type="curve" smooth="yes"/>
      <point x="296" y="139"/>
      <point x="262" y="241"/>
      <point x="277" y="370" type="curve" smooth="yes"/>
      <point x="397" y="1082" type="line"/>
      <point x="216" y="1082" type="line"/>
      <point x="97" y="373" type="line" smooth="yes"/>
      <point x="73" y="161"/>
      <point x="146" y="-16"/>
      <point x="380" y="-21" type="curve" smooth="yes"/>
      <point x="675" y="-26"/>
      <point x="830" y="240"/>
      <point x="863" y="501" type="curve"/>
    </contour>
  </outline>
</glyph>
<glyph name="hhook" format="2">
  <advance width="1094"/>
  <unicode hex="0266"/>
  <anchor x="793" y="1700" name="top"/>
  <anchor x="446" y="0" name="bottom"/>
  <anchor x="1284" y="1700" name="top0315"/>
  <outline>
    <contour>
      <point x="415" y="1163" type="line"/>
      <point x="234" y="1163" type="line"/>
      <point x="32" y="0" type="line"/>
      <point x="213" y="0" type="line"/>
    </contour>
    <contour>
      <point x="272" y="583" type="line"/>
      <point x="307" y="760"/>
      <point x="430" y="954"/>
      <point x="634" y="948" type="curve" smooth="yes"/>
      <point x="780" y="945"/>
      <point x="814" y="841"/>
      <point x="798" y="712" type="curve" smooth="yes"/>
      <point x="678" y="0" type="line"/>
      <point x="859" y="0" type="line"/>
      <point x="978" y="709" type="line" smooth="yes"/>
      <point x="1000" y="920"/>
      <point x="928" y="1097"/>
      <point x="695" y="1102" type="curve" smooth="yes"/>
      <point x="405" y="1108"/>
      <point x="237" y="844"/>
      <point x="202" y="585" type="curve"/>
    </contour>
    <contour>
      <point x="407" y="1120" type="line"/>
      <point x="429" y="1260" type="line" smooth="yes"/>
      <point x="447" y="1361"/>
      <point x="505" y="1432"/>
      <point x="615" y="1429" type="curve" smooth="yes"/>
      <point x="634" y="1429"/>
      <point x="653" y="1425"/>
      <point x="672" y="1420" type="curve"/>
      <point x="685" y="1547" type="line"/>
      <point x="651" y="1556"/>
      <point x="616" y="1563"/>
      <point x="580" y="1564" type="curve" smooth="yes"/>
      <point x="396" y="1567"/>
      <point x="267" y="1436"/>
      <point x="244" y="1259" type="curve" smooth="yes"/>
      <point x="226" y="1120" type="line"/>
    </contour>
  </outline>
</glyph>
<glyph name="henghook" format="2">
  <advance width="1094"/>
  <unicode hex="0267"/>
  <anchor x="793" y="1700" name="top"/>
  <anchor x="368" y="-447" name="bottom"/>
  <anchor x="1284" y="1700" name="top0315"/>
  <outline>
    <contour>
      <point x="693" y="84" type="line"/>
      <point x="669" y="-64" type="line" smooth="yes"/>
      <point x="651" y="-166"/>
      <point x="593" y="-237"/>
      <point x="483" y="-234" type="curve" smooth="yes"/>
      <point x="463" y="-233"/>
      <point x="445" y="-229"/>
      <point x="426" y="-224" type="curve"/>
      <point x="413" y="-352" type="line"/>
      <point x="447" y="-361"/>
      <point x="482" y="-368"/>
      <point x="518" y="-369" type="curve" smooth="yes"/>
      <point x="702" y="-372"/>
      <point x="830" y="-241"/>
      <point x="853" y="-64" type="curve" smooth="yes"/>
      <point x="874" y="84" type="line"/>
    </contour>
    <contour>
      <point x="415" y="1163" type="line"/>
      <point x="234" y="1163" type="line"/>
      <point x="32" y="0" type="line"/>
      <point x="213" y="0" type="line"/>
    </contour>
    <contour>
      <point x="272" y="583" type="line"/>
      <point x="307" y="760"/>
      <point x="431" y="954"/>
      <point x="634" y="948" type="curve" smooth="yes"/>
      <point x="781" y="945"/>
      <point x="814" y="841"/>
      <point x="798" y="712" type="curve" smooth="yes"/>
      <point x="678" y="0" type="line"/>
      <point x="859" y="0" type="line"/>
      <point x="978" y="709" type="line" smooth="yes"/>
      <point x="1001" y="921"/>
      <point x="928" y="1097"/>
      <point x="695" y="1102" type="curve" smooth="yes"/>
      <point x="405" y="1108"/>
      <point x="237" y="844"/>
      <point x="202" y="585" type="curve"/>
    </contour>
    <contour>
      <point x="407" y="1120" type="line"/>
      <point x="429" y="1260" type="line" smooth="yes"/>
      <point x="447" y="1361"/>
      <point x="505" y="1432"/>
      <point x="615" y="1429" type="curve" smooth="yes"/>
      <point x="634" y="1429"/>
      <point x="653" y="1425"/>
      <point x="672" y="1420" type="curve"/>
      <point x="685" y="1547" type="line"/>
      <point x="651" y="1556"/>
      <point x="616" y="1563"/>
      <point x="580" y="1564" type="curve" smooth="yes"/>
      <point x="396" y="1567"/>
      <point x="267" y="1436"/>
      <point x="244" y="1259" type="curve" smooth="yes"/>
      <point x="226" y="1120" type="line"/>
    </contour>
  </outline>
</glyph>
<glyph name="mturndescend" format="2">
  <advance width="1742"/>
  <unicode hex="0270"/>
  <anchor x="995" y="1290" name="top"/>
  <anchor x="695" y="-447" name="bottom"/>
  <anchor x="1861" y="1290" name="top0315"/>
  <outline>
    <contour>
      <point x="1359" y="215" type="line"/>
      <point x="1250" y="-416" type="line"/>
      <point x="1431" y="-416" type="line"/>
      <point x="1691" y="1082" type="line"/>
      <point x="1510" y="1082" type="line"/>
    </contour>
    <contour>
      <point x="1439" y="503" type="line"/>
      <point x="1412" y="316"/>
      <point x="1323" y="130"/>
      <point x="1105" y="136" type="curve" smooth="yes"/>
      <point x="960" y="139"/>
      <point x="909" y="234"/>
      <point x="926" y="369" type="curve" smooth="yes"/>
      <point x="1046" y="1082" type="line"/>
      <point x="864" y="1082" type="line"/>
      <point x="744" y="361" type="line" smooth="yes"/>
      <point x="721" y="154"/>
      <point x="807" y="-17"/>
      <point x="1031" y="-21" type="curve" smooth="yes"/>
      <point x="1337" y="-27"/>
      <point x="1480" y="231"/>
      <point x="1514" y="501" type="curve"/>
    </contour>
    <contour>
      <point x="743" y="398" type="line"/>
      <point x="717" y="251"/>
      <point x="617" y="133"/>
      <point x="457" y="135" type="curve" smooth="yes"/>
      <point x="307" y="137"/>
      <point x="263" y="230"/>
      <point x="279" y="368" type="curve" smooth="yes"/>
      <point x="399" y="1082" type="line"/>
      <point x="218" y="1082" type="line"/>
      <point x="99" y="371" type="line" smooth="yes"/>
      <point x="74" y="152"/>
      <point x="161" y="-17"/>
      <point x="397" y="-21" type="curve" smooth="yes"/>
      <point x="661" y="-26"/>
      <point x="840" y="188"/>
      <point x="873" y="435" type="curve"/>
    </contour>
  </outline>
</glyph>
<glyph name="omegaclosed" format="2">
  <advance width="1635"/>
  <unicode hex="0277"/>
  <anchor x="935" y="1290" name="top"/>
  <anchor x="712" y="0" name="bottom"/>
  <anchor x="1754" y="1290" name="top0315"/>
  <outline>
    <contour>
      <point x="900" y="1102" type="line"/>
      <point x="516" y="1097"/>
      <point x="151" y="902"/>
      <point x="100" y="489" type="curve" smooth="yes"/>
      <point x="72" y="263"/>
      <point x="144" y="-14"/>
      <point x="415" y="-22" type="curve" smooth="yes"/>
      <point x="693" y="-29"/>
      <point x="802" y="239"/>
      <point x="836" y="473" type="curve" smooth="yes"/>
      <point x="867" y="666" type="line"/>
      <point x="739" y="666" type="line"/>
      <point x="708" y="471" type="line" smooth="yes"/>
      <point x="687" y="323"/>
      <point x="620" y="119"/>
      <point x="434" y="130" type="curve" smooth="yes"/>
      <point x="267" y="139"/>
      <point x="267" y="372"/>
      <point x="283" y="491" type="curve" smooth="yes"/>
      <point x="325" y="806"/>
      <point x="585" y="947"/>
      <point x="884" y="950" type="curve"/>
    </contour>
    <contour>
      <point x="881" y="949" type="line"/>
      <point x="1170" y="941"/>
      <point x="1357" y="807"/>
      <point x="1316" y="504" type="curve" smooth="yes"/>
      <point x="1297" y="361"/>
      <point x="1227" y="126"/>
      <point x="1044" y="129" type="curve" smooth="yes"/>
      <point x="869" y="132"/>
      <point x="875" y="346"/>
      <point x="890" y="470" type="curve" smooth="yes"/>
      <point x="920" y="666" type="line"/>
      <point x="792" y="666" type="line"/>
      <point x="761" y="473" type="line" smooth="yes"/>
      <point x="735" y="259"/>
      <point x="775" y="-16"/>
      <point x="1042" y="-22" type="curve" smooth="yes"/>
      <point x="1328" y="-29"/>
      <point x="1465" y="257"/>
      <point x="1496" y="504" type="curve" smooth="yes"/>
      <point x="1543" y="889"/>
      <point x="1246" y="1092"/>
      <point x="891" y="1102" type="curve"/>
    </contour>
  </outline>
</glyph>
<glyph name="philatin" format="2">
  <advance width="1133"/>
  <unicode hex="0278"/>
  <anchor x="739" y="1600" name="top"/>
  <anchor x="385" y="-447" name="bottom"/>
  <anchor x="1306" y="1600" name="top0315"/>
  <outline>
    <contour>
      <point x="77" y="522" type="line" smooth="yes"/>
      <point x="47" y="250"/>
      <point x="175" y="-14"/>
      <point x="476" y="-21" type="curve" smooth="yes"/>
      <point x="792" y="-28"/>
      <point x="995" y="239"/>
      <point x="1033" y="531" type="curve" smooth="yes"/>
      <point x="1036" y="554" type="line" smooth="yes"/>
      <point x="1066" y="827"/>
      <point x="941" y="1096"/>
      <point x="637" y="1103" type="curve" smooth="yes"/>
      <point x="319" y="1110"/>
      <point x="117" y="837"/>
      <point x="80" y="545" type="curve" smooth="yes"/>
    </contour>
    <contour>
      <point x="263" y="546" type="line" smooth="yes"/>
      <point x="290" y="736"/>
      <point x="406" y="958"/>
      <point x="628" y="951" type="curve" smooth="yes"/>
      <point x="839" y="945"/>
      <point x="875" y="721"/>
      <point x="855" y="554" type="curve" smooth="yes"/>
      <point x="851" y="531" type="line" smooth="yes"/>
      <point x="824" y="341"/>
      <point x="706" y="123"/>
      <point x="484" y="130" type="curve" smooth="yes"/>
      <point x="274" y="136"/>
      <point x="239" y="356"/>
      <point x="259" y="523" type="curve" smooth="yes"/>
    </contour>
    <contour>
      <point x="300" y="-416" type="line"/>
      <point x="481" y="-416" type="line"/>
      <point x="819" y="1536" type="line"/>
      <point x="638" y="1536" type="line"/>
    </contour>
  </outline>
</glyph>
<glyph name="rturnascend" format="2">
  <advance width="673"/>
  <unicode hex="027A"/>
  <anchor x="402" y="1600" name="top"/>
  <anchor x="125" y="0" name="bottom"/>
  <anchor x="846" y="1600" name="top0315"/>
  <outline>
    <contour>
      <point x="284" y="180" type="line"/>
      <point x="258" y="0" type="line"/>
      <point x="434" y="0" type="line"/>
      <point x="700" y="1536" type="line"/>
      <point x="519" y="1536" type="line"/>
    </contour>
    <contour>
      <point x="-72" y="-7" type="line"/>
      <point x="-43" y="-15"/>
      <point x="-14" y="-21"/>
      <point x="16" y="-22" type="curve" smooth="yes"/>
      <point x="278" y="-29"/>
      <point x="381" y="241"/>
      <point x="410" y="457" type="curve"/>
      <point x="353" y="428" type="line"/>
      <point x="307" y="275"/>
      <point x="207" y="154"/>
      <point x="34" y="156" type="curve" smooth="yes"/>
      <point x="5" y="156"/>
      <point x="-23" y="160"/>
      <point x="-52" y="165" type="curve"/>
    </contour>
  </outline>
</glyph>
<glyph name="rdescend" format="2">
  <advance width="673"/>
  <unicode hex="027C"/>
  <anchor x="573" y="1290" name="top"/>
  <anchor x="273" y="-447" name="bottom"/>
  <anchor x="792" y="1290" name="top0315"/>
  <outline>
    <contour>
      <point x="369" y="902" type="line"/>
      <point x="395" y="1082" type="line"/>
      <point x="220" y="1082" type="line"/>
      <point x="-40" y="-416" type="line"/>
      <point x="141" y="-416" type="line"/>
    </contour>
    <contour>
      <point x="725" y="1089" type="line"/>
      <point x="696" y="1097"/>
      <point x="668" y="1104"/>
      <point x="638" y="1104" type="curve" smooth="yes"/>
      <point x="376" y="1111"/>
      <point x="273" y="841"/>
      <point x="244" y="625" type="curve"/>
      <point x="299" y="654" type="line"/>
      <point x="346" y="807"/>
      <point x="445" y="928"/>
      <point x="619" y="926" type="curve" smooth="yes"/>
      <point x="648" y="926"/>
      <point x="677" y="922"/>
      <point x="705" y="917" type="curve"/>
    </contour>
  </outline>
</glyph>
<glyph name="rfishhookrev" format="2">
  <advance width="553"/>
  <unicode hex="027F"/>
  <anchor x="449" y="1290" name="top"/>
  <anchor x="149" y="-447" name="bottom"/>
  <anchor x="673" y="1290" name="top0315"/>
  <outline>
    <contour>
      <point x="242" y="-416" type="line"/>
      <point x="448" y="800" type="line" smooth="yes"/>
      <point x="464" y="961"/>
      <point x="370" y="1099"/>
      <point x="199" y="1101" type="curve" smooth="yes"/>
      <point x="168" y="1101"/>
      <point x="138" y="1096"/>
      <point x="107" y="1090" type="curve"/>
      <point x="98" y="961" type="line"/>
      <point x="118" y="964"/>
      <point x="138" y="967"/>
      <point x="159" y="967" type="curve" smooth="yes"/>
      <point x="260" y="964"/>
      <point x="279" y="890"/>
      <point x="269" y="802" type="curve" smooth="yes"/>
      <point x="61" y="-416" type="line"/>
    </contour>
  </outline>
</glyph>
<glyph name="Rsmallcapinv" format="2">
  <advance width="1088"/>
  <unicode hex="0281"/>
  <anchor x="678" y="1290" name="top"/>
  <anchor x="455" y="0" name="bottom"/>
  <anchor x="1207" y="1290" name="top0315"/>
  <outline>
    <contour>
      <point x="700" y="566" type="line"/>
      <point x="1093" y="1082" type="line"/>
      <point x="886" y="1082" type="line"/>
      <point x="492" y="566" type="line"/>
    </contour>
    <contour>
      <point x="457" y="0" type="line" smooth="yes"/>
      <point x="667" y="-2"/>
      <point x="885" y="104"/>
      <point x="901" y="337" type="curve" smooth="yes"/>
      <point x="914" y="542"/>
      <point x="760" y="654"/>
      <point x="568" y="659" type="curve" smooth="yes"/>
      <point x="251" y="661" type="line"/>
      <point x="225" y="509" type="line"/>
      <point x="566" y="508" type="line" smooth="yes"/>
      <point x="667" y="504"/>
      <point x="736" y="444"/>
      <point x="720" y="339" type="curve" smooth="yes"/>
      <point x="700" y="211"/>
      <point x="579" y="151"/>
      <point x="460" y="149" type="curve" smooth="yes"/>
      <point x="212" y="150" type="line"/>
      <point x="374" y="1082" type="line"/>
      <point x="193" y="1082" type="line"/>
      <point x="5" y="0" type="line"/>
    </contour>
  </outline>
</glyph>
<glyph name="eshcurl" format="2">
  <advance width="907"/>
  <unicode hex="0286"/>
  <anchor x="919" y="1700" name="top"/>
  <anchor x="137" y="-447" name="bottom"/>
  <anchor x="1097" y="1700" name="top0315"/>
  <outline>
    <contour>
      <point x="546" y="220" type="curve"/>
      <point x="487" y="218"/>
      <point x="424" y="214"/>
      <point x="365" y="220" type="curve"/>
      <point x="360" y="94"/>
      <point x="331" y="-41"/>
      <point x="307" y="-165" type="curve" smooth="yes"/>
      <point x="293" y="-237"/>
      <point x="240" y="-291"/>
      <point x="162" y="-289" type="curve" smooth="yes"/>
      <point x="101" y="-287"/>
      <point x="69" y="-239"/>
      <point x="77" y="-181" type="curve" smooth="yes"/>
      <point x="86" y="-114"/>
      <point x="144" y="-66"/>
      <point x="212" y="-66" type="curve" smooth="yes"/>
      <point x="311" y="-65"/>
      <point x="390" y="-167"/>
      <point x="443" y="-236" type="curve" smooth="yes"/>
      <point x="561" y="-396" type="line"/>
      <point x="599" y="-359"/>
      <point x="641" y="-324"/>
      <point x="677" y="-285" type="curve"/>
      <point x="485" y="-48" type="line"/>
      <point x="412" y="31"/>
      <point x="303" y="88"/>
      <point x="193" y="90" type="curve" smooth="yes"/>
      <point x="31" y="93"/>
      <point x="-98" y="-16"/>
      <point x="-105" y="-181" type="curve" smooth="yes"/>
      <point x="-113" y="-337"/>
      <point x="8" y="-436"/>
      <point x="157" y="-438" type="curve" smooth="yes"/>
      <point x="353" y="-442"/>
      <point x="469" y="-308"/>
      <point x="495" y="-123" type="curve" smooth="yes"/>
      <point x="510" y="-9"/>
      <point x="541" y="105"/>
    </contour>
    <contour>
      <point x="514" y="0" type="line"/>
      <point x="719" y="1197" type="line" smooth="yes"/>
      <point x="739" y="1316"/>
      <point x="816" y="1403"/>
      <point x="943" y="1402" type="curve" smooth="yes"/>
      <point x="976" y="1402"/>
      <point x="1008" y="1397"/>
      <point x="1040" y="1391" type="curve"/>
      <point x="1062" y="1543" type="line"/>
      <point x="1019" y="1552"/>
      <point x="976" y="1559"/>
      <point x="932" y="1559" type="curve" smooth="yes"/>
      <point x="705" y="1561"/>
      <point x="565" y="1415"/>
      <point x="536" y="1195" type="curve" smooth="yes"/>
      <point x="332" y="0" type="line"/>
    </contour>
  </outline>
</glyph>
<glyph name="tturn" format="2">
  <advance width="650"/>
  <unicode hex="0287"/>
  <anchor x="401" y="1600" name="top"/>
  <anchor x="257" y="0" name="bottom"/>
  <anchor x="822" y="1600" name="top0315"/>
  <outline>
    <contour>
      <point x="14" y="263" type="line"/>
      <point x="583" y="263" type="line"/>
      <point x="608" y="405" type="line"/>
      <point x="39" y="405" type="line"/>
    </contour>
    <contour>
      <point x="346" y="0" type="line"/>
      <point x="527" y="1075" type="line" smooth="yes"/>
      <point x="541" y="1223"/>
      <point x="490" y="1360"/>
      <point x="323" y="1363" type="curve" smooth="yes"/>
      <point x="279" y="1364"/>
      <point x="234" y="1358"/>
      <point x="191" y="1345" type="curve"/>
      <point x="178" y="1193" type="line"/>
      <point x="206" y="1199"/>
      <point x="235" y="1204"/>
      <point x="264" y="1203" type="curve" smooth="yes"/>
      <point x="343" y="1202"/>
      <point x="356" y="1147"/>
      <point x="349" y="1078" type="curve" smooth="yes"/>
      <point x="165" y="0" type="line"/>
    </contour>
  </outline>
</glyph>
<glyph name="upsilonlatin" format="2">
  <advance width="1211"/>
  <unicode hex="028A"/>
  <anchor x="726" y="1290" name="top"/>
  <anchor x="503" y="0" name="bottom"/>
  <anchor x="1330" y="1290" name="top0315"/>
  <outline>
    <contour>
      <point x="522" y="130" type="curve" smooth="yes"/>
      <point x="341" y="133"/>
      <point x="231" y="242"/>
      <point x="261" y="423" type="curve" smooth="yes"/>
      <point x="289" y="590"/>
      <point x="444" y="710"/>
      <point x="462" y="874" type="curve" smooth="yes"/>
      <point x="480" y="1044"/>
      <point x="328" y="1095"/>
      <point x="187" y="1101" type="curve"/>
      <point x="172" y="950" type="line"/>
      <point x="237" y="947"/>
      <point x="288" y="929"/>
      <point x="279" y="853" type="curve" smooth="yes"/>
      <point x="260" y="687"/>
      <point x="92" y="568"/>
      <point x="72" y="388" type="curve" smooth="yes"/>
      <point x="40" y="105"/>
      <point x="256" y="-18"/>
      <point x="514" y="-21" type="curve" smooth="yes"/>
      <point x="790" y="-25"/>
      <point x="1046" y="104"/>
      <point x="1076" y="401" type="curve" smooth="yes"/>
      <point x="1092" y="549"/>
      <point x="982" y="702"/>
      <point x="1011" y="839" type="curve" smooth="yes"/>
      <point x="1029" y="921"/>
      <point x="1095" y="949"/>
      <point x="1171" y="952" type="curve"/>
      <point x="1187" y="1104" type="line"/>
      <point x="1027" y="1098"/>
      <point x="849" y="1052"/>
      <point x="834" y="862" type="curve" smooth="yes"/>
      <point x="822" y="716"/>
      <point x="927" y="590"/>
      <point x="903" y="437" type="curve" smooth="yes"/>
      <point x="873" y="242"/>
      <point x="716" y="127"/>
    </contour>
  </outline>
</glyph>
<glyph name="vscript" format="2">
  <advance width="1063"/>
  <unicode hex="028B"/>
  <anchor x="650" y="1290" name="top"/>
  <anchor x="427" y="0" name="bottom"/>
  <anchor x="1183" y="1290" name="top0315"/>
  <outline>
    <contour>
      <point x="448" y="138" type="line"/>
      <point x="276" y="148"/>
      <point x="271" y="300"/>
      <point x="290" y="442" type="curve" smooth="yes"/>
      <point x="397" y="1082" type="line"/>
      <point x="216" y="1082" type="line"/>
      <point x="109" y="445" type="line" smooth="yes"/>
      <point x="81" y="201"/>
      <point x="167" y="-8"/>
      <point x="434" y="-20" type="curve"/>
    </contour>
    <contour>
      <point x="429" y="-21" type="line"/>
      <point x="720" y="-17"/>
      <point x="869" y="166"/>
      <point x="908" y="445" type="curve" smooth="yes"/>
      <point x="964" y="801" type="line" smooth="yes"/>
      <point x="979" y="937"/>
      <point x="972" y="1095"/>
      <point x="802" y="1099" type="curve" smooth="yes"/>
      <point x="730" y="1101"/>
      <point x="658" y="1081"/>
      <point x="592" y="1058" type="curve"/>
      <point x="602" y="911" type="line"/>
      <point x="642" y="920"/>
      <point x="683" y="932"/>
      <point x="724" y="930" type="curve" smooth="yes"/>
      <point x="793" y="927"/>
      <point x="791" y="860"/>
      <point x="784" y="807" type="curve" smooth="yes"/>
      <point x="727" y="442" type="line" smooth="yes"/>
      <point x="702" y="278"/>
      <point x="630" y="136"/>
      <point x="446" y="135" type="curve"/>
    </contour>
  </outline>
</glyph>
<glyph name="yturn" format="2">
  <advance width="940"/>
  <unicode hex="028E"/>
  <anchor x="634" y="1600" name="top"/>
  <anchor x="357" y="0" name="bottom"/>
  <anchor x="1113" y="1600" name="top0315"/>
  <outline>
    <contour>
      <point x="569" y="959" type="line"/>
      <point x="685" y="1181" type="line" smooth="yes"/>
      <point x="742" y="1292"/>
      <point x="815" y="1364"/>
      <point x="947" y="1359" type="curve" smooth="yes"/>
      <point x="962" y="1359"/>
      <point x="977" y="1356"/>
      <point x="993" y="1354" type="curve"/>
      <point x="1008" y="1504" type="line"/>
      <point x="973" y="1512"/>
      <point x="936" y="1521"/>
      <point x="899" y="1522" type="curve" smooth="yes"/>
      <point x="727" y="1525"/>
      <point x="618" y="1392"/>
      <point x="549" y="1250" type="curve" smooth="yes"/>
      <point x="-87" y="0" type="line"/>
      <point x="114" y="0" type="line"/>
    </contour>
    <contour>
      <point x="619" y="0" type="line"/>
      <point x="809" y="0" type="line"/>
      <point x="614" y="1106" type="line"/>
      <point x="478" y="1041" type="line"/>
      <point x="492" y="850" type="line"/>
    </contour>
  </outline>
</glyph>
<glyph name="zcurl" format="2">
  <advance width="1189"/>
  <unicode hex="0291"/>
  <anchor x="589" y="1290" name="top"/>
  <anchor x="288" y="-447" name="bottom"/>
  <anchor x="1308" y="1290" name="top0315"/>
  <outline>
    <contour>
      <point x="541" y="0" type="line"/>
      <point x="667" y="0" type="line" smooth="yes"/>
      <point x="864" y="-1"/>
      <point x="1098" y="111"/>
      <point x="1110" y="336" type="curve" smooth="yes"/>
      <point x="1118" y="476"/>
      <point x="1024" y="561"/>
      <point x="889" y="565" type="curve" smooth="yes"/>
      <point x="610" y="572"/>
      <point x="413" y="202"/>
      <point x="259" y="20" type="curve" smooth="yes"/>
      <point x="156" y="-96" type="line"/>
      <point x="276" y="-201" type="line"/>
      <point x="454" y="12" type="line" smooth="yes"/>
      <point x="538" y="117"/>
      <point x="700" y="426"/>
      <point x="868" y="414" type="curve" smooth="yes"/>
      <point x="922" y="411"/>
      <point x="944" y="374"/>
      <point x="937" y="323" type="curve" smooth="yes"/>
      <point x="923" y="200"/>
      <point x="774" y="153"/>
      <point x="670" y="151" type="curve" smooth="yes"/>
      <point x="567" y="151" type="line"/>
    </contour>
    <contour>
      <point x="638" y="151" type="line"/>
      <point x="77" y="151" type="line"/>
      <point x="50" y="0" type="line"/>
      <point x="612" y="0" type="line"/>
    </contour>
    <contour>
      <point x="951" y="942" type="line"/>
      <point x="975" y="1082" type="line"/>
      <point x="853" y="1082" type="line"/>
      <point x="6" y="145" type="line"/>
      <point x="-19" y="0" type="line"/>
      <point x="100" y="0" type="line"/>
    </contour>
    <contour>
      <point x="896" y="1082" type="line"/>
      <point x="178" y="1082" type="line"/>
      <point x="151" y="930" type="line"/>
      <point x="869" y="930" type="line"/>
    </contour>
  </outline>
</glyph>
<glyph name="uni0292" format="2">
  <advance width="1121"/>
  <unicode hex="0292"/>
  <anchor x="660" y="1290" name="top"/>
  <anchor x="360" y="-447" name="bottom"/>
  <anchor x="1240" y="1290" name="top0315"/>
  <outline>
    <contour>
      <point x="375" y="-437" type="curve" smooth="yes"/>
      <point x="643" y="-442"/>
      <point x="884" y="-283"/>
      <point x="910" y="-2" type="curve" smooth="yes"/>
      <point x="932" y="241"/>
      <point x="794" y="415"/>
      <point x="547" y="426" type="curve" smooth="yes"/>
      <point x="532" y="426" type="line"/>
      <point x="1033" y="955" type="line"/>
      <point x="1053" y="1082" type="line"/>
      <point x="209" y="1082" type="line"/>
      <point x="183" y="931" type="line"/>
      <point x="809" y="930" type="line"/>
      <point x="353" y="445" type="line"/>
      <point x="325" y="285" type="line"/>
      <point x="476" y="284" type="line" smooth="yes"/>
      <point x="662" y="279"/>
      <point x="754" y="180"/>
      <point x="729" y="-7" type="curve" smooth="yes"/>
      <point x="706" y="-181"/>
      <point x="557" y="-289"/>
      <point x="384" y="-285" type="curve" smooth="yes"/>
      <point x="239" y="-281"/>
      <point x="159" y="-184"/>
      <point x="150" y="-46" type="curve"/>
      <point x="-28" y="-45" type="line"/>
      <point x="-13" y="-290"/>
      <point x="130" y="-433"/>
    </contour>
  </outline>
</glyph>
<glyph name="uni0293" format="2">
  <advance width="1093"/>
  <unicode hex="0293"/>
  <anchor x="660" y="1290" name="top"/>
  <anchor x="360" y="-447" name="bottom"/>
  <anchor x="1212" y="1290" name="top0315"/>
  <outline>
    <contour>
      <point x="350" y="-436" type="curve" smooth="yes"/>
      <point x="480" y="-438"/>
      <point x="604" y="-408"/>
      <point x="712" y="-338" type="curve"/>
      <point x="787" y="-437" type="line"/>
      <point x="914" y="-324" type="line"/>
      <point x="826" y="-214" type="line"/>
      <point x="871" y="-150"/>
      <point x="899" y="-80"/>
      <point x="908" y="-2" type="curve" smooth="yes"/>
      <point x="936" y="241"/>
      <point x="793" y="415"/>
      <point x="547" y="426" type="curve" smooth="yes"/>
      <point x="533" y="426" type="line"/>
      <point x="1033" y="955" type="line"/>
      <point x="1054" y="1082" type="line"/>
      <point x="210" y="1082" type="line"/>
      <point x="183" y="931" type="line"/>
      <point x="809" y="930" type="line"/>
      <point x="353" y="445" type="line"/>
      <point x="326" y="285" type="line"/>
      <point x="476" y="284" type="line" smooth="yes"/>
      <point x="660" y="278"/>
      <point x="758" y="178"/>
      <point x="723" y="-9" type="curve" smooth="yes"/>
      <point x="719" y="-31"/>
      <point x="711" y="-52"/>
      <point x="701" y="-72" type="curve"/>
      <point x="591" y="45"/>
      <point x="457" y="136"/>
      <point x="289" y="138" type="curve" smooth="yes"/>
      <point x="130" y="140"/>
      <point x="-31" y="42"/>
      <point x="-41" y="-129" type="curve" smooth="yes"/>
      <point x="-54" y="-351"/>
      <point x="164" y="-433"/>
    </contour>
    <contour>
      <point x="354" y="-285" type="curve" smooth="yes"/>
      <point x="261" y="-285"/>
      <point x="120" y="-263"/>
      <point x="138" y="-140" type="curve" smooth="yes"/>
      <point x="150" y="-63"/>
      <point x="213" y="-17"/>
      <point x="290" y="-16" type="curve" smooth="yes"/>
      <point x="418" y="-14"/>
      <point x="531" y="-120"/>
      <point x="605" y="-211" type="curve"/>
      <point x="528" y="-261"/>
      <point x="446" y="-286"/>
    </contour>
  </outline>
</glyph>
<glyph name="glottalstopinv" format="2">
  <advance width="1039"/>
  <unicode hex="0296"/>
  <anchor x="671" y="1633" name="top"/>
  <anchor x="389" y="0" name="bottom"/>
  <anchor x="1218" y="1633" name="top0315"/>
  <outline>
    <contour>
      <point x="560" y="994" type="line" smooth="yes"/>
      <point x="772" y="985"/>
      <point x="792" y="777"/>
      <point x="769" y="608" type="curve" smooth="yes"/>
      <point x="756" y="520" type="line" smooth="yes"/>
      <point x="727" y="330"/>
      <point x="623" y="123"/>
      <point x="401" y="131" type="curve" smooth="yes"/>
      <point x="261" y="135"/>
      <point x="192" y="243"/>
      <point x="193" y="372" type="curve"/>
      <point x="23" y="373" type="line"/>
      <point x="20" y="149"/>
      <point x="164" y="-16"/>
      <point x="392" y="-21" type="curve" smooth="yes"/>
      <point x="707" y="-28"/>
      <point x="897" y="231"/>
      <point x="938" y="520" type="curve" smooth="yes"/>
      <point x="950" y="607" type="line" smooth="yes"/>
      <point x="983" y="877"/>
      <point x="868" y="1138"/>
      <point x="567" y="1147" type="curve" smooth="yes"/>
      <point x="528" y="1147" type="line"/>
      <point x="514" y="994" type="line"/>
    </contour>
    <contour>
      <point x="743" y="1535" type="line"/>
      <point x="561" y="1535" type="line"/>
      <point x="467" y="993" type="line"/>
      <point x="649" y="993" type="line"/>
    </contour>
  </outline>
</glyph>
<glyph name="cstretch" format="2">
  <advance width="1039"/>
  <unicode hex="0297"/>
  <anchor x="736" y="1633" name="top"/>
  <anchor x="377" y="-447" name="bottom"/>
  <anchor x="1218" y="1633" name="top0315"/>
  <outline>
    <contour>
      <point x="401" y="-287" type="curve" smooth="yes"/>
      <point x="187" y="-282"/>
      <point x="162" y="-66"/>
      <point x="186" y="102" type="curve" smooth="yes"/>
      <point x="263" y="562" type="line" smooth="yes"/>
      <point x="294" y="751"/>
      <point x="397" y="958"/>
      <point x="620" y="951" type="curve" smooth="yes"/>
      <point x="759" y="946"/>
      <point x="827" y="838"/>
      <point x="826" y="710" type="curve"/>
      <point x="996" y="709" type="line"/>
      <point x="999" y="933"/>
      <point x="856" y="1097"/>
      <point x="627" y="1102" type="curve" smooth="yes"/>
      <point x="311" y="1109"/>
      <point x="126" y="850"/>
      <point x="81" y="562" type="curve" smooth="yes"/>
      <point x="5" y="103" type="line" smooth="yes"/>
      <point x="-31" y="-169"/>
      <point x="92" y="-432"/>
      <point x="394" y="-438" type="curve" smooth="yes"/>
      <point x="607" y="-441"/>
      <point x="821" y="-292"/>
      <point x="855" y="-75" type="curve"/>
      <point x="683" y="-76" type="line"/>
      <point x="647" y="-201"/>
      <point x="535" y="-289"/>
    </contour>
  </outline>
</glyph>
<glyph name="epsilonclosed" format="2">
  <advance width="1037"/>
  <unicode hex="029A"/>
  <anchor x="622" y="1290" name="top"/>
  <anchor x="399" y="0" name="bottom"/>
  <anchor x="1156" y="1290" name="top0315"/>
  <outline>
    <contour>
      <point x="591" y="517" type="line"/>
      <point x="611" y="631" type="line"/>
      <point x="489" y="631" type="line" smooth="yes"/>
      <point x="390" y="635"/>
      <point x="311" y="670"/>
      <point x="328" y="780" type="curve" smooth="yes"/>
      <point x="344" y="897"/>
      <point x="455" y="953"/>
      <point x="566" y="951" type="curve" smooth="yes"/>
      <point x="772" y="948"/>
      <point x="772" y="705"/>
      <point x="756" y="556" type="curve"/>
      <point x="937" y="556" type="line"/>
      <point x="962" y="825"/>
      <point x="886" y="1096"/>
      <point x="574" y="1102" type="curve" smooth="yes"/>
      <point x="368" y="1106"/>
      <point x="162" y="1008"/>
      <point x="151" y="780" type="curve" smooth="yes"/>
      <point x="141" y="597"/>
      <point x="325" y="523"/>
      <point x="480" y="518" type="curve" smooth="yes"/>
    </contour>
    <contour>
      <point x="467" y="588" type="line" smooth="yes"/>
      <point x="274" y="588"/>
      <point x="58" y="522"/>
      <point x="45" y="298" type="curve" smooth="yes"/>
      <point x="32" y="81"/>
      <point x="220" y="-15"/>
      <point x="411" y="-20" type="curve" smooth="yes"/>
      <point x="748" y="-28"/>
      <point x="896" y="259"/>
      <point x="931" y="557" type="curve"/>
      <point x="753" y="556" type="line"/>
      <point x="726" y="370"/>
      <point x="654" y="120"/>
      <point x="420" y="127" type="curve" smooth="yes"/>
      <point x="317" y="130"/>
      <point x="214" y="181"/>
      <point x="229" y="297" type="curve" smooth="yes"/>
      <point x="247" y="433"/>
      <point x="361" y="474"/>
      <point x="484" y="475" type="curve" smooth="yes"/>
      <point x="584" y="475" type="line"/>
      <point x="603" y="587" type="line"/>
    </contour>
  </outline>
</glyph>
<glyph name="kturn" format="2">
  <advance width="1007"/>
  <unicode hex="029E"/>
  <anchor x="601" y="1290" name="top"/>
  <anchor x="301" y="-447" name="bottom"/>
  <anchor x="1126" y="1290" name="top0315"/>
  <outline>
    <contour>
      <point x="514" y="-416" type="line"/>
      <point x="695" y="-416" type="line"/>
      <point x="955" y="1082" type="line"/>
      <point x="773" y="1082" type="line"/>
    </contour>
    <contour>
      <point x="-63" y="0" type="line"/>
      <point x="172" y="0" type="line"/>
      <point x="556" y="351" type="line"/>
      <point x="774" y="572" type="line"/>
      <point x="795" y="787" type="line"/>
      <point x="485" y="507" type="line"/>
    </contour>
    <contour>
      <point x="290" y="1082" type="line"/>
      <point x="91" y="1082" type="line"/>
      <point x="466" y="401" type="line"/>
      <point x="581" y="556" type="line"/>
    </contour>
  </outline>
</glyph>
<glyph name="glottalstopbar" format="2">
  <advance width="1039"/>
  <unicode hex="02A1"/>
  <anchor x="656" y="1633" name="top"/>
  <anchor x="374" y="0" name="bottom"/>
  <anchor x="1218" y="1633" name="top0315"/>
  <outline>
    <contour>
      <point x="726" y="303" type="line"/>
      <point x="107" y="303" type="line"/>
      <point x="81" y="152" type="line"/>
      <point x="700" y="152" type="line"/>
    </contour>
    <contour>
      <point x="370" y="546" type="line"/>
      <point x="343" y="395" type="line"/>
      <point x="459" y="394" type="line" smooth="yes"/>
      <point x="776" y="395"/>
      <point x="968" y="638"/>
      <point x="1011" y="935" type="curve" smooth="yes"/>
      <point x="1021" y="1017" type="line" smooth="yes"/>
      <point x="1055" y="1289"/>
      <point x="936" y="1552"/>
      <point x="632" y="1558" type="curve" smooth="yes"/>
      <point x="419" y="1562"/>
      <point x="205" y="1412"/>
      <point x="171" y="1195" type="curve"/>
      <point x="343" y="1196" type="line"/>
      <point x="379" y="1321"/>
      <point x="492" y="1409"/>
      <point x="625" y="1407" type="curve" smooth="yes"/>
      <point x="840" y="1402"/>
      <point x="863" y="1186"/>
      <point x="840" y="1018" type="curve" smooth="yes"/>
      <point x="828" y="935" type="line" smooth="yes"/>
      <point x="797" y="736"/>
      <point x="689" y="545"/>
      <point x="464" y="544" type="curve" smooth="yes"/>
    </contour>
    <contour>
      <point x="557" y="546" type="line"/>
      <point x="369" y="546" type="line"/>
      <point x="274" y="0" type="line"/>
      <point x="462" y="0" type="line"/>
    </contour>
  </outline>
</glyph>
<glyph name="tccurl" format="2">
  <advance width="1535"/>
  <unicode hex="02A8"/>
  <anchor x="1226" y="1600" name="top"/>
  <anchor x="949" y="0" name="bottom"/>
  <anchor x="1708" y="1600" name="top0315"/>
  <outline>
    <contour>
      <point x="971" y="133" type="curve" smooth="yes"/>
      <point x="756" y="137"/>
      <point x="730" y="349"/>
      <point x="752" y="519" type="curve" smooth="yes"/>
      <point x="757" y="560" type="line" smooth="yes"/>
      <point x="784" y="751"/>
      <point x="892" y="958"/>
      <point x="1114" y="951" type="curve" smooth="yes"/>
      <point x="1254" y="947"/>
      <point x="1322" y="839"/>
      <point x="1321" y="710" type="curve"/>
      <point x="1491" y="709" type="line"/>
      <point x="1494" y="933"/>
      <point x="1350" y="1097"/>
      <point x="1122" y="1102" type="curve" smooth="yes"/>
      <point x="809" y="1110"/>
      <point x="614" y="850"/>
      <point x="578" y="560" type="curve" smooth="yes"/>
      <point x="573" y="517" type="line" smooth="yes"/>
      <point x="542" y="243"/>
      <point x="657" y="-15"/>
      <point x="964" y="-21" type="curve" smooth="yes"/>
      <point x="1166" y="-24"/>
      <point x="1406" y="94"/>
      <point x="1418" y="320" type="curve" smooth="yes"/>
      <point x="1424" y="458"/>
      <point x="1333" y="545"/>
      <point x="1198" y="548" type="curve" smooth="yes"/>
      <point x="872" y="554"/>
      <point x="711" y="154"/>
      <point x="408" y="137" type="curve"/>
      <point x="338" y="-20" type="line"/>
      <point x="672" y="-14"/>
      <point x="866" y="406"/>
      <point x="1164" y="395" type="curve" smooth="yes"/>
      <point x="1222" y="393"/>
      <point x="1253" y="358"/>
      <point x="1246" y="301" type="curve" smooth="yes"/>
      <point x="1231" y="179"/>
      <point x="1075" y="131"/>
    </contour>
    <contour>
      <point x="661" y="1082" type="line"/>
      <point x="92" y="1082" type="line"/>
      <point x="67" y="940" type="line"/>
      <point x="636" y="940" type="line"/>
    </contour>
    <contour>
      <point x="329" y="1344" type="line"/>
      <point x="153" y="298" type="line" smooth="yes"/>
      <point x="138" y="153"/>
      <point x="175" y="-11"/>
      <point x="346" y="-19" type="curve"/>
      <point x="414" y="139" type="line"/>
      <point x="326" y="150"/>
      <point x="321" y="216"/>
      <point x="331" y="294" type="curve" smooth="yes"/>
      <point x="510" y="1344" type="line"/>
    </contour>
  </outline>
</glyph>
<glyph name="uni02A9" format="2">
  <advance width="1651"/>
  <unicode hex="02A9"/>
  <anchor x="1310" y="1700" name="top"/>
  <anchor x="939" y="-447" name="bottom"/>
  <anchor x="1841" y="1700" name="top0315"/>
  <outline>
    <contour>
      <point x="955" y="1082" type="line"/>
      <point x="773" y="1082" type="line"/>
      <point x="586" y="0" type="line"/>
      <point x="767" y="0" type="line"/>
    </contour>
    <contour>
      <point x="826" y="583" type="line"/>
      <point x="861" y="759"/>
      <point x="985" y="954"/>
      <point x="1188" y="948" type="curve" smooth="yes"/>
      <point x="1344" y="943"/>
      <point x="1362" y="809"/>
      <point x="1346" y="681" type="curve" smooth="yes"/>
      <point x="1232" y="0" type="line"/>
      <point x="1413" y="0" type="line"/>
      <point x="1526" y="679" type="line" smooth="yes"/>
      <point x="1550" y="888"/>
      <point x="1491" y="1097"/>
      <point x="1248" y="1102" type="curve" smooth="yes"/>
      <point x="958" y="1110"/>
      <point x="791" y="843"/>
      <point x="756" y="585" type="curve"/>
    </contour>
    <contour>
      <point x="1247" y="84" type="line"/>
      <point x="1223" y="-64" type="line" smooth="yes"/>
      <point x="1205" y="-165"/>
      <point x="1147" y="-236"/>
      <point x="1037" y="-234" type="curve" smooth="yes"/>
      <point x="1017" y="-233"/>
      <point x="999" y="-229"/>
      <point x="980" y="-224" type="curve"/>
      <point x="966" y="-351" type="line"/>
      <point x="1001" y="-361"/>
      <point x="1036" y="-368"/>
      <point x="1071" y="-368" type="curve" smooth="yes"/>
      <point x="1255" y="-371"/>
      <point x="1383" y="-240"/>
      <point x="1407" y="-64" type="curve" smooth="yes"/>
      <point x="1428" y="84" type="line"/>
    </contour>
    <contour>
      <point x="301" y="0" type="line"/>
      <point x="507" y="1197" type="line" smooth="yes"/>
      <point x="527" y="1316"/>
      <point x="604" y="1403"/>
      <point x="731" y="1402" type="curve" smooth="yes"/>
      <point x="764" y="1402"/>
      <point x="796" y="1398"/>
      <point x="827" y="1391" type="curve"/>
      <point x="849" y="1543" type="line"/>
      <point x="807" y="1552"/>
      <point x="764" y="1560"/>
      <point x="720" y="1560" type="curve" smooth="yes"/>
      <point x="493" y="1562"/>
      <point x="353" y="1414"/>
      <point x="324" y="1196" type="curve" smooth="yes"/>
      <point x="120" y="0" type="line"/>
    </contour>
    <contour>
      <point x="791" y="1082" type="line"/>
      <point x="142" y="1082" type="line"/>
      <point x="117" y="940" type="line"/>
      <point x="766" y="940" type="line"/>
    </contour>
  </outline>
</glyph>
<glyph name="uni02AC" format="2">
  <advance width="896"/>
  <unicode hex="02AC"/>
  <anchor x="620" y="1600" name="top"/>
  <anchor x="343" y="0" name="bottom"/>
  <anchor x="1069" y="1600" name="top0315"/>
  <outline>
    <contour>
      <point x="326" y="1006" type="line"/>
      <point x="298" y="871" type="line"/>
      <point x="377" y="871" type="line"/>
      <point x="586" y="1313" type="line"/>
      <point x="623" y="1456" type="line"/>
      <point x="531" y="1455" type="line"/>
    </contour>
    <contour>
      <point x="331" y="1456" type="line"/>
      <point x="195" y="1456" type="line"/>
      <point x="259" y="871" type="line"/>
      <point x="338" y="871" type="line"/>
      <point x="349" y="994" type="line"/>
    </contour>
    <contour>
      <point x="691" y="1017" type="line"/>
      <point x="650" y="871" type="line"/>
      <point x="737" y="871" type="line"/>
      <point x="1005" y="1456" type="line"/>
      <point x="858" y="1456" type="line"/>
    </contour>
    <contour>
      <point x="653" y="1456" type="line"/>
      <point x="575" y="1456" type="line"/>
      <point x="562" y="1335" type="line"/>
      <point x="620" y="871" type="line"/>
      <point x="693" y="871" type="line"/>
      <point x="711" y="995" type="line"/>
    </contour>
    <contour>
      <point x="175" y="135" type="line"/>
      <point x="147" y="0" type="line"/>
      <point x="226" y="0" type="line"/>
      <point x="435" y="442" type="line"/>
      <point x="472" y="585" type="line"/>
      <point x="380" y="584" type="line"/>
    </contour>
    <contour>
      <point x="181" y="585" type="line"/>
      <point x="44" y="585" type="line"/>
      <point x="108" y="0" type="line"/>
      <point x="187" y="0" type="line"/>
      <point x="198" y="122" type="line"/>
    </contour>
    <contour>
      <point x="540" y="146" type="line"/>
      <point x="499" y="0" type="line"/>
      <point x="586" y="0" type="line"/>
      <point x="854" y="585" type="line"/>
      <point x="707" y="585" type="line"/>
    </contour>
    <contour>
      <point x="502" y="585" type="line"/>
      <point x="424" y="585" type="line"/>
      <point x="411" y="464" type="line"/>
      <point x="469" y="0" type="line"/>
      <point x="542" y="0" type="line"/>
      <point x="560" y="124" type="line"/>
    </contour>
  </outline>
</glyph>
<glyph name="hsuper" format="2">
  <advance width="818"/>
  <unicode hex="02B0"/>
  <outline>
    <contour>
      <point x="474" y="1805" type="line"/>
      <point x="307" y="1805" type="line"/>
      <point x="107" y="651" type="line"/>
      <point x="274" y="651" type="line"/>
    </contour>
    <contour>
      <point x="323" y="1078" type="line"/>
      <point x="346" y="1189"/>
      <point x="399" y="1327"/>
      <point x="536" y="1324" type="curve" smooth="yes"/>
      <point x="645" y="1322"/>
      <point x="651" y="1213"/>
      <point x="641" y="1128" type="curve" smooth="yes"/>
      <point x="563" y="651" type="line"/>
      <point x="729" y="651" type="line"/>
      <point x="812" y="1159" type="line" smooth="yes"/>
      <point x="826" y="1317"/>
      <point x="774" y="1463"/>
      <point x="595" y="1467" type="curve" smooth="yes"/>
      <point x="386" y="1471"/>
      <point x="307" y="1247"/>
      <point x="282" y="1077" type="curve"/>
    </contour>
  </outline>
</glyph>
<glyph name="hhooksuper" format="2">
  <advance width="818"/>
  <unicode hex="02B1"/>
  <outline>
    <contour>
      <point x="432" y="1566" type="line"/>
      <point x="441" y="1604"/>
      <point x="458" y="1636"/>
      <point x="500" y="1638" type="curve" smooth="yes"/>
      <point x="524" y="1639"/>
      <point x="549" y="1632"/>
      <point x="571" y="1627" type="curve"/>
      <point x="589" y="1786" type="line"/>
      <point x="538" y="1797"/>
      <point x="487" y="1809"/>
      <point x="435" y="1808" type="curve" smooth="yes"/>
      <point x="304" y="1806"/>
      <point x="276" y="1689"/>
      <point x="263" y="1579" type="curve" smooth="yes"/>
      <point x="107" y="651" type="line"/>
      <point x="274" y="651" type="line"/>
    </contour>
    <contour>
      <point x="323" y="1078" type="line"/>
      <point x="346" y="1189"/>
      <point x="399" y="1327"/>
      <point x="536" y="1324" type="curve" smooth="yes"/>
      <point x="645" y="1322"/>
      <point x="651" y="1213"/>
      <point x="641" y="1128" type="curve" smooth="yes"/>
      <point x="563" y="651" type="line"/>
      <point x="729" y="651" type="line"/>
      <point x="812" y="1159" type="line" smooth="yes"/>
      <point x="827" y="1316"/>
      <point x="774" y="1464"/>
      <point x="595" y="1467" type="curve" smooth="yes"/>
      <point x="387" y="1471"/>
      <point x="307" y="1247"/>
      <point x="282" y="1077" type="curve"/>
    </contour>
  </outline>
</glyph>
<glyph name="jsuper" format="2">
  <advance width="443"/>
  <unicode hex="02B2"/>
  <outline>
    <contour>
      <point x="316" y="1452" type="line"/>
      <point x="175" y="622" type="line" smooth="yes"/>
      <point x="163" y="550"/>
      <point x="141" y="478"/>
      <point x="55" y="479" type="curve" smooth="yes"/>
      <point x="38" y="479"/>
      <point x="22" y="483"/>
      <point x="6" y="487" type="curve"/>
      <point x="-11" y="340" type="line"/>
      <point x="20" y="333"/>
      <point x="50" y="326"/>
      <point x="81" y="326" type="curve" smooth="yes"/>
      <point x="257" y="324"/>
      <point x="323" y="471"/>
      <point x="343" y="623" type="curve" smooth="yes"/>
      <point x="482" y="1452" type="line"/>
    </contour>
    <contour>
      <point x="334" y="1664" type="curve" smooth="yes"/>
      <point x="332" y="1606"/>
      <point x="374" y="1567"/>
      <point x="430" y="1568" type="curve" smooth="yes"/>
      <point x="485" y="1570"/>
      <point x="527" y="1609"/>
      <point x="530" y="1665" type="curve" smooth="yes"/>
      <point x="532" y="1723"/>
      <point x="490" y="1765"/>
      <point x="433" y="1764" type="curve" smooth="yes"/>
      <point x="377" y="1762"/>
      <point x="336" y="1719"/>
    </contour>
  </outline>
</glyph>
<glyph name="rsuper" format="2">
  <advance width="537"/>
  <unicode hex="02B3"/>
  <outline>
    <contour>
      <point x="381" y="1269" type="line"/>
      <point x="369" y="1451" type="line"/>
      <point x="246" y="1451" type="line"/>
      <point x="107" y="651" type="line"/>
      <point x="274" y="651" type="line"/>
    </contour>
    <contour>
      <point x="643" y="1459" type="line"/>
      <point x="617" y="1464"/>
      <point x="592" y="1468"/>
      <point x="566" y="1468" type="curve" smooth="yes"/>
      <point x="371" y="1470"/>
      <point x="303" y="1231"/>
      <point x="280" y="1078" type="curve"/>
      <point x="324" y="1079" type="line"/>
      <point x="347" y="1185"/>
      <point x="399" y="1308"/>
      <point x="528" y="1307" type="curve" smooth="yes"/>
      <point x="562" y="1307"/>
      <point x="593" y="1295"/>
      <point x="623" y="1280" type="curve"/>
    </contour>
  </outline>
</glyph>
<glyph name="Rturnsuper" format="2">
  <advance width="848"/>
  <unicode hex="02B6"/>
  <outline>
    <contour>
      <point x="675" y="1107" type="line"/>
      <point x="942" y="1451" type="line"/>
      <point x="740" y="1451" type="line"/>
      <point x="472" y="1107" type="line"/>
    </contour>
    <contour>
      <point x="462" y="649" type="line" smooth="yes"/>
      <point x="624" y="651"/>
      <point x="782" y="746"/>
      <point x="791" y="921" type="curve" smooth="yes"/>
      <point x="800" y="1073"/>
      <point x="691" y="1171"/>
      <point x="545" y="1176" type="curve" smooth="yes"/>
      <point x="326" y="1177" type="line"/>
      <point x="301" y="1032" type="line"/>
      <point x="514" y="1031" type="line" smooth="yes"/>
      <point x="583" y="1028"/>
      <point x="639" y="998"/>
      <point x="626" y="921" type="curve" smooth="yes"/>
      <point x="610" y="828"/>
      <point x="519" y="798"/>
      <point x="435" y="796" type="curve" smooth="yes"/>
      <point x="298" y="796" type="line"/>
      <point x="413" y="1451" type="line"/>
      <point x="246" y="1451" type="line"/>
      <point x="107" y="651" type="line"/>
    </contour>
  </outline>
</glyph>
<glyph name="ysuper" format="2">
  <advance width="792"/>
  <unicode hex="02B8"/>
  <outline>
    <contour>
      <point x="380" y="751" type="line"/>
      <point x="298" y="583" type="line" smooth="yes"/>
      <point x="267" y="520"/>
      <point x="231" y="471"/>
      <point x="155" y="470" type="curve" smooth="yes"/>
      <point x="137" y="469"/>
      <point x="119" y="471"/>
      <point x="101" y="473" type="curve"/>
      <point x="86" y="338" type="line"/>
      <point x="115" y="331"/>
      <point x="145" y="325"/>
      <point x="175" y="325" type="curve" smooth="yes"/>
      <point x="304" y="325"/>
      <point x="386" y="417"/>
      <point x="436" y="526" type="curve" smooth="yes"/>
      <point x="905" y="1451" type="line"/>
      <point x="721" y="1451" type="line"/>
    </contour>
    <contour>
      <point x="377" y="1451" type="line"/>
      <point x="198" y="1451" type="line"/>
      <point x="343" y="632" type="line"/>
      <point x="475" y="680" type="line"/>
      <point x="457" y="883" type="line"/>
    </contour>
  </outline>
</glyph>
<glyph name="uni02BF" format="2">
  <advance width="278"/>
  <unicode hex="02BF"/>
  <outline>
    <contour>
      <point x="321" y="1117" type="line"/>
      <point x="220" y="1127"/>
      <point x="153" y="1194"/>
      <point x="167" y="1301" type="curve" smooth="yes"/>
      <point x="182" y="1420"/>
      <point x="280" y="1500"/>
      <point x="394" y="1508" type="curve"/>
      <point x="376" y="1414" type="line"/>
      <point x="317" y="1404"/>
      <point x="268" y="1371"/>
      <point x="263" y="1305" type="curve" smooth="yes"/>
      <point x="259" y="1253"/>
      <point x="291" y="1215"/>
      <point x="341" y="1208" type="curve"/>
    </contour>
  </outline>
</glyph>
<glyph name="uni02C2" format="2">
  <advance width="808"/>
  <unicode hex="02C2"/>
  <outline>
    <contour>
      <point x="356" y="940" type="line"/>
      <point x="122" y="1009" type="line"/>
      <point x="103" y="903" type="line"/>
      <point x="758" y="600" type="line"/>
      <point x="785" y="757" type="line"/>
    </contour>
    <contour>
      <point x="855" y="1160" type="line"/>
      <point x="885" y="1333" type="line"/>
      <point x="126" y="1032" type="line"/>
      <point x="105" y="911" type="line"/>
      <point x="384" y="982" type="line"/>
    </contour>
  </outline>
</glyph>
<glyph name="uni02C3" format="2">
  <advance width="805"/>
  <unicode hex="02C3"/>
  <outline>
    <contour>
      <point x="568" y="941" type="line"/>
      <point x="822" y="1008" type="line"/>
      <point x="804" y="902" type="line"/>
      <point x="47" y="601" type="line"/>
      <point x="75" y="758" type="line"/>
    </contour>
    <contour>
      <point x="144" y="1160" type="line"/>
      <point x="175" y="1333" type="line"/>
      <point x="826" y="1033" type="line"/>
      <point x="805" y="911" type="line"/>
      <point x="552" y="982" type="line"/>
    </contour>
  </outline>
</glyph>
<glyph name="circumflex" format="2">
  <advance width="935"/>
  <unicode hex="02C6"/>
  <anchor x="576" y="1290" name="_top"/>
  <anchor x="636" y="1637" name="mkmktop_acc"/>
  <outline>
    <contour>
      <point x="664" y="1537" type="line"/>
      <point x="557" y="1536" type="line"/>
      <point x="280" y="1266" type="line"/>
      <point x="280" y="1251" type="line"/>
      <point x="433" y="1254" type="line"/>
      <point x="608" y="1421" type="line"/>
      <point x="722" y="1253" type="line"/>
      <point x="869" y="1250" type="line"/>
      <point x="869" y="1265" type="line"/>
    </contour>
  </outline>
</glyph>
<glyph name="caron" format="2">
  <advance width="883"/>
  <unicode hex="02C7"/>
  <anchor x="556" y="1290" name="_top"/>
  <anchor x="614" y="1627" name="mkmktop_acc"/>
  <outline>
    <contour>
      <point x="446" y="1536" type="line"/>
      <point x="296" y="1538" type="line"/>
      <point x="295" y="1523" type="line"/>
      <point x="501" y="1251" type="line"/>
      <point x="613" y="1252" type="line"/>
      <point x="898" y="1523" type="line"/>
      <point x="897" y="1538" type="line"/>
      <point x="737" y="1534" type="line"/>
      <point x="560" y="1366" type="line"/>
    </contour>
  </outline>
</glyph>
<glyph name="uni02D0" format="2">
  <advance width="423"/>
  <unicode hex="02D0"/>
  <outline>
    <contour>
      <point x="161" y="1084" type="curve"/>
      <point x="198" y="1014"/>
      <point x="225" y="939"/>
      <point x="257" y="867" type="curve"/>
      <point x="264" y="868"/>
      <point x="271" y="868"/>
      <point x="277" y="868" type="curve"/>
      <point x="327" y="936"/>
      <point x="382" y="1007"/>
      <point x="422" y="1081" type="curve"/>
      <point x="392" y="1081"/>
      <point x="167" y="1074"/>
    </contour>
    <contour>
      <point x="-21" y="0" type="curve"/>
      <point x="66" y="0"/>
      <point x="154" y="0"/>
      <point x="241" y="0" type="curve"/>
      <point x="197" y="61"/>
      <point x="175" y="144"/>
      <point x="144" y="212" type="curve"/>
      <point x="137" y="212"/>
      <point x="131" y="212"/>
      <point x="124" y="212" type="curve"/>
      <point x="74" y="142"/>
      <point x="26" y="71"/>
    </contour>
  </outline>
</glyph>
<glyph name="uni02D7" format="2">
  <advance width="537"/>
  <unicode hex="02D7"/>
  <outline>
    <contour>
      <point x="20" y="418" type="line"/>
      <point x="-4" y="285" type="line"/>
      <point x="432" y="285" type="line"/>
      <point x="456" y="418" type="line"/>
    </contour>
  </outline>
</glyph>
<glyph name="ogonek" format="2">
  <advance width="538"/>
  <unicode hex="02DB"/>
  <anchor x="277" y="0" name="_right"/>
  <anchor x="277" y="0" name="_ogonek"/>
  <anchor x="203" y="0" name="_bottom"/>
  <anchor x="136" y="-434" name="mkmkbottom_acc"/>
  <outline>
    <contour>
      <point x="205" y="58" type="line"/>
      <point x="79" y="0"/>
      <point x="-75" y="-93"/>
      <point x="-80" y="-250" type="curve" smooth="yes"/>
      <point x="-84" y="-356"/>
      <point x="-18" y="-433"/>
      <point x="90" y="-433" type="curve" smooth="yes"/>
      <point x="144" y="-433"/>
      <point x="195" y="-420"/>
      <point x="241" y="-391" type="curve"/>
      <point x="237" y="-268" type="line"/>
      <point x="206" y="-282"/>
      <point x="172" y="-295"/>
      <point x="137" y="-295" type="curve" smooth="yes"/>
      <point x="94" y="-294"/>
      <point x="75" y="-271"/>
      <point x="81" y="-229" type="curve" smooth="yes"/>
      <point x="93" y="-128"/>
      <point x="203" y="-57"/>
      <point x="278" y="-3" type="curve"/>
    </contour>
  </outline>
</glyph>
<glyph name="qofdagesh" format="2">
  <advance width="626"/>
  <unicode hex="02DF"/>
  <anchor x="417" y="1196" name="_top"/>
  <outline>
    <contour>
      <point x="273" y="1158" type="line"/>
      <point x="713" y="1545" type="line"/>
      <point x="632" y="1649" type="line"/>
      <point x="191" y="1263" type="line"/>
    </contour>
    <contour>
      <point x="561" y="1156" type="line"/>
      <point x="659" y="1244" type="line"/>
      <point x="343" y="1650" type="line"/>
      <point x="245" y="1563" type="line"/>
    </contour>
  </outline>
</glyph>
<glyph name="tavdages" format="2">
  <advance width="755"/>
  <unicode hex="02E2"/>
  <outline>
    <contour>
      <point x="578" y="870" type="curve" smooth="yes"/>
      <point x="564" y="804"/>
      <point x="489" y="784"/>
      <point x="430" y="783" type="curve" smooth="yes"/>
      <point x="345" y="782"/>
      <point x="280" y="811"/>
      <point x="269" y="899" type="curve"/>
      <point x="110" y="899" type="line"/>
      <point x="108" y="721"/>
      <point x="259" y="639"/>
      <point x="422" y="636" type="curve" smooth="yes"/>
      <point x="581" y="633"/>
      <point x="735" y="703"/>
      <point x="743" y="881" type="curve" smooth="yes"/>
      <point x="750" y="1038"/>
      <point x="615" y="1094"/>
      <point x="485" y="1130" type="curve" smooth="yes"/>
      <point x="434" y="1144"/>
      <point x="346" y="1161"/>
      <point x="359" y="1230" type="curve" smooth="yes"/>
      <point x="372" y="1298"/>
      <point x="451" y="1318"/>
      <point x="511" y="1319" type="curve" smooth="yes"/>
      <point x="584" y="1319"/>
      <point x="636" y="1291"/>
      <point x="637" y="1216" type="curve"/>
      <point x="796" y="1215" type="line"/>
      <point x="797" y="1382"/>
      <point x="656" y="1464"/>
      <point x="503" y="1466" type="curve" smooth="yes"/>
      <point x="357" y="1468"/>
      <point x="203" y="1389"/>
      <point x="196" y="1228" type="curve" smooth="yes"/>
      <point x="189" y="1080"/>
      <point x="308" y="1022"/>
      <point x="433" y="986" type="curve" smooth="yes"/>
      <point x="487" y="971"/>
      <point x="595" y="947"/>
    </contour>
  </outline>
</glyph>
<glyph name="xsuper" format="2">
  <advance width="783"/>
  <unicode hex="02E3"/>
  <outline>
    <contour>
      <point x="381" y="1451" type="line"/>
      <point x="199" y="1451" type="line"/>
      <point x="363" y="1067" type="line"/>
      <point x="41" y="651" type="line"/>
      <point x="247" y="651" type="line"/>
      <point x="457" y="936" type="line"/>
      <point x="567" y="651" type="line"/>
      <point x="748" y="651" type="line"/>
      <point x="578" y="1046" type="line"/>
      <point x="891" y="1451" type="line"/>
      <point x="685" y="1451" type="line"/>
      <point x="483" y="1175" type="line"/>
    </contour>
  </outline>
</glyph>
<glyph name="uni02E4" format="2">
  <advance width="814"/>
  <unicode hex="02E4"/>
  <outline>
    <contour>
      <point x="676" y="1167" type="curve"/>
      <point x="845" y="1167" type="line"/>
      <point x="850" y="1348"/>
      <point x="716" y="1462"/>
      <point x="540" y="1466" type="curve" smooth="yes"/>
      <point x="324" y="1471"/>
      <point x="173" y="1306"/>
      <point x="158" y="1096" type="curve" smooth="yes"/>
      <point x="144" y="904"/>
      <point x="245" y="760"/>
      <point x="444" y="754" type="curve" smooth="yes"/>
      <point x="472" y="754" type="line"/>
      <point x="485" y="898" type="line"/>
      <point x="453" y="899" type="line" smooth="yes"/>
      <point x="331" y="904"/>
      <point x="308" y="992"/>
      <point x="321" y="1099" type="curve" smooth="yes"/>
      <point x="335" y="1217"/>
      <point x="400" y="1324"/>
      <point x="531" y="1321" type="curve" smooth="yes"/>
      <point x="627" y="1319"/>
      <point x="674" y="1257"/>
    </contour>
    <contour>
      <point x="493" y="651" type="line"/>
      <point x="536" y="897" type="line"/>
      <point x="370" y="897" type="line"/>
      <point x="327" y="651" type="line"/>
    </contour>
  </outline>
</glyph>
